<?xml version="1.0" encoding="UTF-8"?>
<svg width="100px" height="100px" viewBox="0 0 100 100" version="1.1" xmlns="http://www.w3.org/2000/svg" xmlns:xlink="http://www.w3.org/1999/xlink">
    <!-- Generator: Sketch 52.6 (67491) - http://www.bohemiancoding.com/sketch -->
    <title>Cherries (1F352)</title>
    <desc>Created with Sketch.</desc>
    <g id="Cherries-(1F352)" stroke="none" stroke-width="1" fill="none" fill-rule="evenodd">
        <path d="M11.5753575,13.3698878 C10.445918,13.3698878 11.1332207,15.6539119 11.5401542,16.0813806 C11.9977972,16.5591398 12.3401913,15.9053641 12.7576019,16.4417955 C13.5584772,17.4727495 19.0887492,28.9473515 20.7588109,32.9747776 C25.5783114,44.600251 26.5514314,49.0006645 27.6536303,52.11029 C27.9742318,53.0155179 28.8643726,54.3565963 29.2289783,54.3524055 C32.1483383,54.3063059 31.9144878,53.367551 30.8093554,50.0902907 C29.1015758,45.019338 24.8616727,36.5621623 22.6597896,31.6546536 C20.7458192,27.3883479 17.0427665,19.6645745 14.3052902,15.9556545 C12.8715936,14.0152817 11.5753575,13.3698878 11.5753575,13.3698878 Z" id="Path" fill="#566F18"></path>
        <path d="M51.8454273,53.3549784 C53.4492733,51.5654769 55.3230113,50.0777181 57.3539069,48.9000836 C64.267166,44.8852301 72.9971673,44.4451888 79.0680616,47.8942748 C90.5359583,54.4110777 94.3651562,67.7925256 87.9321707,78.6133519 C83.3037739,86.3999884 77.2597012,90.5531405 68.4919821,91.1063354 C63.3736725,91.4290324 52.1337592,89.6562944 48.5141048,75.9898673 C46.1391387,67.0255964 49.6896438,55.7605378 51.8454273,53.3549784 Z" id="Path" fill="#D41836"></path>
        <path d="M37.8621588,27.1824414 C36.7444684,25.9027963 37.078205,25.1122988 35.9910525,25.8722246 C34.618588,26.8286829 34.7651704,27.5624043 35.2520332,28.2175127 C36.6681234,30.1304293 42.6845436,35.7949334 45.0734869,38.5551235 C47.5762933,41.4463353 51.7604341,45.647764 54.2200511,48.5826497 C55.9812205,50.6877314 56.4820436,52.3560742 57.5321142,52.9980804 C58.1817008,53.3955128 59.0917329,53.3736759 60.186738,52.1115004 C60.938845,51.2467572 61.4278891,50.7357727 61.1779139,50.0413578 C60.8031691,48.9931843 59.0777727,47.8969695 57.8972613,46.8881026 C55.8621224,45.1498816 53.5752632,43.1670868 51.6823441,41.262905 C46.7508951,36.2971832 42.0606961,31.9822024 37.8621588,27.1824414 Z" id="Path" fill="#566F18"></path>
        <path d="M11.671074,11.8138764 C14.0871106,10.3722171 21.9387055,7.82835902 27.4673012,6.86026805 C32.1329968,6.0430484 36.8992733,6.02209405 41.6374709,6.43279931 C62.1111281,8.21391906 69.7309679,22.3078149 69.7309679,22.3078149 C69.7309679,22.3078149 61.0294645,27.5338298 53.6996329,28.3468585 C42.2962756,29.6125013 31.5684866,30.6308827 21.5711662,23.271715 C19.7581959,21.9348274 17.5160804,19.8142472 15.500691,18.0331275 C14.2580981,16.9309287 13.2292395,15.7449125 12.0599868,15.6024229 C11.068846,15.4850785 10.5227757,12.5011791 11.671074,11.8138764 Z" id="Path" fill="#84A758"></path>
        <path d="M11.671074,11.8138764 C14.0871106,10.3722171 21.9387055,7.82835902 27.4673012,6.86026805 C32.1329968,6.0430484 36.8992733,6.02209405 41.6374709,6.43279931 C62.1111281,8.21391906 69.7309679,22.3078149 69.7309679,22.3078149 C69.7309679,22.3078149 61.3379126,21.36906 43.709437,18.7958658 C41.5964004,18.4857414 39.1204344,18.0750362 36.4969497,17.6056587 C25.0252813,15.5479416 10.73651,12.3712621 11.671074,11.8138764 Z" id="Path" fill="#527828"></path>
        <path d="M36.4060079,6.17296537 C36.6599746,6.17296537 36.9139413,6.17715624 37.1674889,6.18553798 C37.0702608,6.2525919 36.9592027,6.30707321 36.8531737,6.36993626 C33.7242702,8.19715558 30.7395325,10.3219267 28.1906454,12.8448304 C27.3642058,13.6620501 26.5968575,14.5379419 25.8869242,15.4431698 C25.8714179,15.4599333 25.8563308,15.4808876 25.8412437,15.501842 C28.3469649,15.9963647 30.8577151,16.469933 33.3722371,16.9141652 C37.8028248,13.5488966 42.1248691,10.1249558 47.139245,7.71520553 C47.360523,7.61043378 47.5830582,7.50566203 47.8068506,7.40089028 C48.0184895,7.45118072 48.228033,7.50147116 48.4363193,7.55595247 C48.4078214,7.56852508 48.3789044,7.57690682 48.3508255,7.58947943 C44.296997,9.39993527 40.6622554,11.9354116 37.1415055,14.5588962 C36.0497839,15.3761159 34.9815312,16.1933355 33.9074112,17.0105552 C36.3544602,17.4422148 38.8044428,17.8487292 41.2565208,18.2259075 C42.2124582,18.3725879 43.1692339,18.5108867 44.1272668,18.6449945 C44.1310385,18.6408036 44.1348103,18.6366128 44.1390012,18.6324219 C45.4360755,17.4799326 46.7943364,16.3483977 48.0909916,15.2797259 C50.443746,13.3393531 52.9473718,11.5582333 55.7150223,10.1459101 C55.8663127,10.2171549 56.0163459,10.2883997 56.1647027,10.3638354 C52.977546,11.956366 50.1386507,14.0434192 47.4611038,16.3316343 C46.5231871,17.1320904 45.5752123,17.9157831 44.6502873,18.7204302 C45.4092539,18.8252019 46.1690586,18.9299737 46.9292824,19.0347454 C48.6290993,19.2694341 50.3301734,19.499932 52.0312476,19.7304298 C52.037953,19.7220481 52.0450774,19.7136663 52.0522019,19.7094755 C52.616293,19.1227537 53.256658,18.628231 53.9401889,18.1546627 C56.3805325,16.4531695 59.0174279,15.0198919 61.7481988,13.7626309 C61.8693149,13.8548301 61.9891738,13.9428384 62.1073563,14.0350375 C59.1004071,15.4096429 56.2120595,16.9728374 53.5160728,18.9467371 C53.1619443,19.2023802 52.8384091,19.4957411 52.5303802,19.7974837 C54.6987363,20.0908446 56.8670925,20.3758238 59.0333532,20.6566121 C60.0580209,20.174662 61.1258546,19.789102 62.1882401,19.4077328 C63.5976297,18.9006376 65.0070193,18.401924 66.446164,17.9744553 C66.5467449,18.0876088 66.6452303,18.1923805 66.7412013,18.3013432 C65.0837122,18.7832932 63.4677127,19.3658241 61.8521323,19.9483551 C61.1556097,20.1998073 60.4624398,20.4638321 59.7860334,20.7530021 C63.0368913,21.1720891 66.2831392,21.5744126 69.5184908,21.9474001 C69.6618186,22.1820888 69.7309679,22.3078149 69.7309679,22.3078149 C69.7309679,22.3078149 69.7012128,22.3245784 69.6442169,22.3622962 C66.5358486,22.0060722 63.4471775,21.6121305 60.3555727,21.2181887 C60.1820706,21.1930435 60.0081495,21.1720891 59.8346475,21.1511348 C61.5667341,22.3622962 63.3302522,23.5525033 65.0648533,24.7469012 C64.9269736,24.8097643 64.7869986,24.8726273 64.6453472,24.9396812 C62.8319577,23.690802 61.0110247,22.4544953 59.2324195,21.2139978 C59.1645274,21.1678982 59.0945399,21.1259895 59.0245523,21.07989 C58.9914445,21.0589356 58.9717474,21.0505539 58.9566602,21.0379813 C56.9714451,20.7823382 54.9853918,20.5183134 53.0005958,20.2542886 C54.1878693,20.9793091 55.3625701,21.7169022 56.5557108,22.433541 C58.4897973,23.6027937 60.4243029,24.7594738 62.3491695,25.9329174 C62.1966218,25.9957805 62.043236,26.0586435 61.8881738,26.1215066 C58.9780337,24.3487686 56.0398147,22.6095575 53.1518862,20.8116743 C52.7835087,20.5853673 52.4121977,20.3632512 52.0408866,20.1411351 L52.0132268,20.1243716 C49.7899703,19.822629 47.567971,19.5208863 45.3484863,19.2107619 C46.2537142,19.7471933 47.1480458,20.2961973 48.0754854,20.8158652 C48.4606263,21.0295995 48.8466055,21.2307613 49.2317464,21.431923 C52.7600399,23.2968602 56.3122213,25.0151169 59.9373238,26.8423362 C59.7625645,26.9051993 59.5869671,26.9638714 59.4105315,27.0225436 C55.6525783,25.1282704 51.8585837,23.2926693 48.1760663,21.3187696 C46.8626476,20.6147034 45.6221501,19.7932929 44.3175323,19.0682724 C44.1356485,19.0431271 43.9533456,19.0179819 43.7714619,18.9928367 C40.5344339,18.5360319 37.3321901,18.016364 34.1450335,17.4505965 C37.7768414,20.7110934 41.8973048,23.4183954 46.2801167,25.6521291 C48.3416056,26.7040375 50.4705676,27.6427924 52.6380855,28.4642029 C52.351011,28.493539 52.0643554,28.527066 51.778119,28.556402 C46.2566478,26.4022949 41.0478155,23.498022 36.4315722,19.885492 C35.3867883,19.0682724 34.3755313,18.2133349 33.4045068,17.3164887 C31.0852793,16.9015926 28.7740145,16.4657421 26.4623306,16.017319 C26.2599116,15.9754103 26.0574926,15.9376925 25.8550736,15.8999746 C26.401563,16.8806382 27.1169445,17.7816753 27.8549567,18.6575671 C28.8494502,19.8393924 29.9340473,20.9457821 31.0400179,22.0354083 C33.9245937,24.8810091 37.0937296,27.4667758 40.8332429,29.235323 C40.520604,29.2311321 40.2088033,29.2227504 39.8974217,29.2143686 C36.8514973,27.6511741 34.123241,25.526403 31.6724202,23.2046611 C29.6381719,21.2810517 27.6651103,19.307152 26.1052685,17.0440822 C25.828252,16.6417586 25.5596172,16.2352442 25.3391775,15.7993938 C22.3121121,15.2042902 19.2888184,14.5966141 16.2751638,13.9009297 C16.6779064,15.1079002 17.3895162,16.210099 18.125852,17.2829617 C20.635345,20.9374004 23.8426178,24.1517977 27.5548904,26.7040375 C26.9233263,26.4358218 26.2946958,26.1382701 25.6685798,25.8197639 C22.6096638,23.4519224 19.9120008,20.6105125 17.7432256,17.4380239 C16.9578565,16.2897256 16.2001472,15.1037093 15.8116536,13.7961579 C15.0656787,13.6201414 14.3205421,13.4441248 13.5758245,13.2597265 C12.7552521,13.0543739 11.9292316,12.8699756 11.1245846,12.6185234 C11.1631406,12.4802247 11.2138501,12.3503078 11.2779704,12.2371543 C12.0989619,12.4886065 12.9350404,12.6939591 13.771119,12.9035026 C14.4915295,13.0795191 15.2131974,13.2513448 15.9361224,13.4189796 C17.6669517,12.0108473 19.3772458,10.5901424 21.2157805,9.33707222 C22.1180748,8.72101433 23.053896,8.1384834 24.0043854,7.58947943 C24.4750201,7.47632594 24.9406257,7.37155419 25.3986878,7.27097331 C23.0367135,8.54080692 20.818486,10.0076114 18.7448435,11.6630051 C17.9707898,12.2832538 17.200927,12.9076935 16.4310642,13.5321331 C17.9204994,13.8674027 19.4141254,14.1859088 20.9090088,14.5002241 C22.4055685,14.8103484 23.9046427,15.116282 25.4058123,15.4138337 C25.4271857,15.3803068 25.4514928,15.3425889 25.4778953,15.309062 C28.145384,11.8222581 31.7600094,9.01018436 35.5678339,6.67586977 C35.8456885,6.50823497 36.1252196,6.3364093 36.4060079,6.17296537 Z" id="Shape" fill="#9ABD76"></path>
        <path d="M51.8454273,53.3549784 C51.4083196,68.4337287 56.3003221,77.9176675 64.6531451,81.3541809 C71.7302673,84.2710264 78.564319,83.1394915 87.9321707,78.6133519 C83.3037739,86.3999884 77.2597012,90.5531405 68.4919821,91.1063354 C63.3736725,91.4290324 52.1337592,89.6562944 48.5141048,75.9898673 C46.1391387,67.0255964 49.6896438,55.7605378 51.8454273,53.3549784 Z" id="Path" fill="#BF1E35"></path>
        <path d="M51.3945827,53.3424058 C51.3945827,53.3424058 56.2495883,56.2718239 57.6432998,57.881118 C62.5289517,63.5262199 62.7159639,73.6052623 59.6328735,80.5285795 C59.1139754,81.6936414 58.572789,84.3087442 57.3981291,84.5895325 C51.2392615,86.0647188 48.5451705,57.6799563 51.3945827,53.3424058 Z" id="Path" fill="#BF1E35"></path>
        <path d="M54.1413094,56.3735874 C54.1343094,56.3735874 54.1293094,56.3735874 54.1223094,56.3735874" id="Path"></path>
        <path d="M30.7599031,52.3826966 C30.7599031,52.3826966 24.2912953,54.0967624 22.7959928,54.6122394 C12.9738508,57.9900806 11.3067227,68.6977535 14.4381408,77.9302401 C18.2857785,89.2749252 26.3917593,94.0064174 34.5362961,93.82621 C42.0706421,93.6543843 48.7441835,92.1624346 53.260265,86.6095319 C62.5870462,75.1391207 62.7710254,57.591948 48.0539472,51.9971365 C42.3874719,49.8388385 36.3786025,50.2327803 30.7599031,52.3826966 Z" id="Path" fill="#CA162E"></path>
        <path d="M53.260265,86.6095319 C41.5404971,90.3855057 28.5995096,87.1291997 22.7130136,80.448953 C16.4359285,73.3286648 15.3756384,65.1941862 17.1073059,58.1660972 C12.4512493,63.0233155 12.054793,70.9021511 14.4381408,77.9302401 C18.2857785,89.2749252 26.3917593,94.0064174 34.5362961,93.82621 C42.0706421,93.6543843 48.9084656,92.2881607 53.260265,86.6095319 Z" id="Path" fill="#BF1E35"></path>
        <path d="M20.4729936,61.8652842 C19.8896245,59.3924413 24.3537392,57.4759033 25.7530707,56.7940906 C28.9175966,55.254076 39.064112,52.5980595 40.5258875,57.0756352 C40.8909122,58.191637 40.5753397,59.3381677 40.0313648,60.3761511 C38.0029837,64.2533246 34.0891302,61.427703 30.1819821,61.4751924 C28.6812316,61.495545 21.1238357,64.6264559 20.4729936,61.8652842 Z" id="Path" fill="#FDD6DB"></path>
        <path d="M60.773811,62.419886 C60.3149683,60.239292 63.8261702,58.5492568 64.9267995,57.9480231 C67.4158237,56.5900126 77.2516061,54.373524 76.5462013,58.1962938 C76.2821689,59.6290846 75.9017777,62.1297384 74.7540115,62.8476294 C72.868537,64.0261672 70.6336563,62.6651654 67.5605306,62.7070424 C66.3801312,62.7219985 61.285724,64.8547331 60.773811,62.419886 Z" id="Path" fill="#FDD6DB" transform="translate(68.657508, 59.824943) rotate(152.605094) translate(-68.657508, -59.824943) "></path>
    </g>
</svg>