<?xml version="1.0" encoding="UTF-8"?>
<svg width="100px" height="100px" viewBox="0 0 100 100" version="1.1" xmlns="http://www.w3.org/2000/svg" xmlns:xlink="http://www.w3.org/1999/xlink">
    <!-- Generator: Sketch 52.6 (67491) - http://www.bohemiancoding.com/sketch -->
    <title>Fire (1F525)</title>
    <desc>Created with Sketch.</desc>
    <g id="Fire-(1F525)" stroke="none" stroke-width="1" fill="none" fill-rule="evenodd">
        <path d="M22.5453296,43.6917793 C18.464685,48.489233 11.5368616,58.393774 17.0410956,69.6032858 C22.5453296,80.8127976 24.9237103,82.4029614 24.9237103,83.5634217 C24.9237103,84.337062 22.8911431,83.6696503 18.8260088,81.5611868 C25.0803024,90.5013683 35.1247885,94.9714591 48.9594671,94.9714591 C59.4425564,94.9714591 68.7026258,91.4787585 76.7396752,84.4933573 C73.53051,85.1133144 71.9259274,85.1133144 71.9259274,84.4933573 C71.9259274,83.5634217 80.6767942,76.0488367 81.7625626,71.4938501 C82.8483311,66.9388635 84.335544,62.2134323 82.450753,56.0872202 C81.1942257,52.0030788 79.7312842,47.8712652 78.0619286,43.6917793 C77.8058977,48.6514359 76.1090489,50.7825384 72.971382,50.0850866 C68.2648817,49.0389091 72.1137216,40.222806 70.3313859,29.8250288 C68.5490502,19.4272515 47.1126941,6 46.4489899,6 C45.7852857,6 47.1126941,10.2232399 47.1126941,16.2221082 C47.1126941,22.2209766 45.4192819,26.3971973 43.6066607,26.3971973 C41.7940395,26.3971973 40.2907173,26.3971973 39.6231469,26.3971973 C38.9555765,26.3971973 38.0289681,30.9776526 36.7569758,33.8386413 C35.4849836,36.69963 32.8578749,40.3429662 32.8578749,43.6917793 C32.8578749,47.0405924 34.5628858,53.8427057 29.5863933,54.8542719 C21.1239344,56.5744266 24.7373338,41.114726 22.5453296,43.6917793 Z" id="Path-24" fill="#FF5D1F"></path>
        <path d="M18.6248501,42.6251231 C18.380681,39.1324981 18.786636,36.1840014 19.8427151,33.779633 C21.2810807,30.5049152 23.039145,28.031182 25.116908,26.3584334 C25.6912444,31.0059495 25.4704393,34.3242871 24.4544925,36.3134463 C23.2097689,38.7505361 21.2665548,40.8544283 18.6248501,42.6251231 Z" id="Path-25" fill="#FF5D1F"></path>
        <path d="M56.0134286,94.4147804 C53.7270845,94.7858995 51.375764,94.9714591 48.9594671,94.9714591 C46.4758271,94.9714591 44.114339,94.8273951 41.8750029,94.5392671 C41.4339867,93.709084 40.8152561,92.8383421 40.018811,91.9270415 C37.3917024,88.9210769 28.0934002,85.4945515 24.4765346,75.0471428 C22.0652909,68.0822037 21.6743713,63.252503 23.3037758,60.5580407 C27.1863378,66.701885 30.9428175,67.9026164 34.5732149,64.1602351 C40.018811,58.5466631 37.2892471,50.8289812 39.232676,44.1731499 C41.1761049,37.5173186 48.4446322,33.6036219 49.7353113,30.667533 C50.595764,28.7101405 51.0259904,25.4320739 51.0259904,20.8333333 C57.6909549,26.6489138 61.0234372,32.1828144 61.0234372,37.435035 C61.0234372,45.3133659 59.6850745,57.6258701 62.6678771,59.0919554 C65.6506796,60.5580407 69.649014,60.1662139 70.7186732,59.0919554 C71.7883323,58.0176969 72.8579915,61.4997311 71.7883323,64.9001347 C70.7186732,68.3005383 68.7771774,70.8702691 70.7186732,72.2077046 C72.0130037,73.0993283 73.3481445,73.0993283 74.7240957,72.2077046 C73.6986834,77.8704726 70.9216507,82.3177068 66.3929973,85.5494072 C61.1575319,89.2854971 57.4420089,92.4571754 56.0134286,94.4147804 Z" id="Combined-Shape" fill="#FF893D"></path>
        <path d="M51.8975594,94.7981859 C50.5899351,94.9137014 49.2620862,94.9714591 47.9140125,94.9714591 C46.9338157,94.9714591 45.9726449,94.94902 45.0305002,94.9041419 C44.69424,94.0301079 44.1663285,93.0928931 43.4467658,92.0924975 C41.5716404,89.4855431 36.4894707,83.7400561 35.7213781,81.735862 C35.2093163,80.3997326 34.2264327,77.807363 32.7727273,73.958753 C34.8123826,75.9144041 36.3797125,76.1767104 37.4747169,74.7456719 C39.1172237,72.599114 39.788016,64.8474738 44.5048262,57.0488143 C47.6493664,51.849708 50.3325355,48.9604207 52.5543336,48.3809524 C50.6641728,55.0737895 50.6641728,59.9389723 52.5543336,62.9765008 C54.4444943,66.0140292 56.9180274,67.5327935 59.9749329,67.5327935 C58.969711,68.9509888 58.969711,70.143013 59.9749329,71.1088661 C61.4827656,72.5576457 64.7587579,75.9877628 62.3668454,79.8230942 C59.9749329,83.6584255 53.4384133,88.9363326 52.5543336,92.0924975 C52.2638013,93.1296976 52.0448766,94.0315937 51.8975594,94.7981859 Z" id="Combined-Shape" fill="#FFD44A"></path>
        <path d="M50.4894548,94.8998142 C49.6393365,94.9475775 48.7808558,94.9714591 47.9140125,94.9714591 C47.6744917,94.9714591 47.4361069,94.9701192 47.1988582,94.9674395 C46.6406244,93.1036338 45.992764,91.2232463 45.255277,89.3262769 C44.7060417,87.9135298 43.1974597,86.5885028 41.7389336,84.2410181 C41.1423319,83.2807928 40.2445055,81.479478 39.0454545,78.8370734 C42.2892282,79.4779279 44.359169,78.4502533 45.255277,75.7540495 C45.7395728,74.2969036 46.3639436,71.4980331 46.4802301,69.2582141 C46.5461515,67.9884876 47.0333341,65.9738448 47.9417779,63.2142857 C48.4026461,67.2705639 49.2450197,70.5884661 50.4688988,73.1679926 C52.3047175,77.0372823 52.8704769,77.1992374 54.8300152,76.5233361 C56.136374,76.0727353 56.7895534,75.4997974 56.7895534,74.8045225 C57.0760846,77.1620138 56.094275,80.0073294 53.8441245,83.3404694 C51.7695757,86.4134913 50.6513525,90.2666062 50.4894548,94.8998142 Z" id="Combined-Shape" fill="#FEFFE3"></path>
    </g>
</svg>