<?xml version="1.0" encoding="UTF-8"?>
<svg width="100px" height="100px" viewBox="0 0 100 100" version="1.1" xmlns="http://www.w3.org/2000/svg" xmlns:xlink="http://www.w3.org/1999/xlink">
    <!-- Generator: Sketch 52.6 (67491) - http://www.bohemiancoding.com/sketch -->
    <title>Flexed Biceps (1F4AA)</title>
    <desc>Created with Sketch.</desc>
    <g id="Flexed-Biceps-(1F4AA)" stroke="none" stroke-width="1" fill="none" fill-rule="evenodd">
        <path d="M87.9877476,63.3783784 C91.4297394,67.4872777 93.3554886,71.9287308 93.4664294,75.3237753 C93.7535769,84.1111587 75.3588394,94.5931785 54.4803008,94.5931785 C40.5563409,94.5931785 41.2109655,92.7025432 32.1139624,92.5409195 C23.0169593,92.3792958 15.7488072,93.954909 14.1803078,92.0766888 C13.0737046,90.7515722 13,89.1834397 13,87.9492901 C15.5091713,88.904598 22.8220438,89.995754 30.8654035,90.1386579 C39.9624066,90.3002816 39.6766006,92.3792958 53.6005605,92.3792958 C74.479099,92.3792958 92.5446217,82.8949425 92.2574741,74.1075591 C92.1602785,71.133147 90.6701117,67.2162095 87.9877476,63.3783784 Z" id="Combined-Shape" fill="#CE9607"></path>
        <path d="M60.8949399,49.9595177 C80.3208632,48.8564361 92.7659231,64.6540056 93.0530707,73.441389 C93.3402183,82.2287724 74.9454807,92.7107922 54.0669422,92.7107922 C40.1429823,92.7107922 40.7976068,90.8201569 31.7006037,90.6585332 C22.6036006,90.4969095 15.6041536,92.3658342 13.9639954,90.4969095 C12.3238372,88.6279849 13.2734025,82.5169061 13.2734025,76.4187627 C13.2734025,70.3206193 14.5310969,58.2885652 17.7862354,49.9595177 C21.0413739,41.6304701 23.8810776,33.5396365 24.4397865,28.4303982 C24.9984953,23.3211598 25.5458142,16.763339 26.0403794,15.7797262 C26.5349447,14.7961134 33.2076789,5.44304708 34.9467501,5.07818763 C36.6858214,4.71332819 40.4253341,5.65593201 44.9561512,7.26915352 C49.4869683,8.88237502 54.0669422,10.7989425 54.0669422,12.1443994 C54.0669422,13.0413706 53.4416918,14.2531462 52.1911911,15.7797262 C53.8665184,16.9826567 54.7387516,18.2557448 54.8078908,19.5989904 C54.9115997,21.6138589 52.3134836,23.6353611 51.1660922,24.7365732 C50.0187009,25.8377854 49.1182924,28.9315522 46.3133581,30.3656609 C43.5084238,31.7997696 38.6251166,33.0933622 38.2882128,33.9798802 C37.9513089,34.8663982 37.7205118,48.6369776 37.3080744,54.4958362 C36.8956369,60.3546949 36.4150507,71.1942984 36.237116,72.4633019 C36.651177,71.6443422 36.8664519,71.2004446 38.5168188,67.5225007 C40.1671856,63.8445569 47.1817284,50.7382086 60.8949399,49.9595177 Z" id="Path-4" fill="#FFCA39"></path>
        <path d="M53.575424,17.1621622 C55.2507512,18.3650927 55.2596499,20.1947895 55.2596499,20.9476725 C55.2596499,22.9822845 53.0011883,24.5363996 51.8537969,25.6376117 C50.7064055,26.7388239 50.0488188,30.1885641 47.2438846,31.6226728 C45.7690791,32.3767123 43.7298072,32.9191623 42.0688076,33.556763 C40.57075,34.1318158 40.2112408,35.2475161 40.0514775,35.6679121 C39.7145737,36.5544301 39.4653416,50.8362109 39.0529042,56.6950695 C38.875147,59.22019 38.9893941,61.6285187 39.0529042,65.8318043 C39.0600134,66.3023081 39.0866549,66.6904296 39.0529042,67.0721043 C38.3170173,68.3197693 36.6757036,73.1892858 36.2363635,72.7401917 C36.4142983,71.4711882 36.7682986,61.3114745 37.180736,55.4526158 C37.5931735,49.5937572 37.905482,37.4407993 38.1018164,36.2559096 C38.1306885,36.0816647 38.1540177,34.4762912 37.7381381,33.8907218 C36.7376337,32.481985 34.6778153,31.5744604 34.7638048,31.6226728 C36.6123194,32.6590939 43.2793859,31.8090173 45.80193,30.5192892 C48.6068643,29.0851805 49.8623983,25.8538451 51.0097897,24.752633 C52.1571811,23.6514208 54.5321955,22.1785489 54.4284866,20.1636805 C54.3808903,19.2389737 54.5477086,18.181094 53.575424,17.1621622 Z" id="Combined-Shape" fill="#CE9607"></path>
        <path d="M34.5946817,20.7634802 C35.9143721,20.150677 36.7266701,19.5136928 37.0315757,18.8525276 C37.4889341,17.8607798 38.0210108,15.8780883 37.5636523,14.9946236 C37.2587467,14.4056471 36.840986,13.5065383 36.3103702,12.2972973 C37.5933622,14.0955148 39.127685,14.9946236 40.9133387,14.9946236 C42.6989923,14.9946236 44.7209823,14.7308797 46.9793085,14.2033921 C45.487825,14.6846374 44.5032362,15.3229495 44.0255421,16.1183283 C43.547848,16.9137072 43.2698115,17.5985074 43.1914327,18.1727288 C43.4071293,16.8031285 42.8646127,16.1183283 41.5638829,16.1183283 C39.6127881,16.1183283 39.2376389,16.079752 38.7861276,16.9947961 C38.3346163,17.9098401 38.2544355,18.1727288 38.2544355,18.8525276 C38.2544355,19.5323264 38.3641059,20.7634802 41.4094058,20.7634802 C44.4547056,20.7634802 46.2268102,19.5005294 48.812628,18.1727288 C51.3984458,16.8449283 52.0316458,16.1681238 52.5815295,15.1857579 C52.9481187,14.5308473 53.3869103,13.8205092 53.8979043,13.0547434 C53.778118,15.7899319 52.6215231,17.7225267 50.4281196,18.8525276 C47.1380145,20.547529 44.7533895,22.2121886 41.4094058,22.2121886 C39.1800833,22.2121886 36.9085086,21.7292858 34.5946817,20.7634802 Z" id="Path-5" fill="#CE9607"></path>
        <path d="M43.2238806,81.5470017 C44.0969229,81.5470017 57.4839663,81.3674926 64.8765827,80.0187736 C69.8049936,79.1196276 76.4993999,77.2654375 84.9598016,74.4562032 C78.9266626,79.8153102 72.2322563,82.7377531 64.8765827,83.2235317 C53.8430724,83.9521996 44.9039793,82.4619533 43.2238806,81.5470017 Z" id="Path-6" fill="#CD9302"></path>
    </g>
</svg>