<?xml version="1.0" encoding="UTF-8"?>
<svg width="100px" height="100px" viewBox="0 0 100 100" version="1.1" xmlns="http://www.w3.org/2000/svg" xmlns:xlink="http://www.w3.org/1999/xlink">
    <!-- Generator: Sketch 52.6 (67491) - http://www.bohemiancoding.com/sketch -->
    <title>Honeybee (1F41D)</title>
    <desc>Created with Sketch.</desc>
    <g id="Honeybee-(1F41D)" stroke="none" stroke-width="1" fill="none" fill-rule="evenodd">
        <path d="M30.3787524,32.8504175 C34.0055605,27.2201442 39.6858215,21.4120368 47.5561928,21.1750445 C48.8688204,21.1354859 53.3910922,20.4696421 54.1714763,22.0410191 C55.2377614,24.1935486 52.2960371,27.294946 50.8773204,28.6343656 C46.1338799,33.1147412 42.4908887,32.5062573 36.3395202,33.0260938 C34.6169213,33.1715617 30.3787524,32.8504175 30.3787524,32.8504175 Z" id="Path" fill="#A7CCE2"></path>
        <path d="M23.5566851,53.2090558 C22.7439349,65.0451448 25.5795701,67.5857624 28.9222752,70.3866041 C32.1175345,73.0631237 36.5750739,73.0054759 38.6968555,74.1128481 C40.5255436,75.0670025 41.4623641,76.7169934 44.592891,78.0585707 C50.3396825,80.5218153 56.0181455,80.7311165 60.3983658,81.5791099 C65.240703,82.5168295 70.5469551,83.3002704 75.4072735,83.8652397 C79.7497333,84.3699719 81.8751111,84.7758076 83.9483435,82.8514596 C86.8145467,80.1891631 87.3162222,75.2637528 87.8718413,70.2331705 C88.6234555,63.4383088 88.9219434,58.028431 85.4479755,48.8322339 C83.1427857,42.7260881 75.250837,32.8651621 62.2935843,29.9025796 C40.9840642,25.0298542 25.2217443,29.0092736 23.5566851,53.2090558 Z" id="Path" fill="#D6B207"></path>
        <path d="M23.5561688,51.482425 C22.7467362,62.505197 25.5707964,64.8712362 28.8998566,67.479618 C32.0820728,69.9722205 36.5214166,69.9185341 38.634537,70.9498132 C40.4557604,71.8384029 41.3887568,73.3750146 44.5065049,74.6244055 C50.229838,76.9183882 55.8851215,77.1133072 60.2474618,77.9030308 C65.0700325,78.7763149 70.3546245,79.5059217 75.195103,80.0320691 C79.5198369,80.5021187 81.636539,80.8800674 83.7013084,79.087951 C86.5558118,76.6085942 87.8666628,72.7430348 88.4200139,68.058129 C89.16856,61.7301929 88.6546061,55.9706368 85.194819,47.4063564 C82.8990389,41.7197944 75.0393052,32.5364619 62.134944,29.7774532 C40.9124093,25.2395572 25.2144312,28.9455307 23.5561688,51.482425 Z" id="Path" fill="#F9EC05"></path>
        <path d="M51.5426248,28.2098294 C54.9212923,28.4545536 58.5211285,29.0398416 62.2935843,29.9025796 C62.5956685,29.9714476 62.8941564,30.0440916 63.1890481,30.1203319 C63.7662446,33.9537439 63.7140991,39.3162772 63.7105029,41.6673551 C63.6907235,50.8551729 58.4887624,72.0303914 49.3183504,76.6024532 C47.3961601,77.5606713 45.312139,77.4170015 43.2371085,77.3903894 C41.1369044,76.2034503 40.2306519,74.9132813 38.6968555,74.1128481 C38.3192503,73.9160259 37.8697203,73.7560112 37.3644486,73.6109209 C37.8427485,73.4579369 38.3030673,73.3185466 38.6698837,73.1596827 C42.8289353,71.3620122 44.7511256,67.5557159 46.5834099,63.6032323 C48.4120979,59.6607643 52.5136096,50.690555 52.7203934,40.741629 C52.7977126,37.0835516 51.8608921,31.9028083 51.5426248,28.2098294 Z" id="Path" fill="#262102"></path>
        <path d="M74.171965,35.2019989 C77.4301585,37.4890277 80.0410287,40.1583908 81.9847964,42.7508123 C84.3942772,48.3572066 84.5147513,53.2383652 84.3475261,55.7773825 C83.7002029,65.624499 80.9346943,78.1608838 70.7051897,82.1156689 C69.8313033,82.4533558 68.2957089,82.6063758 66.5317531,82.6513288 C64.4513283,82.3229921 62.3852884,81.9640874 60.3983658,81.5791099 C59.7528407,81.4541406 59.0785457,81.3430167 58.3808752,81.236568 C60.1430328,80.4734459 61.1661631,79.6790365 63.4515736,77.9675859 C70.0165097,73.0478396 74.5261947,64.7001395 75.8118505,56.7224924 C76.7145067,51.1164757 77.4499378,46.7456056 76.3728639,41.1178137 C76.1247233,39.8228975 75.0674288,37.2666002 74.171965,35.2019989 Z" id="Path" fill="#2D2102"></path>
        <path d="M77.4852976,87.5932534 C77.3949109,88.2777473 76.7901251,88.3940827 76.7652101,89.7846507 C76.7310458,91.8634572 77.572566,92.369628 77.3693784,92.5548344 C77.2632893,92.6526521 76.3318632,92.0801307 75.8733426,90.8189293 C75.4626993,89.6909851 75.4423999,87.9904857 76.0244651,87.0431936 C75.8782672,86.9499036 75.7652825,86.8487267 75.7025212,86.7398941 C75.2278175,85.9188725 77.3262235,83.1578593 77.7847441,82.4368131 C78.154873,81.8559198 78.5527523,80.8046162 79.1721811,80.2245251 C78.232783,78.7298918 81.3781128,73.4746281 82.1308002,71.7135986 C82.2386582,71.4606716 82.3595124,70.7196054 82.5389727,69.9934421 C81.9833449,70.2272789 81.3349048,70.4185962 80.9080786,70.638251 C80.0809434,71.0630928 78.187523,72.8252504 76.6267548,74.0112364 C72.3346424,77.2742308 69.930556,79.6542224 64.2251212,77.2483379 C63.487892,76.9374429 60.9831108,75.8071447 60.5138015,74.9769527 C60.0462903,74.1487206 60.745759,72.921288 61.4110634,72.2673657 C64.2466986,69.4820958 66.2210344,73.4226398 69.4198899,72.872451 C71.9282673,72.4408303 73.8091008,70.9945305 77.4772656,69.4492441 C79.572845,68.5665389 82.4827613,67.7572701 83.2903135,68.3676037 C83.4522856,68.2716055 83.6377459,68.2918241 83.851601,68.482377 C84.6032152,69.152896 84.4126144,70.5139649 84.3496802,71.3921308 C84.256178,72.7255986 84.1680701,74.052701 84.1303096,75.3903405 C84.0925491,76.7254446 84.2220137,78.1391265 83.6897702,79.4003279 C83.2007191,80.5624001 82.0359998,80.9020351 80.8253907,80.800791 C80.8535188,81.1621865 80.8206493,81.5327374 80.8037876,81.7386031 C80.7156797,82.7745001 80.4189899,83.7614881 80.196023,84.7723912 C79.9802486,85.7507483 80.1079152,87.8094159 78.6208699,87.8282961 C78.6208699,87.8282961 78.0948539,87.7479441 77.4852976,87.5932534 Z" id="Path" fill="#523F0D"></path>
        <path d="M63.4727844,91.1677254 C62.1750816,91.8771225 59.6375804,91.2529735 58.8437496,88.819764 C58.5659882,87.9689664 58.2071298,86.8899114 58.4745597,86.3421491 C54.4442627,87.1666584 55.1125183,82.2717841 54.7810389,81.0522607 C54.5544758,80.2134378 53.673397,79.7721791 53.2274633,79.0408837 C52.6592573,78.1067604 52.5513701,77.0325635 51.8501033,76.1534626 C51.1722121,75.3034373 50.212016,74.7569887 49.5197398,73.9319213 C47.9068262,72.0057752 49.3633034,68.8727309 51.8357184,68.6087129 C59.7456483,67.764136 54.0168379,75.7692044 55.8850846,79.3251665 C57.0340833,81.5127593 59.3536581,81.6024855 60.0998779,83.4338707 C60.4330639,84.251615 60.4692491,84.8920689 60.1935984,85.3728616 C60.9499746,85.6559854 61.704971,86.557667 62.3444728,87.0226093 C63.0823077,87.559248 63.3585965,87.7735388 63.8121573,88.5313074 C64.3004383,89.3466986 64.3496764,90.0109406 64.123611,90.4979361 C64.5070717,90.6471974 64.9721319,90.8830573 65.4097263,91.0255333 C65.9060074,91.1868247 66.9111565,91.0591582 66.814058,91.7381283 C66.7493257,92.1844217 66.125378,92.3748426 65.7495709,92.3705271 C65.0269435,92.362094 63.90105,91.6001531 63.4727844,91.1677254 Z" id="Path" fill="#523F0D"></path>
        <path d="M25.073128,82.139241 C24.5878267,81.246231 24.8329909,79.9619229 25.687585,79.0852973 C26.6108776,78.1377579 28.5746543,77.5299152 29.6834869,77.4990158 C29.6631321,77.3486849 29.6597612,77.1958807 29.6758152,77.0437118 C30.0696034,73.2832855 35.321912,76.0581622 36.2803099,74.0420562 C36.5949809,73.3809234 36.5464317,69.1450202 36.3504366,68.3914641 C36.1292678,67.545035 35.5053202,66.8765839 35.5035221,65.9635345 C35.4963296,63.3968082 38.4740163,63.3509381 40.1858266,63.9856205 C41.2215437,64.3701125 42.1511717,65.0566887 42.829063,65.9283274 C44.5642488,68.1559103 41.6423038,68.973965 40.6245678,70.4868493 C39.7344984,71.8097082 39.173485,73.3233656 38.319378,74.665806 C37.9417728,75.262656 37.3915481,75.7080683 36.9617974,76.2629681 C35.6653529,77.936838 34.0901998,80.0854116 31.0639638,79.2149417 C30.9968754,79.1956483 30.9308562,79.1714516 30.8662298,79.1427637 C30.766776,80.9875722 29.1675185,83.5570996 26.5596732,83.1251335 C26.2059305,83.0665371 25.908872,82.9488266 25.6662023,82.7871529 C25.444001,83.4397089 25.0702105,84.2373258 24.8262855,84.4917047 C24.249089,85.0946143 23.5532166,84.5026732 23.544226,83.9643161 C23.5352665,83.4604121 24.4519423,82.6626917 25.073128,82.139241 Z" id="Path" fill="#523F0D"></path>
        <path d="M19.4827095,76.6120541 C19.006528,76.2218835 18.6739578,75.5896099 18.6226439,75.0042302 C18.5669021,74.3642613 18.7718878,73.7003414 19.0380096,73.1244755 C19.2851853,72.5900283 19.6883055,72.0987095 20.1139927,71.6728624 C19.5241318,70.5357421 19.9931938,69.1255584 21.1490025,68.2591224 C21.7082178,67.8391535 22.3573391,67.554673 22.8680052,67.0674544 C23.5315115,66.4360805 23.9378866,64.8135109 24.3442617,64.6798387 C24.903477,64.4962506 25.3242371,65.9136367 25.4051525,66.6477911 C25.4051525,66.6486362 25.4105469,66.693805 25.4105469,66.6938949 C24.6912989,67.0976088 23.659178,67.1429934 23.4056431,68.0849385 C23.0550097,69.3812032 24.2777313,70.4544112 23.2761784,72.135024 C23.0442209,72.5220873 22.7061744,72.8371539 22.2638369,72.9625908 C22.109182,73.0065953 21.9514224,73.0104243 21.7963027,72.9862206 C21.8177406,74.4580476 21.9014922,76.4313448 21.0680871,76.8425022 C20.6316187,77.057409 20.2029622,77.0228842 19.8291851,76.8377502 C19.8424046,76.997047 19.8569128,77.1431462 19.8723373,77.2548111 C19.9406658,77.7406631 20.9440168,79.2485666 20.3578297,79.7216519 C20.1816139,79.864063 19.8651448,79.9730291 19.6727459,79.8212678 C19.0025075,79.2956947 19.2139262,77.7647387 19.4827095,76.6120541 Z" id="Path" fill="#523F0D"></path>
        <path d="M81.6755198,84.0130451 C81.7276653,85.6063593 83.8170807,86.7377364 85.5109097,87.9446345 C86.6419272,88.7509115 87.6380857,89.735562 88.6054743,90.7268656 C88.9363283,91.0647323 91.4680813,93.8201714 91.9068226,93.3415119 C92.2484654,92.9682222 91.1875746,89.6449368 91.0311381,88.6043647 C90.7218615,86.56206 89.9181019,82.5731106 89.3247223,78.2439569 C88.7457276,74.022097 88.1199819,72.8130771 87.8017146,72.5199476 C87.7100105,72.4343391 87.4384944,72.4439051 87.3270109,72.4533812 C84.9966474,72.6495561 85.5252947,76.8166093 85.199835,78.3843901 C84.8294223,80.172081 81.6233743,82.419731 81.6755198,84.0130451 Z" id="Path" fill="#332806"></path>
        <path d="M30.7132027,57.5073178 C17.0349039,72.9324543 0.179327016,51.9915128 12.0487171,35.8750352 C17.4772414,28.5040019 24.9502281,26.7587466 32.3764637,32.0684151 C34.0648984,33.2753133 35.436864,33.9332454 35.9025771,36.0537683 C37.0066227,41.0762591 36.2693935,45.8630164 35.8360466,47.8052377 C35.0466719,51.3433085 30.7132027,57.5073178 30.7132027,57.5073178 Z" id="Path" fill="#523F0D"></path>
        <path d="M30.1688629,55.2931129 C17.7011893,69.3095642 2.33744896,50.2810332 13.156315,35.6363768 C18.1043769,28.9384957 24.9159519,27.3526241 31.6849137,32.1773925 C33.2239101,33.2740719 34.4744471,33.871919 34.8989413,35.7987873 C35.9052712,40.3626041 35.233292,44.7122156 34.8382993,46.4770655 C34.1187898,49.6920255 30.1688629,55.2931129 30.1688629,55.2931129 Z" id="Path" fill="#694D08"></path>
        <path d="M37.849941,35.2998166 C38.6572969,32.5711695 46.9789963,22.6088654 52.4452811,17.556328 C58.3341241,12.1137784 63.6277893,9.41641862 71.3812828,7.52155976 C74.7779315,6.69172738 83.9645265,6.27636166 86.8235373,6.9092999 C90.1105007,7.63699906 92.198118,15.2097814 91.7216162,20.1364504 C89.6609707,41.4442983 73.4401302,41.3830723 56.5036379,36.7884801 C53.5115662,35.9766289 48.2376803,35.1158689 45.0747872,35.2255542 C43.2389067,35.2890279 37.0317964,38.0595712 37.849941,35.2998166 Z" id="Path" fill="#BED9EA"></path>
        <path d="M30.3787524,32.8504175 C34.0055605,27.2201442 39.6858215,21.4120368 47.5561928,21.1750445 C48.8688204,21.1354859 53.3910922,20.4696421 54.1714763,22.0410191 C55.2377614,24.1935486 52.2960371,27.294946 50.8773204,28.6343656 C46.1338799,33.1147412 42.4908887,32.5062573 36.3395202,33.0260938 C34.6169213,33.1715617 30.3787524,32.8504175 30.3787524,32.8504175 Z" id="Path"></path>
        <path d="M19.7392764,29.6104777 C20.0449568,29.0588426 23.9037223,25.2793617 25.7324103,28.132512 C27.0018831,30.1117445 26.0848419,31.3729964 23.8947317,31.4415791 C22.5407473,31.4841412 19.433596,30.1619269 19.7392764,29.6104777 Z" id="Path" fill="#694D08"></path>
        <path d="M22.4274658,27.6144719 C23.1772818,25.8053834 24.3136937,22.4972022 24.7128763,19.338265 C25.1695988,15.703725 25.2271386,12.752111 24.7110782,12.158192 C24.2651444,11.645548 23.2006574,10.8448451 22.6270571,10.504461 C20.3991864,9.18338226 18.4392356,8.70795934 15.5190887,8.89694175 C12.2555009,9.10804104 11.7142668,9.43296132 11.7034781,8.51160463 C11.6908913,7.47301052 16.2455292,7.67529902 17.0241152,7.72043183 C19.8867222,7.88675793 22.1685365,8.73960625 24.4035997,10.455732 C24.9376413,10.8658831 25.5975513,11.3431042 26.0003302,11.8902721 C26.5955079,12.6970886 26.5056019,16.390427 25.9787528,19.9521431 C25.6047438,22.4745459 24.7164725,25.3732951 23.973849,27.8048928 L22.4274658,27.6144719 Z" id="Path" fill="#694D08"></path>
        <path d="M19.8022106,29.6454484 C20.1995951,28.5390652 21.3827581,26.1358778 21.7783445,21.978984 C22.0085038,19.5779544 22.4778131,16.3211994 21.5194152,15.4838149 C19.3508825,13.587158 16.2653085,13.0817064 13.4962037,13.6578241 C12.9297959,13.7761404 12.3669844,13.9370721 11.8239521,14.144755 C11.2899105,14.3495608 8.97213382,15.7175705 9.06383794,14.2405948 C9.15374394,12.7506725 13.5321661,12.0157809 16.9863547,12.6158135 C20.587989,13.2413795 22.1091985,14.6403168 22.4436489,14.9578648 C23.4164318,15.8828178 23.0945683,18.5974395 23.0352303,21.0346114 C22.9884792,22.9764012 22.476015,26.8303118 22.3015974,27.897496 L19.8022106,29.6454484 Z" id="Path" fill="#604709"></path>
        <ellipse id="Oval" fill="#1B1B1B" transform="translate(21.055982, 44.881529) rotate(5.273830) translate(-21.055982, -44.881529) " cx="21.0559817" cy="44.8815292" rx="5.99380056" ry="8.9334397"></ellipse>
        <ellipse id="Oval" fill="#FEFEFE" transform="translate(21.569001, 39.120474) rotate(4.420515) translate(-21.569001, -39.120474) " cx="21.5690012" cy="39.1204738" rx="2.23928825" ry="1.56229622"></ellipse>
        <path d="M62.2138323,10.7031533 C63.2693287,12.2209464 64.7545758,13.4296426 66.3477102,14.3511791 C67.3582536,14.9362874 68.4263369,15.4207009 69.5124014,15.8268962 C70.015875,15.7220658 70.5229448,15.6407908 71.0318128,15.5845097 C71.4813428,15.5347017 71.9362671,15.5064712 72.3893934,15.5071905 C73.462871,15.5107867 74.5633204,15.6578729 75.4677748,16.2223028 C75.575662,16.2899121 75.679953,16.3639947 75.7788496,16.4441908 C75.8112157,16.4474274 75.8435819,16.4506641 75.8741499,16.4540805 C78.9525314,16.7719881 82.0129316,17.2601777 85.0877168,17.0350531 C86.4327106,16.9365161 87.7866949,16.6998835 89.0058203,16.1352738 C89.6639322,15.829953 90.2770911,15.4208807 90.784161,14.904101 C90.9765598,14.7072069 91.1527756,14.4950287 91.3110101,14.2699041 C91.3703481,14.5507705 91.4242917,14.8334349 91.4728409,15.1168186 C90.8327102,15.8409216 90.0109694,16.4051716 89.1550642,16.7843951 C87.7291551,17.4153554 86.154002,17.6464139 84.5950319,17.7183387 C81.8564952,17.8449263 79.1107659,17.465523 76.4189803,17.1691928 C76.579013,17.4259643 76.699487,17.7133039 76.775008,18.0290538 C76.9296464,18.6713423 76.8900877,19.3406025 76.7552287,19.9974558 C77.88265,19.8361644 79.0280524,19.7599241 80.1626661,19.7496748 C80.2525721,19.7489556 80.3442762,19.7485959 80.4341822,19.7485959 C82.512809,19.7512931 84.5932338,19.9744398 86.5999357,20.4935571 C87.3569442,20.6893723 88.1049622,20.9296012 88.8278064,21.2244928 C89.735857,21.3584528 90.634917,21.5422206 91.5375732,21.7139411 C91.5088033,21.9318733 91.4764372,22.1474678 91.444071,22.3605451 C90.5701847,22.1943988 89.7034908,22.0162051 88.8314026,21.8845827 C88.7756609,21.8896174 88.7199192,21.8777498 88.6641775,21.8597686 C88.552694,21.8437654 88.4412106,21.8284814 88.327929,21.8140964 C86.4039406,21.5679338 84.4493842,21.4397278 82.5110108,21.6571205 C80.9034916,21.8372921 79.3319347,22.2852038 77.8556782,22.9882688 C75.6907417,24.0185915 73.7487721,25.5113907 71.9290746,27.0942758 C71.2385966,27.694668 70.5768884,28.3222119 69.9457483,29.000283 C69.3613593,29.6260287 68.7751722,30.2470994 68.1224546,30.8030781 C68.1961775,30.8086523 68.2699004,30.8145861 68.3436234,30.8208795 C70.6847756,31.0247863 72.9737824,31.6307527 75.2196342,32.2444511 C77.2497117,32.7980922 79.3031648,33.3263799 81.4087633,33.2503194 C83.0054938,33.1925998 84.5716564,32.779212 86.0461148,32.1088728 C87.0458695,31.6535888 87.997075,31.0940139 88.8997312,30.4813944 C88.6677737,30.9145615 88.4250275,31.3290282 88.1696945,31.7253338 C87.0404751,32.4035847 85.8483216,32.9750272 84.5896376,33.3628817 C83.3057799,33.7591874 81.9553918,33.9443937 80.6121961,33.9055543 C79.456005,33.8721093 78.317795,33.6824076 77.1831813,33.4243774 C76.3758254,33.8260774 75.6439906,34.3531064 74.9049632,34.8815739 C73.8188988,35.659081 72.6465245,36.3243854 71.3213101,36.6762774 C69.9853069,37.0306869 68.5593978,37.038239 67.2036153,36.7431675 C66.0114617,36.4838786 64.8678574,36.0077364 63.8051685,35.4271235 C62.2426022,34.5731963 60.8095006,33.4801191 59.4537181,32.3293223 C58.7290757,32.5005034 58.0062315,32.6853501 57.2851854,32.8754114 C54.2859212,33.6660447 51.33161,34.5996287 48.3161628,35.3559179 C47.6184922,35.2910058 46.9441972,35.2462326 46.3184515,35.2268129 C46.3490195,35.1872543 46.3885782,35.1543487 46.4335312,35.1327712 C46.5036578,35.1005849 46.550409,35.0993262 46.5971601,35.0890769 C48.8771762,34.5933352 51.1230281,33.9264125 53.3724762,33.2834048 C56.2944212,32.4492569 59.2631174,31.5949701 62.2713721,31.0959918 C63.8788914,30.8298701 65.5133825,30.6995064 67.1496717,30.7507528 C67.1532679,30.7480556 67.1568642,30.7453584 67.1604604,30.7426613 C67.7664268,30.2720932 68.3346328,29.7571117 68.86328,29.2032907 C69.5609506,28.4700174 70.2316494,27.7288323 71.0228222,27.0216317 C71.229606,26.8385831 71.4363898,26.6567932 71.6431736,26.4768014 C70.9293199,25.733998 70.0122787,25.2008554 68.9765616,24.9778885 C67.6225772,24.6862335 66.2092549,24.8640675 64.8516743,25.117063 C64.621515,25.1866503 64.3913556,25.2535403 64.1593981,25.3180928 C62.6633623,25.7357961 61.1475471,26.0612558 59.6569056,26.5017952 C58.4377803,26.8617789 57.2330399,27.2685136 56.0300976,27.6766868 C54.5916016,28.1654159 53.1567018,28.6676308 51.7218021,29.1791959 C49.7312832,29.8921505 47.7929099,30.8167438 45.9318557,31.790246 C43.6931963,32.9608221 41.5048842,34.2466577 39.3956895,35.6403805 C39.0090937,35.8955337 38.6260941,36.1555419 38.2448927,36.4205848 C38.0075408,36.3310384 37.8493063,36.1764001 37.7953627,35.9376097 C39.8326326,34.5106217 41.9598086,33.2175936 44.13913,32.0133927 C46.1710056,30.8899273 48.2460361,29.8450397 50.4073764,28.9799642 C51.0151409,28.7366786 51.6318961,28.5171281 52.2522475,28.2977575 C54.3956065,27.5394903 56.5371674,26.7880559 58.7128926,26.1071079 C58.7740287,26.0876882 58.8369629,26.0686281 58.898099,26.0495681 C59.5921733,24.1480562 60.5253976,22.3143334 61.7247436,20.6915301 C62.3091326,19.9010765 62.9636483,19.1561154 63.6954832,18.5008805 C61.1565377,18.2680239 58.5294844,18.2831281 55.9527784,18.6030137 C53.9262972,18.8545707 51.9213934,19.294211 49.9902125,19.9544807 C50.326461,19.6101407 50.6591132,19.2755106 50.986371,18.9531077 C53.5882506,18.1917837 56.2962194,17.8010522 59.0149768,17.7093481 C59.4357369,17.6951429 59.856497,17.6884899 60.2790552,17.6884899 C61.6582132,17.6901082 63.0301788,17.7659888 64.4003462,17.9154126 C64.4237218,17.8974314 64.4470973,17.87963 64.4704729,17.8618286 C65.115998,17.3779545 65.8406403,17.0253432 66.585062,16.7225398 C67.1820378,16.479434 67.7933986,16.2697732 68.41375,16.0957152 C66.0348373,15.1063895 63.7799948,13.7186005 62.1616868,11.7234066 C61.9710861,11.489651 61.7912741,11.2474442 61.6222508,10.9976853 C61.8182459,10.8977099 62.0160391,10.7995325 62.2138323,10.7031533 Z M76.2337739,33.1936786 C74.9660993,32.8698372 73.7038191,32.4911531 72.4271539,32.1811573 C69.8162836,31.54732 67.1280942,31.2310306 64.4183274,31.4743163 C63.01939,31.6000049 61.6312414,31.8432905 60.2520834,32.1471728 C62.0412128,33.6369152 63.992173,35.0209282 66.1678982,35.7732616 C67.4373709,36.2123625 68.8003458,36.4115942 70.1255603,36.2450883 C71.1379018,36.1179612 72.1268678,35.7752395 73.0205335,35.299457 C74.0598468,34.7470745 74.9750899,33.9704665 75.9316898,33.3749291 C76.0305864,33.312894 76.1312811,33.2524771 76.2337739,33.1936786 Z M85.5947866,20.9195317 C84.1347132,20.6059396 82.6386774,20.453459 81.1570265,20.4121022 C79.3337328,20.3613952 77.5032466,20.4843867 75.7159154,20.8377172 C74.0130957,21.1739657 72.3911915,21.86804 70.8430102,22.5973575 C69.7137908,23.129601 68.5971583,23.6897154 67.4499577,24.1777251 C67.4661408,24.1775453 67.4823239,24.1775453 67.5003051,24.1775453 C68.7913552,24.1806021 70.0806073,24.4648849 71.1774605,25.2208145 C71.5262958,25.4619424 71.8481592,25.7428088 72.1394547,26.0517258 C73.8171006,24.6331889 75.5774601,23.3464543 77.5895564,22.3911131 C78.9992825,21.7223923 80.5132995,21.2653102 82.0596827,21.0551099 C82.8904142,20.942188 83.7301362,20.8952571 84.5680601,20.8961561 C84.911501,20.8966956 85.2531438,20.9047871 85.5947866,20.9195317 Z M76.0593563,20.1083998 C76.070145,20.0683017 76.0809337,20.0276642 76.0899243,19.986667 C76.2391683,19.3145298 76.3039006,18.6093071 76.070145,17.9423844 C75.8489762,17.3065692 75.3167327,16.8119064 74.6532264,16.5378729 C73.8153025,16.191555 72.878482,16.1325766 71.9632389,16.1683592 C70.4330388,16.2280568 68.9208199,16.5677217 67.4679389,17.0852206 C66.5652827,17.4067245 65.6788095,17.7765977 64.8930311,18.3618858 C63.1884133,19.6304595 61.895565,21.3971124 60.9245802,23.1594498 C60.4516747,24.0153549 60.036309,24.9111783 59.6820793,25.8190491 C61.90995,25.1902465 64.188168,24.7380193 66.2955647,23.9392944 C67.9983843,23.2932299 69.6023074,22.4360661 71.2889439,21.6711459 C72.6213508,21.0669775 73.9807296,20.5320368 75.4138312,20.2326499 C75.6278075,20.1878767 75.8435819,20.1463401 76.0593563,20.1083998 Z M79.7832628,6.64839269 C80.0457883,7.09450626 80.2381872,7.57514374 80.326295,8.06836805 C80.4126048,8.54576891 80.3982198,9.04510684 80.220206,9.5180124 C80.1213094,9.78431397 79.9720654,10.0256217 79.7904553,10.2412163 C82.018326,9.58076678 84.1886568,8.670019 86.333814,7.88298188 C86.828297,7.70155157 87.3245781,7.525156 87.8244554,7.35793084 C88.027643,7.49692552 88.2236381,7.66217274 88.4142388,7.85097534 C86.7851421,8.37710526 85.2009984,9.01058293 83.6474227,9.59874798 C81.9769692,10.2307872 80.2831402,10.8365738 78.5479544,11.2524789 C78.4760296,11.2695611 78.4041048,11.2864634 78.33218,11.3030061 L78.3052082,11.3091197 C78.2962176,11.3101986 78.2854288,11.3118169 78.2764382,11.3132554 C77.418735,11.6863653 76.4765201,11.8697735 75.5414977,11.9728058 C74.3889028,12.0997531 73.2165286,12.1040686 72.0675299,11.9661528 C71.3896386,11.8846979 70.720738,11.7223277 70.060828,11.5371213 C68.3130553,11.0464144 66.6246206,10.3566556 65.0332844,9.47719507 C65.3012043,9.37344355 65.5709223,9.27184977 65.8442366,9.17241373 C67.54346,10.0599658 69.3523687,10.7353396 71.2044323,11.1534025 C72.5512242,11.4576444 73.9591521,11.4718496 75.2987515,11.3414859 C76.1330792,11.2602109 76.9674069,11.1115063 77.7459928,10.8218292 C78.3897198,10.58196 79.0244562,10.2602763 79.4254369,9.6483761 C79.6160376,9.35977784 79.7167324,9.01723598 79.7239248,8.66714201 C79.7329154,8.21941013 79.6106433,7.77365618 79.427235,7.37105712 C79.3175497,7.12849073 79.1844888,6.89797174 79.0298505,6.67878092 C79.2815873,6.66745276 79.5333241,6.65720348 79.7832628,6.64839269 Z" id="Shape" fill="#A7D7E2"></path>
        <path d="M23.7942254,27.8838035 C24.6265573,27.8777423 26.1516584,28.9342219 25.2184378,29.3556861 C24.8266533,29.5325883 24.1977803,29.15172 24.0649435,29.0047009 C23.3200485,28.1774189 23.318367,27.8871865 23.7942254,27.8838035 Z" id="Path" fill="#523F0D" transform="translate(24.488516, 28.642699) rotate(-173.489581) translate(-24.488516, -28.642699) "></path>
        <path d="M19.3376609,29.8670019 C19.5714165,29.7962062 19.8141627,29.6833339 20.0623032,29.6716459 C21.2778324,29.6140409 22.5580938,30.6896675 24.0217635,30.624048 C24.7068472,30.5933253 25.1330016,30.1652119 25.5663486,29.7295848 C25.7245831,29.5702946 25.9871086,29.1795826 26.2658172,29.298132 C26.7189435,29.4903155 26.0698222,30.164878 25.9061932,30.3002914 C25.1887434,30.8932051 24.3454251,31.2692235 23.3654497,31.1498393 C21.8784044,30.9688429 19.3376609,29.8670019 19.3376609,29.8670019 Z" id="Path" fill="#523F0D"></path>
    </g>
</svg>