<?xml version="1.0" encoding="UTF-8"?>
<svg width="100px" height="100px" viewBox="0 0 100 100" version="1.1" xmlns="http://www.w3.org/2000/svg" xmlns:xlink="http://www.w3.org/1999/xlink">
    <!-- Generator: Sketch 52.6 (67491) - http://www.bohemiancoding.com/sketch -->
    <title>Kissing Face With Closed Eyes (1F61A)</title>
    <desc>Created with Sketch.</desc>
    <g id="Kissing-Face-With-Closed-Eyes-(1F61A)" stroke="none" stroke-width="1" fill="none" fill-rule="evenodd">
        <path d="M50.000169,3.4669758 L50.000169,3.44318 C75.8517192,4.2367182 96.557169,24.771459 96.557169,49.9887994 C96.557169,75.2051052 75.8517192,95.7408806 50.000169,96.5333842 L50.000169,96.55718 C24.1486188,95.7636418 3.443169,75.228901 3.443169,50.0115606 C3.443169,24.7952548 24.1486188,4.2594794 50.000169,3.4669758 Z" id="Path" fill="#FFCA39"></path>
        <circle id="Oval" fill="#FFDE5C" cx="50.000169" cy="47.93098" r="42.4186"></circle>
        <path d="M71.0729338,33.9954969 C73.8649897,33.9954969 76.300084,34.4385847 78.2052047,34.8897778 C80.0476832,35.3256609 81.1195622,35.5219885 81.3124606,34.5826783 C81.7459849,32.4780112 78.2946937,31.0631923 74.7350213,30.7191688 C72.2870009,30.4823149 68.833721,30.7038589 66.2365522,31.6314614 C64.1295841,32.3834498 61.2579825,33.4866664 61.2579825,34.6673333 C61.2579825,36.0497312 62.8459146,35.1176258 65.531578,34.5124327 C67.440676,34.0819531 69.1260516,33.9954969 71.0729338,33.9954969 Z" id="Path" fill="#7F4401" transform="translate(71.303706, 33.008418) scale(-1, 1) rotate(-9.527326) translate(-71.303706, -33.008418) "></path>
        <path d="M65.2230658,51.3954778 C70.9748102,51.3954778 73.7525348,53.4298678 73.7525348,51.0755616 C73.7525348,48.7222458 69.9341499,46.1648968 65.2230658,46.1648968 C60.5129682,46.1648968 56.6935969,48.7222458 56.6935969,51.0755616 C56.6935969,53.4298678 59.4723079,51.3954778 65.2230658,51.3954778 Z" id="Path" fill="#7F4401" transform="translate(65.223066, 49.188361) scale(-1, 1) rotate(-7.745652) translate(-65.223066, -49.188361) "></path>
        <ellipse id="Oval" fill="#F28F85" cx="82.5996822" cy="60.098145" rx="9.3589916" ry="9.388995"></ellipse>
        <path d="M56.436941,72.0180727 C56.436941,72.8450946 57.974105,73.5436244 59.677292,74.4325561 C61.380479,75.3203197 63.017489,75.9803019 62.976854,77.3890425 C62.936219,78.7989513 61.255091,80.8384714 57.094067,82.0357841 C52.931882,83.2319287 50.996495,83.3101921 50.858336,82.6724041 C50.721338,82.0357841 54.724466,81.6619889 56.918756,80.4249604 C59.111885,79.1879319 59.05964,78.7790934 59.052674,78.3795998 C59.045708,77.9812743 57.556145,76.5398266 55.667198,75.5971618 C53.778251,74.654497 51.666392,74.0073641 51.781331,72.6546927 C51.895109,71.3020213 53.91641,70.4294431 55.667198,69.398002 C57.417986,68.367729 59.052674,67.5442114 59.052674,66.6120597 C59.052674,65.6787398 58.473335,64.5211428 56.436941,63.7069701 C54.401708,62.8916293 50.684186,62.6685203 50.684186,61.8333217 C50.684186,60.9992911 56.216351,61.5775056 60.019787,63.1357643 C63.822062,64.694023 63.707123,66.9951997 60.846419,68.9365986 C57.986876,70.8779974 56.436941,71.192219 56.436941,72.0180727 Z" id="Path" fill="#7F4401"></path>
        <path d="M28.7791222,33.9954969 C31.5711781,33.9954969 34.0062724,34.4385847 35.9113931,34.8897778 C37.7538715,35.3256609 38.8257505,35.5219885 39.018649,34.5826783 C39.4521733,32.4780112 36.0008821,31.0631923 32.4412097,30.7191688 C29.9931892,30.4823149 26.5399093,30.7038589 23.9427406,31.6314614 C21.8357725,32.3834498 18.9641709,33.4866664 18.9641709,34.6673333 C18.9641709,36.0497312 20.552103,35.1176258 23.2377664,34.5124327 C25.1468644,34.0819531 26.83224,33.9954969 28.7791222,33.9954969 Z" id="Path" fill="#7F4401" transform="translate(29.009894, 33.008418) rotate(-9.527326) translate(-29.009894, -33.008418) "></path>
        <path d="M35.0906342,51.3954778 C40.8423785,51.3954778 43.6201031,53.4298678 43.6201031,51.0755616 C43.6201031,48.7222458 39.8017182,46.1648968 35.0906342,46.1648968 C30.3805366,46.1648968 26.5611652,48.7222458 26.5611652,51.0755616 C26.5611652,53.4298678 29.3398762,51.3954778 35.0906342,51.3954778 Z" id="Path" fill="#7F4401" transform="translate(35.090634, 49.188361) rotate(-7.745652) translate(-35.090634, -49.188361) "></path>
        <ellipse id="Oval" fill="#F28F85" transform="translate(17.713809, 60.098145) scale(-1, 1) translate(-17.713809, -60.098145) " cx="17.7138088" cy="60.098145" rx="9.3589916" ry="9.388995"></ellipse>
    </g>
</svg>