<?xml version="1.0" encoding="UTF-8"?>
<svg width="100px" height="100px" viewBox="0 0 100 100" version="1.1" xmlns="http://www.w3.org/2000/svg" xmlns:xlink="http://www.w3.org/1999/xlink">
    <!-- Generator: Sketch 52.6 (67491) - http://www.bohemiancoding.com/sketch -->
    <title>Raising Hands (1F64C)</title>
    <desc>Created with Sketch.</desc>
    <g id="Raising-Hands-(1F64C)" stroke="none" stroke-width="1" fill="none" fill-rule="evenodd">
        <path d="M13.2142857,59.3791083 C13.7435181,59.9194698 14.1366589,59.2366305 14.1366589,58.3145515 L14.1366589,37.2798888 C14.1366589,35.8978973 15.5700351,34.7775718 16.9428571,34.7775718 C18.3156792,34.7775718 19.4285714,35.8978973 19.4285714,37.2798888 L19.4285714,55.382796 C19.4285714,56.2703341 20.3058467,55.8503854 20.3293323,54.8360906 C20.3291943,54.8272221 20.3290906,47.7239963 20.3290214,33.5264133 C20.3290214,32.1444218 21.7843208,31.0240964 23.1571429,31.0240964 C24.5299649,31.0240964 26.0669968,32.1444218 26.0669968,33.5264133 L26.0669968,53.2058743 C26.2555922,53.8034975 26.8857143,53.8224019 26.9547842,52.8820307 C26.9096335,52.6933783 26.8857143,52.4963964 26.8857143,52.2937905 L26.8857143,37.2798888 C26.8857143,35.8978973 27.9986065,34.7775718 29.3714286,34.7775718 C30.7442507,34.7775718 31.8571429,35.8978973 31.8571429,37.2798888 C31.9984111,45.3936034 32.0690452,50.7022652 32.0690452,53.2058743 C32.0690452,56.9612878 33.3196183,59.6346712 33.9374774,60.2264453 C34.864266,61.1141065 36.507201,61.7007823 38.1390692,60.2264453 C39.7709375,58.7521084 42.146525,56.4246651 44.4043178,56.4363721 C46.6621107,56.4480792 49.178189,58.0102193 49.4728631,59.2366305 C49.7675372,60.4630417 48.8283689,61.1412971 46.8344885,62.2591346 C44.8406081,63.376972 42.2309319,65.0286146 41.0739936,66.8668152 C39.9170553,68.7050158 37.1070532,73.2675676 36.1001718,74.6618432 C35.0932903,76.0561188 32.0690452,77.8683832 32.0690452,79.3436713 L32.0690452,94.9606311 L13.3669062,94.9606311 L13.3669062,81.1425425 C13.3669062,80.1539643 12.9822445,78.9117176 12.4669489,78.1492342 C11.4986954,76.7165085 10.0805897,75.391653 9.43202498,73.4981752 C8.43830008,70.5970061 8.17850264,66.2994964 8.27511484,63.9808778 C8.25416595,63.830181 8.24285714,63.6935284 8.24285714,63.5542169 L8.68122173,49.1886955 C8.68122173,47.806704 9.72842344,45.9511767 11.1012455,45.9511767 C12.4740676,45.9511767 13.2142857,47.1583236 13.2142857,48.5403151 L13.2142857,59.3791083 Z" id="Combined-Shape-Copy" fill="#ECA349"></path>
        <path d="M11.9714286,59.3791083 C12.500661,59.9194698 12.8938017,59.2366305 12.8938017,58.3145515 L12.8938017,37.2798888 C12.8938017,35.8978973 14.3271779,34.7775718 15.7,34.7775718 C17.0728221,34.7775718 18.1857143,35.8978973 18.1857143,37.2798888 L18.1857143,55.382796 C18.1857143,56.2703341 19.0629896,55.8503854 19.0864751,54.8360906 C19.0863371,54.8272221 19.0862335,47.7239963 19.0861642,33.5264133 C19.0861642,32.1444218 20.5414636,31.0240964 21.9142857,31.0240964 C23.2871078,31.0240964 24.8241396,32.1444218 24.8241396,33.5264133 L24.8241396,53.2058743 C25.0127351,53.8034975 25.6428571,53.8224019 25.711927,52.8820307 C25.6667763,52.6933783 25.6428571,52.4963964 25.6428571,52.2937905 L25.6428571,37.2798888 C25.6428571,35.8978973 26.7557493,34.7775718 28.1285714,34.7775718 C29.5013935,34.7775718 30.6142857,35.8978973 30.6142857,37.2798888 C30.7555539,45.3936034 30.826188,50.7022652 30.826188,53.2058743 C30.826188,56.9612878 32.0767612,59.6346712 32.6946203,60.2264453 C33.6214089,61.1141065 35.2643438,61.7007823 36.8962121,60.2264453 C38.5280803,58.7521084 40.9036678,56.4246651 43.1614607,56.4363721 C45.4192536,56.4480792 47.9353318,58.0102193 48.230006,59.2366305 C48.5246801,60.4630417 47.5855118,61.1412971 45.5916314,62.2591346 C43.597751,63.376972 40.9880748,65.0286146 39.8311365,66.8668152 C38.6741982,68.7050158 35.8641961,73.2675676 34.8573146,74.6618432 C33.8504332,76.0561188 30.826188,77.8683832 30.826188,79.3436713 L30.826188,94.9606311 L12.124049,94.9606311 L12.124049,81.1425425 C12.124049,80.1539643 11.7393874,78.9117176 11.2240918,78.1492342 C10.2558382,76.7165085 8.83773256,75.391653 8.18916784,73.4981752 C7.19544294,70.5970061 6.9356455,66.2994964 7.0322577,63.9808778 C7.0113088,63.830181 7,63.6935284 7,63.5542169 L7.43836459,49.1886955 C7.43836459,47.806704 8.4855663,45.9511767 9.85838839,45.9511767 C11.2312105,45.9511767 11.9714286,47.1583236 11.9714286,48.5403151 L11.9714286,59.3791083 Z" id="Combined-Shape" fill="#FFDE5C"></path>
        <path d="M23.0560774,69.1633985 C24.6177767,66.2799322 26.1848169,64.3576214 27.7571981,63.396466 C29.3295793,62.4353106 31.6674827,61.6864758 34.7709083,61.1499616 L32.9998934,60.1532115 C29.7988611,60.6956301 27.5078581,61.6382821 26.1268847,62.9811676 C24.7459112,64.324053 23.7223088,66.3847966 23.0560774,69.1633985 Z" id="Path-8" fill="#ECA349"></path>
        <path d="M8.50364915,81.0581793 C10.1167523,78.2232498 11.7094945,76.3252074 13.2818756,75.364052 C14.8542568,74.4028966 17.2960122,73.6337536 20.6071419,73.0566229 C19.0450568,72.780029 17.4425099,72.8157649 15.7995012,73.1638305 C13.3349882,73.6859289 12.7501979,74.0973793 11.2108807,75.3446884 C10.1846692,76.1762279 9.28225871,78.0807248 8.50364915,81.0581793 Z" id="Path-8" fill="#ECA349" transform="translate(14.555396, 76.965546) scale(1, -1) rotate(5.000000) translate(-14.555396, -76.965546) "></path>
        <path d="M31.4453628,78.0403924 C31.1596263,78.3878491 30.6052875,78.7455721 29.7823463,79.1135612 C28.959405,79.4815503 28.0988703,79.8117586 27.2007419,80.1041859 C28.690676,80.1865706 29.6594625,80.1865706 30.1071015,80.1041859 C30.5547405,80.0218012 31.0439952,79.8536523 31.5748658,79.5997392 L31.4453628,78.0403924 Z" id="Path-9" fill="#ECA349"></path>
        <path d="M56.4454745,59.3791083 C56.9747068,59.9194698 57.3678476,59.2366305 57.3678476,58.3145515 L57.3678476,37.2798888 C57.3678476,35.8978973 58.8012238,34.7775718 60.1740459,34.7775718 C61.546868,34.7775718 62.6597602,35.8978973 62.6597602,37.2798888 L62.6597602,55.382796 C62.6597602,56.2703341 63.5370355,55.8503854 63.560521,54.8360906 C63.560383,54.8272221 63.5602794,47.7239963 63.5602101,33.5264133 C63.5602101,32.1444218 65.0155095,31.0240964 66.3883316,31.0240964 C67.7611537,31.0240964 69.2981855,32.1444218 69.2981855,33.5264133 L69.2981855,53.2058743 C69.486781,53.8034975 70.116903,53.8224019 70.1859729,52.8820307 C70.1408222,52.6933783 70.116903,52.4963964 70.116903,52.2937905 L70.116903,37.2798888 C70.116903,35.8978973 71.2297952,34.7775718 72.6026173,34.7775718 C73.9754394,34.7775718 75.0883316,35.8978973 75.0883316,37.2798888 C75.2295998,45.3936034 75.3002339,50.7022652 75.3002339,53.2058743 C75.3002339,56.9612878 76.5508071,59.6346712 77.1686662,60.2264453 C78.0954548,61.1141065 79.7383897,61.7007823 81.370258,60.2264453 C83.0021262,58.7521084 85.3777137,56.4246651 87.6355066,56.4363721 C89.8932995,56.4480792 92.4093777,58.0102193 92.7040518,59.2366305 C92.998726,60.4630417 92.0595577,61.1412971 90.0656773,62.2591346 C88.0717969,63.376972 85.4621207,65.0286146 84.3051824,66.8668152 C83.1482441,68.7050158 80.338242,73.2675676 79.3313605,74.6618432 C78.324479,76.0561188 75.3002339,77.8683832 75.3002339,79.3436713 L75.3002339,94.9606311 L56.5980949,94.9606311 L56.5980949,81.1425425 C56.5980949,80.1539643 56.2134333,78.9117176 55.6981376,78.1492342 C54.7298841,76.7165085 53.3117784,75.391653 52.6632137,73.4981752 C51.6694888,70.5970061 51.4096914,66.2994964 51.5063036,63.9808778 C51.4853547,63.830181 51.4740459,63.6935284 51.4740459,63.5542169 L51.9124105,49.1886955 C51.9124105,47.806704 52.9596122,45.9511767 54.3324343,45.9511767 C55.7052564,45.9511767 56.4454745,47.1583236 56.4454745,48.5403151 L56.4454745,59.3791083 Z" id="Combined-Shape-Copy" fill="#ECA349" transform="translate(72.115594, 62.992364) scale(-1, 1) translate(-72.115594, -62.992364) "></path>
        <path d="M57.6883316,59.3791083 C58.217564,59.9194698 58.6107047,59.2366305 58.6107047,58.3145515 L58.6107047,37.2798888 C58.6107047,35.8978973 60.0440809,34.7775718 61.416903,34.7775718 C62.7897251,34.7775718 63.9026173,35.8978973 63.9026173,37.2798888 L63.9026173,55.382796 C63.9026173,56.2703341 64.7798926,55.8503854 64.8033782,54.8360906 C64.8032402,54.8272221 64.8031365,47.7239963 64.8030673,33.5264133 C64.8030673,32.1444218 66.2583666,31.0240964 67.6311887,31.0240964 C69.0040108,31.0240964 70.5410427,32.1444218 70.5410427,33.5264133 L70.5410427,53.2058743 C70.7296381,53.8034975 71.3597602,53.8224019 71.4288301,52.8820307 C71.3836793,52.6933783 71.3597602,52.4963964 71.3597602,52.2937905 L71.3597602,37.2798888 C71.3597602,35.8978973 72.4726524,34.7775718 73.8454745,34.7775718 C75.2182965,34.7775718 76.3311887,35.8978973 76.3311887,37.2798888 C76.4724569,45.3936034 76.543091,50.7022652 76.543091,53.2058743 C76.543091,56.9612878 77.7936642,59.6346712 78.4115233,60.2264453 C79.3383119,61.1141065 80.9812469,61.7007823 82.6131151,60.2264453 C84.2449833,58.7521084 86.6205708,56.4246651 88.8783637,56.4363721 C91.1361566,56.4480792 93.6522348,58.0102193 93.946909,59.2366305 C94.2415831,60.4630417 93.3024148,61.1412971 91.3085344,62.2591346 C89.314654,63.376972 86.7049778,65.0286146 85.5480395,66.8668152 C84.3911012,68.7050158 81.5810991,73.2675676 80.5742176,74.6618432 C79.5673362,76.0561188 76.543091,77.8683832 76.543091,79.3436713 L76.543091,94.9606311 L57.8409521,94.9606311 L57.8409521,81.1425425 C57.8409521,80.1539643 57.4562904,78.9117176 56.9409948,78.1492342 C55.9727412,76.7165085 54.5546356,75.391653 53.9060709,73.4981752 C52.912346,70.5970061 52.6525485,66.2994964 52.7491607,63.9808778 C52.7282118,63.830181 52.716903,63.6935284 52.716903,63.5542169 L53.1552676,49.1886955 C53.1552676,47.806704 54.2024693,45.9511767 55.5752914,45.9511767 C56.9481135,45.9511767 57.6883316,47.1583236 57.6883316,48.5403151 L57.6883316,59.3791083 Z" id="Combined-Shape" fill="#FFDE5C" transform="translate(73.358452, 62.992364) scale(-1, 1) translate(-73.358452, -62.992364) "></path>
        <path d="M66.2290917,69.1633985 C67.7907909,66.2799322 69.3578312,64.3576214 70.9302123,63.396466 C72.5025935,62.4353106 74.8404969,61.6864758 77.9439226,61.1499616 L76.1729077,60.1532115 C72.9718753,60.6956301 70.6808724,61.6382821 69.2998989,62.9811676 C67.9189254,64.324053 66.895323,66.3847966 66.2290917,69.1633985 Z" id="Path-8" fill="#ECA349" transform="translate(72.086507, 64.658305) scale(-1, 1) translate(-72.086507, -64.658305) "></path>
        <path d="M80.3928581,81.0581793 C82.0059613,78.2232498 83.5987034,76.3252074 85.1710846,75.364052 C86.7434658,74.4028966 89.1852212,73.6337536 92.4963508,73.0566229 C90.9342657,72.780029 89.3317189,72.8157649 87.6887102,73.1638305 C85.2241972,73.6859289 84.6394069,74.0973793 83.1000897,75.3446884 C82.0738782,76.1762279 81.1714677,78.0807248 80.3928581,81.0581793 Z" id="Path-8" fill="#ECA349" transform="translate(86.444604, 76.965546) scale(-1, -1) rotate(5.000000) translate(-86.444604, -76.965546) "></path>
        <path d="M73.6697551,78.0403924 C73.3840186,78.3878491 72.8296798,78.7455721 72.0067386,79.1135612 C71.1837974,79.4815503 70.3232626,79.8117586 69.4251342,80.1041859 C70.9150683,80.1865706 71.8838548,80.1865706 72.3314938,80.1041859 C72.7791328,80.0218012 73.2683875,79.8536523 73.7992581,79.5997392 L73.6697551,78.0403924 Z" id="Path-9" fill="#ECA349" transform="translate(71.612196, 79.103183) scale(-1, 1) translate(-71.612196, -79.103183) "></path>
        <polygon id="Path-11" fill="#44A7FF" points="32.0125 7.69945885 40.3144995 21.2356737 41.2499596 5"></polygon>
        <polygon id="Path-12" fill="#44A7FF" points="21.0200878 9.3373494 16.7875 17.2152953 28.4559968 20.6470179"></polygon>
        <polygon id="Path-11" fill="#44A7FF" transform="translate(60.018770, 13.117837) scale(-1, 1) translate(-60.018770, -13.117837) " points="55.4000404 7.69945885 63.7020399 21.2356737 64.6375 5"></polygon>
        <polygon id="Path-12" fill="#44A7FF" transform="translate(74.028252, 14.992184) scale(-1, 1) translate(-74.028252, -14.992184) " points="72.426591 9.3373494 68.1940032 17.2152953 79.8625 20.6470179"></polygon>
    </g>
</svg>