<?xml version="1.0" encoding="UTF-8"?>
<svg width="100px" height="100px" viewBox="0 0 100 100" version="1.1" xmlns="http://www.w3.org/2000/svg" xmlns:xlink="http://www.w3.org/1999/xlink">
    <!-- Generator: Sketch 52.6 (67491) - http://www.bohemiancoding.com/sketch -->
    <title>Rose (1F339)</title>
    <desc>Created with Sketch.</desc>
    <defs>
        <linearGradient x1="50.3943492%" y1="94.1233023%" x2="46.2687979%" y2="4.07191176%" id="linearGradient-1">
            <stop stop-color="#4D8018" offset="0%"></stop>
            <stop stop-color="#92C932" offset="100%"></stop>
        </linearGradient>
        <linearGradient x1="16.9713988%" y1="34.1614073%" x2="78.2630184%" y2="44.880297%" id="linearGradient-2">
            <stop stop-color="#B40203" offset="0%"></stop>
            <stop stop-color="#B40203" offset="24%"></stop>
            <stop stop-color="#FC2424" offset="100%"></stop>
        </linearGradient>
        <linearGradient x1="16.6196084%" y1="32.7125933%" x2="79.7224204%" y2="55.7842422%" id="linearGradient-3">
            <stop stop-color="#BE0805" offset="0%"></stop>
            <stop stop-color="#CE0C0D" offset="100%"></stop>
        </linearGradient>
        <linearGradient x1="23.4419151%" y1="45.4246399%" x2="79.0362956%" y2="45.4246399%" id="linearGradient-4">
            <stop stop-color="#BC0704" offset="0%"></stop>
            <stop stop-color="#E91B1A" offset="100%"></stop>
        </linearGradient>
        <linearGradient x1="91.659988%" y1="55.8925007%" x2="8.66860996%" y2="37.1043523%" id="linearGradient-5">
            <stop stop-color="#B50303" offset="0%"></stop>
            <stop stop-color="#E8191A" offset="100%"></stop>
        </linearGradient>
        <linearGradient x1="19.8081638%" y1="43.9275325%" x2="80.1161288%" y2="46.0409066%" id="linearGradient-6">
            <stop stop-color="#F41F1F" offset="0%"></stop>
            <stop stop-color="#CA0B0C" offset="100%"></stop>
        </linearGradient>
        <linearGradient x1="36.6918432%" y1="32.3538743%" x2="77.9701015%" y2="67.7877982%" id="linearGradient-7">
            <stop stop-color="#EA1C1B" offset="0%"></stop>
            <stop stop-color="#D51010" offset="100%"></stop>
        </linearGradient>
        <linearGradient x1="38.6884667%" y1="76.7814117%" x2="83.4004053%" y2="21.2886525%" id="linearGradient-8">
            <stop stop-color="#DE1516" offset="0%"></stop>
            <stop stop-color="#BF0906" offset="100%"></stop>
        </linearGradient>
        <linearGradient x1="18.0232336%" y1="67.2099212%" x2="92.8645514%" y2="7.16769026%" id="linearGradient-9">
            <stop stop-color="#D20E0E" offset="0%"></stop>
            <stop stop-color="#EB1C1B" offset="100%"></stop>
        </linearGradient>
        <linearGradient x1="23.7277435%" y1="22.0082476%" x2="103.75484%" y2="53.590794%" id="linearGradient-10">
            <stop stop-color="#B80503" offset="0%"></stop>
            <stop stop-color="#E91B1A" offset="100%"></stop>
        </linearGradient>
        <linearGradient x1="46.56521%" y1="71.8432381%" x2="89.5827096%" y2="37.5481843%" id="linearGradient-11">
            <stop stop-color="#E01516" offset="0%"></stop>
            <stop stop-color="#BF0906" offset="100%"></stop>
        </linearGradient>
        <linearGradient x1="42.421602%" y1="80.0664114%" x2="94.6931752%" y2="32.6321781%" id="linearGradient-12">
            <stop stop-color="#D50F10" offset="0%"></stop>
            <stop stop-color="#FB2323" offset="100%"></stop>
        </linearGradient>
        <linearGradient x1="47.7251551%" y1="84.6611308%" x2="7.84921092%" y2="48.9372464%" id="linearGradient-13">
            <stop stop-color="#CE0D0E" offset="0%"></stop>
            <stop stop-color="#B60403" offset="100%"></stop>
        </linearGradient>
        <linearGradient x1="85.5231031%" y1="65.5937386%" x2="18.91724%" y2="8.88742561%" id="linearGradient-14">
            <stop stop-color="#C10907" offset="0%"></stop>
            <stop stop-color="#E01516" offset="30%"></stop>
            <stop stop-color="#EC1C1B" offset="70%"></stop>
            <stop stop-color="#BC0704" offset="100%"></stop>
        </linearGradient>
        <linearGradient x1="16.7233467%" y1="19.7615707%" x2="92.0435245%" y2="74.5149873%" id="linearGradient-15">
            <stop stop-color="#F72222" offset="0%"></stop>
            <stop stop-color="#BD0704" offset="100%"></stop>
        </linearGradient>
        <linearGradient x1="52.4346453%" y1="68.4698086%" x2="85.3098034%" y2="43.9592222%" id="linearGradient-16">
            <stop stop-color="#D71111" offset="0%"></stop>
            <stop stop-color="#F92222" offset="100%"></stop>
        </linearGradient>
        <linearGradient x1="21.8148847%" y1="11.1398986%" x2="84.2703449%" y2="81.9687503%" id="linearGradient-17">
            <stop stop-color="#EB1B1B" offset="0%"></stop>
            <stop stop-color="#B40203" offset="100%"></stop>
        </linearGradient>
        <linearGradient x1="18.0974932%" y1="35.0249753%" x2="80.5351298%" y2="76.0474057%" id="linearGradient-18">
            <stop stop-color="#F21E1E" offset="0%"></stop>
            <stop stop-color="#B90603" offset="100%"></stop>
        </linearGradient>
        <linearGradient x1="15.6737691%" y1="88.6529562%" x2="91.3728008%" y2="45.0833238%" id="linearGradient-19">
            <stop stop-color="#92C932" offset="0%"></stop>
            <stop stop-color="#92C932" offset="100%"></stop>
        </linearGradient>
    </defs>
    <g id="Rose-(1F339)" stroke="none" stroke-width="1" fill="none" fill-rule="evenodd">
        <polygon id="Path" fill="url(#linearGradient-1)" points="46.7873173 63.9955358 46.4558055 75.3904945 42.625351 76.296166 46.4482116 77.4177717 46.4453312 87.3022795 42.5391999 88.2128524 46.3961019 89.3205708 46.4432363 94.9972191 53.3761808 95.0898013 53.3630879 83.4037534 56.8489376 82.4918191 53.4005335 81.7683167 52.8741996 63.9337236"></polygon>
        <path d="M70.5430479,39.9458445 C70.5430479,39.9458445 71.6876279,35.6794824 79.0165012,32.4131262 C86.3456364,29.1465096 89.0411995,28.8114386 88.0304288,24.5398695 C87.0193962,20.2683003 79.17702,12.8022317 79.17702,12.8022317 C79.17702,12.8022317 73.9621239,20.435966 71.7719461,27.5552479 C69.5815064,34.6745298 70.5430479,39.9458445 70.5430479,39.9458445 Z" id="Path" fill="url(#linearGradient-2)"></path>
        <path d="M25.704892,22.2163514 C25.704892,22.2163514 15.4429506,11.6109776 25.2450699,7.31311302 C35.0471892,3.01498813 41.258192,7.25817908 41.258192,7.25817908 L36.7063196,28.1786361 L25.704892,22.2163514 Z" id="Path" fill="url(#linearGradient-3)"></path>
        <path d="M37.8367593,10.9873628 C37.8367593,10.9873628 37.9223868,4.12244326 47.1683203,2.34893628 C59.3106618,0.0198415311 64.155553,7.72933782 64.155553,7.72933782 C64.155553,7.72933782 59.3585818,12.1729986 51.7848715,13.0308532 C44.2108994,13.8887078 37.8367593,10.9873628 37.8367593,10.9873628 Z" id="Path" fill="url(#linearGradient-4)"></path>
        <path d="M50.8484684,12.0910559 C50.8484684,12.0910559 56.2969416,6.1954209 66.9152713,6.04545907 C77.5338629,5.89523688 85.636002,14.1509483 74.0613679,21.3558855 C62.4869957,28.5608227 60.2724652,28.310626 54.5356867,22.5066343 C48.7986463,16.7026427 50.8484684,12.0910559 50.8484684,12.0910559 Z" id="Path" fill="url(#linearGradient-5)"></path>
        <path d="M41.8849358,13.8187481 C41.8849358,13.8187481 44.2111028,5.59935553 49.4383831,5.28186688 C56.5669887,4.84945313 60.1898172,12.7118716 60.1898172,12.7118716 L48.4555767,22.8195031 L41.8849358,13.8187481 Z" id="Path" fill="url(#linearGradient-6)"></path>
        <path d="M34.1479699,10.2978998 C34.1479699,10.2978998 38.9677227,8.34631309 44.7016208,11.3343547 C50.4357807,14.3223964 49.6706325,20.9975205 49.6706325,20.9975205 C49.6706325,20.9975205 41.6962799,26.3534491 35.0526882,21.2029369 C28.4090965,16.0524248 34.1479699,10.2978998 34.1479699,10.2978998 Z" id="Path" fill="url(#linearGradient-7)"></path>
        <path d="M51.1268175,21.5714954 C51.1268175,21.5714954 52.7059734,17.1734127 57.5860205,12.97474 C62.4663671,8.7760673 70.4717771,7.19535878 69.6495496,11.0977498 C68.8270227,15.0001409 64.4127547,22.6314174 64.4127547,22.6314174 L51.1268175,21.5714954 Z" id="Path" fill="url(#linearGradient-8)"></path>
        <path d="M47.8923568,16.0398375 C48.5818281,15.0489438 48.4249754,14.8539414 51.8752124,13.4116001 C55.3254495,11.9692588 57.9916846,11.4623566 58.3444069,13.7234999 C58.6973911,15.9843828 52.8956719,19.5891946 50.7191107,19.4629246 C48.5425495,19.336915 47.2031474,17.0307311 47.8923568,16.0398375 Z" id="Path" fill="url(#linearGradient-9)"></path>
        <path d="M44.2017344,21.9466128 C44.2017344,21.9466128 43.0102819,19.6771383 43.2061514,17.9228972 C43.4022828,16.1686562 43.9833451,15.0382147 45.8192294,15.2261877 C48.4854645,15.4990349 50.8772727,16.668529 52.6414081,18.0330255 C54.4058053,19.3972616 44.2017344,21.9466128 44.2017344,21.9466128 Z" id="Path" fill="url(#linearGradient-10)"></path>
        <path d="M57.8835374,12.6853395 C57.8835374,12.6853395 60.042816,15.1021724 57.8623269,19.1295329 C55.7473023,23.0366114 46.8326187,27.2605364 46.8326187,27.2605364 L39.3584144,21.7043984 C39.3584144,21.7043984 41.1010774,21.6809669 47.7320999,19.8074853 C59.8723466,16.3773687 57.8835374,12.6853395 57.8835374,12.6853395 Z" id="Path" fill="url(#linearGradient-11)"></path>
        <path d="M44.9205338,23.7149023 C44.9205338,23.7149023 53.34083,22.7768598 60.9671736,19.3152408 C71.8816644,14.3612932 69.1339916,9.37297941 69.1339916,9.37297941 C69.1339916,9.37297941 73.2485616,13.1668056 70.2371981,18.8598879 C67.9137347,23.2530407 63.8146143,25.7240264 58.8712646,27.3754291 C54.0423468,28.9885602 44.9205338,23.7149023 44.9205338,23.7149023 Z" id="Path" fill="url(#linearGradient-12)"></path>
        <path d="M34.1597535,10.3151094 C34.1597535,10.3151094 29.6678465,18.4497579 41.2880438,22.7288772 C52.9079792,27.0077362 68.1973266,24.8944719 68.1973266,24.8944719 C68.1973266,24.8944719 50.0482313,34.4982778 37.2711467,28.386552 C23.0237311,21.5716197 34.1597535,10.3151094 34.1597535,10.3151094 Z" id="Path" fill="url(#linearGradient-13)"></path>
        <path d="M51.2072134,62.2008578 C51.2072134,62.2008578 59.3630334,62.3752925 64.5632654,58.2711287 C69.7634975,54.1669649 71.586289,51.0753038 72.0686308,47.6641927 C72.5512346,44.2528213 71.562198,41.1637637 71.562198,41.1637637 C71.562198,41.1637637 57.1115809,30.2878858 50.5711611,29.168379 C44.0307413,28.0491326 40.5571989,29.6963697 40.5571989,29.6963697 C40.5571989,29.6963697 40.2243778,39.8286868 43.9770605,47.5040772 C47.7297432,55.1794676 51.2072134,62.2008578 51.2072134,62.2008578 Z" id="Path" fill="url(#linearGradient-14)"></path>
        <path d="M11.7654211,38.0125996 C11.7654211,38.0125996 26.496226,35.1336447 38.2978907,46.6416535 C50.0995554,58.1499226 51.0639773,63.3285525 51.0639773,63.3285525 C51.0639773,63.3285525 45.1274014,63.3027779 39.0318778,60.8205971 C37.9713541,60.3886757 36.9058552,59.8825545 35.8662801,59.289216 C27.9374908,54.7640655 25.7745462,50.060575 22.1815967,45.7916094 C16.0740277,38.5348625 11.7654211,38.0125996 11.7654211,38.0125996 Z" id="Path" fill="#7AB51C"></path>
        <path d="M60.583814,62.8959725 C60.583814,62.8959725 61.0122132,66.6517875 49.1736266,65.5929424 C37.3347781,64.5343576 40.1088985,58.9610365 40.1088985,58.9610365 L60.583814,62.8959725 Z" id="Path" fill="#92C932"></path>
        <path d="M28.5191274,23.6720651 C27.3544722,28.6313694 26.8458402,34.2640055 27.4817779,39.3531018 C29.066158,52.034468 37.1005954,61.9885001 50.4750788,63.4652392 C55.6881145,50.5769993 55.4016028,39.1439609 42.4220329,30.9149165 C38.2504819,28.270332 28.5191274,23.6720651 28.5191274,23.6720651 Z" id="Path" fill="url(#linearGradient-15)"></path>
        <path d="M49.0238439,28.3017949 C53.8640217,25.6365878 60.7621391,24.9794633 66.0689472,23.6883857 C77.4254538,20.9250264 78.6876079,17.7937921 79.1969211,15.0510005 C79.6638134,12.5347138 78.53285,10.5479799 78.53285,10.5479799 C78.53285,10.5479799 80.4703351,12.7617394 80.419011,16.3873792 C80.345429,21.6206827 77.644105,23.7727392 74.2666644,30.0570773 C71.4828552,35.2367487 71.5760765,39.7767391 71.5760765,39.7767391 C71.5760765,39.7767391 68.6723365,39.0514029 63.8177566,34.3968583 C60.0014424,30.7376333 49.0238439,28.3017949 49.0238439,28.3017949 Z" id="Path" fill="url(#linearGradient-16)"></path>
        <path d="M40.7166703,29.8703191 C53.8024851,24.6401398 63.0405629,49.3843633 75.2981218,40.8615323 C66.7047377,33.9703174 55.7520157,26.6344239 44.5138688,26.0934158 C41.8821989,25.9668855 39.2348175,26.2126563 36.5984342,26.9241939 L40.7166703,29.8703191 Z" id="Path" fill="url(#linearGradient-17)"></path>
        <path d="M53.0821146,44.1174756 C43.5790368,41.7964517 42.0251732,33.4496176 31.3094324,28.6326143 C27.2430442,26.8046941 20.4957568,30.2035687 17.2036818,26.0431692 C12.2959448,19.8400604 18.5564387,10.3456017 24.4500699,7.57417158 C25.7865916,6.94568569 27.6366163,6.1870246 31.0462654,5.65174416 C31.0462654,5.65174416 29.6696795,5.88788198 27.2844177,7.1393864 C22.2737706,9.76866517 22.1208457,13.6385136 25.9777478,17.2912299 C29.1247536,20.2717213 34.480791,23.4576293 37.7492988,25.3540217 C52.8561314,34.1192388 53.0821146,44.1174756 53.0821146,44.1174756 Z" id="Path" fill="url(#linearGradient-18)"></path>
        <path d="M48.0654448,64.4468825 C48.0654448,64.4468825 48.6195357,59.7972846 66.6450342,56.1552427 C79.8018124,53.4968047 86.0031265,46.1327934 86.0031265,46.1327934 C86.0031265,46.1327934 85.7171779,60.4333206 67.4010173,63.6129802 C52.9553755,66.1206753 48.0654448,64.4468825 48.0654448,64.4468825 Z" id="Path" fill="url(#linearGradient-19)"></path>
    </g>
</svg>