<?xml version="1.0" encoding="UTF-8"?>
<svg width="100px" height="100px" viewBox="0 0 100 100" version="1.1" xmlns="http://www.w3.org/2000/svg" xmlns:xlink="http://www.w3.org/1999/xlink">
    <!-- Generator: Sketch 52.6 (67491) - http://www.bohemiancoding.com/sketch -->
    <title>Unicorn Face (1F984)</title>
    <desc>Created with Sketch.</desc>
    <g id="Unicorn-Face-(1F984)" stroke="none" stroke-width="1" fill="none" fill-rule="evenodd">
        <path d="M74.2490677,41.4624335 C70.1792898,35.5118854 65.6836302,30.6041707 60.7620891,26.7392892 C68.5138123,26.925078 74.1763711,27.8558732 77.697136,29.4680612 C81.2179009,31.0802492 84.5821286,33.3500581 87.7898193,36.2774879 C83.7067953,34.4473075 80.5853598,33.7954858 78.4255126,33.7954858 C76.2656655,33.7954858 74.0155317,33.9673927 71.6751113,34.8377437 C76.1949134,36.1267143 78.8787596,36.9818919 81.6652834,39.0315343 C84.4518071,41.0811766 86.0839276,43.1669005 88.5002782,46.9169637 C86.2206124,45.6770328 84.896193,45.2123531 82.3488065,45.2123531 C79.80142,45.2123531 78.1928685,46.0378334 78.4255126,46.0378334 C78.9392932,46.0378334 85.2898529,48.6068056 88.7515875,52.6729141 C91.0594106,55.3836531 92.7096328,58.1389437 93.7022541,60.9387859 C91.0960473,59.0278168 89.2548564,57.7782941 88.1786813,57.1902179 C87.1025062,56.6021417 85.6410008,56.1179834 83.7941651,55.7377429 C87.2067312,57.8033332 87.0741237,58.3485324 88.7515875,59.8932248 C90.4290514,61.4379172 91.8634631,63.5855472 93.7022541,67.9771443 C90.9320239,64.9240225 88.5002782,63.746448 86.5449986,63.1147721 C84.9254288,62.5915512 84.2715255,62.4934041 82.6438199,62.4934041 C80.0933765,52.9264926 77.2951258,45.9161691 74.2490677,41.4624335 Z" id="Combined-Shape" fill="#FEA8C9"></path>
        <path d="M79.5280768,69.5945749 C75.4582988,65.0974522 79.2945408,63.9302028 76.9541204,64.58797 C81.4739225,65.5621087 84.1577687,66.2084086 86.9442924,67.7574244 C89.7308161,69.3064402 91.3629366,70.8827247 93.7792873,73.7168325 C91.4996214,72.7797555 90.1752021,72.4285741 87.6278156,72.4285741 C85.080429,72.4285741 83.4718775,73.0524303 83.7045217,73.0524303 C84.2183022,73.0524303 88.0616087,73.4541234 92.8454248,78.1107055 C95.3563879,80.554885 96.9587587,84.2703246 97.5474171,86.4765535 C95.9994566,84.0668276 94.0234353,83.279539 92.1180442,82.5985104 C88.455799,81.2895436 85.165767,81.7536789 83.9965524,81.3592156 C85.1947806,82.2014222 82.5741348,72.9604826 79.5280768,69.5945749 Z" id="Combined-Shape" fill="#FEA8C9" transform="translate(87.250769, 75.447335) rotate(23.000000) translate(-87.250769, -75.447335) "></path>
        <path d="M57.2946486,24.6154797 C59.4882526,23.9629576 62.2315558,23.9629576 65.5245584,24.6154797 C68.817561,25.2680018 71.439621,26.8121236 73.3907384,29.2478451 C71.3434321,28.5430836 69.3009893,28.205057 67.2634101,28.2337651 C65.2258309,28.2624733 63.4155149,28.6004999 61.8324622,29.2478451 L57.2946486,24.6154797 Z" id="Path-3" fill="#FF609A"></path>
        <path d="M65.5537603,33.2461483 C67.7473642,32.5936262 70.4906675,32.5936262 73.7836701,33.2461483 C77.0766727,33.8986704 80.9792104,36.1389647 85.4912833,39.9670314 C80.8830215,37.8699248 77.560101,36.8357256 75.5225218,36.8644337 C73.4849426,36.8931419 71.6746266,37.2311685 70.0915738,37.8785137 L65.5537603,33.2461483 Z" id="Path-3" fill="#FF609A"></path>
        <polygon id="Fill-1" fill="#FF9B6A" points="5 5.99973243 12.3820463 16.0254892 14.8810373 13.6936378"></polygon>
        <polygon id="Fill-2" fill="#D2FF6B" points="20.2225973 17.8531095 14.881171 13.6937716 12.3821799 16.025623 16.3738838 21.4465419 16.9124364 22.1783392 21.9144276 19.1695419"></polygon>
        <polygon id="Fill-3" fill="#4FFFB8" points="21.9145612 19.1699432 16.91257 22.1787405 20.8949194 27.5876189 21.6486258 28.6083892 25.3396489 24.9132811 27.0675609 23.1834568"></polygon>
        <polygon id="Fill-4" fill="#6EDDFF" points="32.3835964 27.3217905 30.9069199 26.1725878 27.5686955 23.5731689 27.0675609 23.1825203 25.3396489 24.9136824 21.6486258 28.6087905 24.3560888 32.2865068 25.1084589 33.307277 29.4342524 30.2743986 32.9822852 27.7886959"></polygon>
        <polygon id="Fill-5" fill="#8284FA" points="29.4345197 30.2746662 25.1087261 33.3062068 25.6579696 34.0553959 28.3467236 37.7076932 28.8612218 38.4033689 29.0737028 38.6936797 32.8435711 43.8122473 33.6774591 44.9467338 37.7747353 40.844923 42.9598076 37.726423 43.7536048 37.2488149 43.7536048 36.2614905 43.7536048 36.1758689 43.0145983 35.6005986 38.8772313 32.3777473 38.5003781 32.0860986 36.2486135 30.3295176 32.9825525 27.7889635"></polygon>
        <path d="M70.3980611,50.5994247 C72.5916651,49.5119035 75.3349683,49.5119035 78.6279709,50.5994247 C81.9209735,51.6869458 85.2653067,54.2604453 88.6609704,58.319923 C85.1691178,57.1453374 82.4044018,56.5819677 80.3668226,56.6298139 C78.3292434,56.6776601 76.5189274,57.2410298 74.9358747,58.319923 L70.3980611,50.5994247 Z" id="Path-3-Copy-2" fill="#FF609A"></path>
        <path d="M85.3224508,71.5258667 C87.088361,73.3522475 88.7385751,75.7756252 90.273093,78.7959999 C87.1338437,76.8626885 84.5661821,75.6891921 82.5701084,75.2755107 C80.5740346,74.8618293 78.683922,75.0017987 76.8997706,75.6954188 L74.2076538,67.1476772 C74.9558913,66.970406 75.7329661,66.9100452 76.5388783,66.9665949 L75.2620017,62.9123831 C77.6429886,62.3482833 80.3159812,62.9680119 83.2809794,64.7715689 C86.2459776,66.5751259 88.9281314,69.8381715 91.3274408,74.5607058 C89.0158566,73.1371132 87.0141933,72.1255002 85.3224508,71.5258667 Z" id="Combined-Shape" fill="#FF609A"></path>
        <path d="M15.2535897,58.7391721 C20.3437168,47.8462016 25.5315718,40.5196895 28.9748622,37.6844194 C31.2703891,35.7942394 33.1964852,33.8702107 34.7531504,31.9123334 C33.6275617,29.6703055 33.6275617,26.4738347 34.7531504,22.322921 C35.8787391,18.1720073 36.6901161,15.2913186 37.1872812,13.6808548 C38.7284839,16.2379261 39.827577,18.5216034 40.4845605,20.5318867 C41.141544,22.5421699 41.4700358,24.2550674 41.4700358,25.6705791 C42.6937196,25.2113886 43.5182131,24.9240459 43.9435162,24.8085509 C44.3688192,24.6930558 44.9310749,24.485639 45.6302831,24.1863004 C45.2777621,21.9213143 45.2777621,19.6041602 45.6302831,17.234838 C45.9828041,14.8655159 46.5704779,13.1475969 47.3933046,12.0810811 C49.6942747,13.8480994 51.2289493,15.5660184 51.9973283,17.234838 C52.7657073,18.9036577 53.4868613,20.5996853 54.1607902,22.322921 C61.7290179,26.5672081 68.4251104,32.9470456 74.2490677,41.4624335 C80.0730251,49.9778215 84.9910952,67.8391016 89.0032782,95.0462739 L49.4380095,95.0462739 C51.6895322,89.712858 52.8698801,85.7062402 52.9790533,83.0264205 C53.0882265,80.3466008 53.142813,78.4027132 53.142813,77.1947579 C52.1185855,78.3254376 49.0521532,79.0595564 43.9435162,79.3971144 C36.2805606,79.9034513 33.539036,81.082254 28.9748622,83.8675257 C24.4106883,86.6527974 16.1193621,93.0962489 9.92316041,84.6023419 C3.72695873,76.1084349 6.81130875,71.7614694 8.36723458,68.3585503 C9.92316041,64.9556312 13.083765,63.382639 15.2535897,58.7391721 Z" id="Path-2-Copy" fill="#EFF6F7"></path>
        <path d="M47.0956763,23.0405436 C47.5151827,28.2443369 48.0890876,32.858501 49.8527916,34.2912355 C51.6164956,35.72397 52.4608231,36.1574789 53.0948168,35.7053011 C53.7288104,35.2531233 54.171952,31.4184973 52.9184397,25.2350072 C52.0827648,21.1126805 50.4694064,17.8187579 48.0783643,15.3532393 C47.143568,17.0089133 46.8160053,19.571348 47.0956763,23.0405436 Z" id="Path-3-Copy" fill="#B1C1C0"></path>
        <path d="M35.8115842,24.66751 C36.5223142,21.5428941 37.0346416,19.3744448 37.3485663,18.1621622 C38.3217273,20.0870072 39.0157271,21.8060539 39.4305659,23.3193022 C39.8454047,24.8325504 40.0235817,27.5553675 40.045883,27.7291656 C40.5453839,31.6218613 38.4442202,33.7039901 37.1499282,33.3758598 C36.7411729,33.2722316 35.9833994,32.2595202 35.4753129,30.8095687 C34.9672263,29.3596172 35.2403067,27.1790445 35.8115842,24.66751 Z" id="Combined-Shape" fill="#B1C1C0"></path>
        <path d="M45.612882,21.8108108 C38.3764428,26.2991412 35.4440973,30.4934708 36.8158455,34.3937997 C38.1875937,38.2941286 45.9578893,42.1555983 60.1267322,45.9782089 C55.5909774,43.7010457 51.541959,40.0782342 47.9796768,35.1097744 C46.1688131,32.5840891 45.3798815,28.1511012 45.612882,21.8108108 Z" id="Path-4-Copy" fill="#FF609A"></path>
        <path d="M54.3665864,23.6532024 C54.8799577,25.5872239 55.2358067,27.0432096 55.4341336,28.0211595 C55.8433827,30.0391671 55.8690421,32.3768008 56.6701116,34.4069081 C58.2059536,38.2991098 61.0718814,42.6905208 64.5260199,46.6043346 C71.0914088,54.0434427 76.3256423,59.0158384 80.2287206,61.5215218 C77.1689563,57.4026987 73.6914556,51.0913122 69.7962186,42.5873621 C65.9009817,34.0834121 60.7577709,27.7720255 54.3665864,23.6532024 Z" id="Path-5-Copy" fill="#FF609A"></path>
        <path d="M40.1070624,54.2968801 C39.8827162,54.2373286 39.6630744,54.1685129 39.4457954,54.0937604 C39.2615739,54.1569803 39.0832955,54.222623 38.9109601,54.2906887 C37.9589074,54.6667116 37.052587,55.6180634 36.1919989,57.1447441 C36.1919989,55.9202047 36.386672,54.9688529 36.7760182,54.2906887 C36.96916,53.9542737 37.1963694,53.6370379 37.4576465,53.3389812 C35.935774,52.8076914 34.4195466,52.818193 32.9089641,53.3704862 C33.5073369,52.2753887 34.4346562,51.5836599 35.690922,51.2952998 C37.5753207,50.8627598 42.1012624,52.2928406 45.7203261,50.541372 C48.1330352,49.3737263 50.1206614,47.9049807 51.6832046,46.1351351 C50.499269,49.2404469 48.7546853,51.5129564 46.4494534,52.9526635 C46.2793542,53.2591616 46.0923052,53.594422 45.8886206,53.9599058 C45.561766,54.5464012 45.0236655,55.8272255 44.274319,57.8023786 C43.9338119,56.5911097 43.7635584,55.6989131 43.7635584,55.1257891 C43.7635584,54.8702945 43.7973931,54.5498526 43.8650625,54.1644634 C43.5754997,54.2572986 43.2987513,54.3298326 43.033108,54.3844943 C42.2532302,55.6444632 41.5353926,57.1633572 40.879595,58.9411765 C40.3067974,56.9612365 40.0492866,55.4131377 40.1070624,54.2968801 Z" id="Combined-Shape" fill="#000000"></path>
        <path d="M49.4448434,95.0153103 C51.6963662,89.6818944 52.8338381,85.9937061 52.9430112,83.3138864 C53.0442324,80.8292603 53.1594061,78.4071839 53.1667789,77.1878147 L53.9321636,76.226822 C57.1927816,81.4148183 57.6143641,86.4139723 57.4142937,89.922616 C57.3033211,91.8687472 57.0024232,93.3138273 56.5993498,95.0153103 L49.4448434,95.0153103 Z" id="Combined-Shape" fill="#B1C1C0"></path>
        <path d="M44.3156626,79.2638691 C36.652707,79.7702061 33.9111825,80.9490087 29.3470086,83.7342804 C26.3341215,85.5728846 21.6971131,89.0055551 17.1107521,88.6833145 C21.49152,88.3102361 25.5939749,84.2205862 28.4170144,82.3593386 C33.0538591,79.3022379 35.8568715,77.9789118 43.7923419,77.1744306 C49.0826555,76.6381099 53.0861144,76.9333638 56.333183,72.6309929 C56.350266,73.1275646 55.1527336,75.8781608 53.4044969,77.1744306 C51.6562603,78.4707005 49.2522042,78.9376825 44.3156626,79.2638691 Z" id="Combined-Shape" fill="#B1C1C0"></path>
        <path d="M11.055376,77.7567568 C12.3930928,77.7567568 13.1594756,76.6677197 13.1594756,75.3243243 C13.1594756,73.980929 12.3930928,72.8918919 11.055376,72.8918919 C10.0272837,72.8918919 9.33146239,73.3768433 8.97987452,74.284441 C8.87398893,74.5577767 9.76197651,74.4427378 9.76197651,75.3243243 C9.76197651,76.4081559 9.05153773,76.2042974 9.21354726,76.530645 C9.61041429,77.3300833 10.1054424,77.7567568 11.055376,77.7567568 Z" id="Oval-2" fill="#B1C1C0"></path>
        <path d="M11.0823982,86.1476867 C14.8094003,84.8358857 17.5720717,83.4014563 19.3704124,81.8443983 C21.1687531,80.2873403 23.2758219,77.3038834 25.6916186,72.8940276 C24.5559405,77.9744887 22.7712721,81.4793641 20.3376132,83.4086536 C18.6076683,84.7800719 14.849337,86.7684061 12.427605,87.153599 C11.9645267,86.9335535 11.5161244,86.5982494 11.0823982,86.1476867 Z" id="Path-10" fill="#B1C1C0" transform="translate(18.387008, 80.023813) rotate(9.000000) translate(-18.387008, -80.023813) "></path>
    </g>
</svg>