<?xml version="1.0" encoding="UTF-8"?>
<svg width="100px" height="100px" viewBox="0 0 100 100" version="1.1" xmlns="http://www.w3.org/2000/svg" xmlns:xlink="http://www.w3.org/1999/xlink">
    <!-- Generator: Sketch 52.6 (67491) - http://www.bohemiancoding.com/sketch -->
    <title>Birthday Cake (1F328)</title>
    <desc>Created with Sketch.</desc>
    <g id="Birthday-Cake-(1F328)" stroke="none" stroke-width="1" fill="none" fill-rule="evenodd">
        <path d="M10.0824771,78.4131604 L10.0824771,51.3686278 L91.2901171,51.3686278 L91.2901171,79.673073 C89.6671586,87.9681946 72.0271872,94.5077981 50.6862971,94.5077981 C29.3466013,94.5077981 11.7066299,87.9681946 10.0824771,79.673073 L10.0824771,78.4131604 C10.0824771,78.4131604 10.0824771,78.4131604 10.0824771,78.4131604 Z" id="Path" fill="#594640"></path>
        <path d="M9.33040821,49.0085953 C9.3220486,48.8855896 9.31846591,48.7613897 9.31846591,48.6371897 C9.31846591,40.1689048 27.7800675,33.2949169 50.5194009,33.2949169 C73.2587343,33.2949169 91.7203359,40.1689048 91.7203359,48.6371897 C91.7203359,48.9763511 91.6904802,49.3131239 91.6331571,49.6463141 C91.7012282,49.5746603 91.7346667,49.5364449 91.7346667,49.5364449 L91.6940629,59.6599326 C90.2335196,63.2044073 88.8935935,65.9141151 85.1914805,67.0008644 C79.1988344,68.7611595 77.9807198,64.9360408 71.8423776,65.0029177 C66.7358501,65.0590465 61.7797956,68.623823 55.0825537,71.2774021 C52.0587634,72.4752148 47.5075529,73.2669893 44.3595626,72.611357 C40.5463862,71.817194 37.7339745,69.5732359 34.5967323,67.2050778 C32.7480643,65.8102171 30.8372963,64.3855007 28.6160285,63.7131493 C23.4199338,62.1403483 18.1641275,68.9832862 13.015802,64.7163025 C12.372112,64.1824816 11.8621758,63.5053532 11.4119511,62.7840383 C10.4697036,61.2781143 9.46893889,58.0047299 9.46893889,58.0047299 L9.30413515,48.965603 C9.30413515,48.965603 9.31249476,48.9799337 9.33040821,49.0085953 Z" id="Path" fill="#FDEED6"></path>
        <path d="M91.0583439,50.7596445 C87.5891058,58.239107 70.5641629,63.9236418 50.1129741,63.9236418 C31.0841133,63.9236418 15.022914,59.00222 10.084773,52.29423 C17.8114411,57.548842 32.6067566,61.105259 49.5731822,61.105259 C68.1422644,61.105259 84.111508,56.8442463 91.0583439,50.7596445 Z" id="Path" fill="#FFF9EF"></path>
        <rect id="Rectangle" fill="#0BB4D4" x="62.1236507" y="33.5557342" width="7.10005373" height="17.0389149"></rect>
        <rect id="Rectangle" fill="#0BB4D4" x="45.2565507" y="24.1325442" width="7.10005373" height="17.0389149"></rect>
        <rect id="Rectangle" fill="#0BB4D4" x="28.9918507" y="32.9103042" width="7.10005373" height="17.0389149"></rect>
        <path d="M65.5083854,30.3435592 C65.5083854,30.3435592 62.6463287,29.5797623 62.3078319,26.450193 C62.0033062,23.6403528 64.2429657,23.3306153 65.1407707,21.0247922 C65.7097849,19.5649187 64.5038144,17.229121 64.5038144,17.229121 C64.5038144,17.229121 68.7271377,20.7117243 69.2731002,24.2609378 C69.7863049,27.5881173 65.5083854,30.3435592 65.5083854,30.3435592 Z" id="Path" fill="#EA8805"></path>
        <path d="M65.5196444,30.3338008 C65.5196444,30.3338008 64.1571647,28.7729018 64.2214669,27.0099518 C64.2857692,25.2470019 66.1299092,22.8923313 66.1299092,22.8923313 C66.1299092,22.8923313 67.4487119,24.7329932 67.1429729,26.9511128 C66.8384472,29.1692325 65.5196444,30.3338008 65.5196444,30.3338008 Z" id="Path" fill="#FDE12B"></path>
        <path d="M32.2949396,30.9557005 C32.2949396,30.9557005 29.477751,30.1340702 29.1445608,26.7675359 C28.8448091,23.7449397 31.0493577,23.4117496 31.9330879,20.9313339 C32.4931817,19.3609214 31.3061171,16.8482615 31.3061171,16.8482615 C31.3061171,16.8482615 35.4632318,20.594561 36.0006353,24.4125143 C36.5057945,27.9916216 32.2949396,30.9557005 32.2949396,30.9557005 Z" id="Path" fill="#EA8805"></path>
        <path d="M32.306022,30.9452032 C32.306022,30.9452032 30.9649017,29.2661158 31.0281959,27.3696786 C31.0914901,25.4732413 32.9067197,22.9402795 32.9067197,22.9402795 C32.9067197,22.9402795 34.2048477,24.9203128 33.9039018,27.3063844 C33.60415,29.6924559 32.306022,30.9452032 32.306022,30.9452032 Z" id="Path" fill="#FDE12B"></path>
        <path d="M48.7337496,21.3082769 C48.7337496,21.3082769 45.916561,20.4962856 45.5833708,17.1692454 C45.2836191,14.1821086 47.4881677,13.8528272 48.3718979,11.4015103 C48.9319917,9.84952095 47.7449271,7.36633807 47.7449271,7.36633807 C47.7449271,7.36633807 51.9020418,11.0686882 52.4394453,14.8418516 C52.9446045,18.3789709 48.7337496,21.3082769 48.7337496,21.3082769 Z" id="Path" fill="#EA8805"></path>
        <path d="M48.744832,21.2979028 C48.744832,21.2979028 47.4037117,19.6385135 47.4670059,17.7643241 C47.5303001,15.8901348 49.3455297,13.3868881 49.3455297,13.3868881 C49.3455297,13.3868881 50.6436577,15.3436929 50.3427118,17.7017725 C50.04296,20.059852 48.744832,21.2979028 48.744832,21.2979028 Z" id="Path" fill="#FDE12B"></path>
        <path d="M65.1860081,29.8001761 C64.5076854,29.7987461 64.0514896,29.9360233 63.6406745,30.140509 C61.7251296,31.092869 61.5065855,33.5981764 61.6904969,35.8346495 C61.7955891,37.1116127 61.9603929,38.0353733 62.2482023,39.2508478 C62.2911946,39.432454 62.4918252,40.4491627 62.7808289,40.3133155 C63.2119459,40.1102598 63.2155286,39.3924149 63.2501613,38.8776257 C63.3540593,37.3318281 63.373167,36.0234055 64.3643778,35.0181366 C65.1979504,34.1730244 65.746102,35.9890863 66.3479939,36.0748845 C67.1182722,36.1864221 67.1839549,34.9023091 67.4896778,34.4504386 C67.7070276,34.1286953 67.9864774,33.522388 68.5119386,33.7726328 C69.0218748,34.0157277 69.5580841,33.9470891 69.4959842,33.0419181 C69.458963,32.5113992 69.1986209,31.8335934 68.8642365,31.3445437 C68.2241292,30.4093433 67.9100467,29.807326 65.1860081,29.8001761 Z" id="Path" fill="#75D6FD"></path>
        <path d="M32.1181081,30.4125761 C31.4397854,30.4111461 30.9835896,30.5484233 30.5727745,30.752909 C28.6572296,31.705269 28.4386855,34.2105764 28.6225969,36.4470495 C28.7276891,37.7240127 28.8924929,38.6477733 29.1803023,39.8632478 C29.2232946,40.044854 29.4239252,41.0615627 29.7129289,40.9257155 C30.1440459,40.7226598 30.1476286,40.0048149 30.1822613,39.4900257 C30.2861593,37.9442281 30.305267,36.6358055 31.2964779,35.6305366 C32.1300504,34.7854244 32.678202,36.6014863 33.2800939,36.6872845 C34.0503722,36.7988221 34.1160549,35.5147091 34.4217778,35.0628385 C34.6391276,34.7410953 34.9185774,34.134788 35.4440386,34.3850328 C35.9539748,34.6281277 36.4901841,34.5594891 36.4280842,33.6543181 C36.391063,33.1237992 36.1307209,32.4459934 35.7963365,31.9569437 C35.1562292,31.0217433 34.8421467,30.419726 32.1181081,30.4125761 Z" id="Path" fill="#75D6FD"></path>
        <path d="M48.4728962,20.8798285 C47.7830602,20.8786343 47.3191212,20.9932803 46.9013332,21.1640552 C44.9532752,21.9594124 44.7310217,24.0517034 44.9180547,25.9194791 C45.0249307,26.9859265 45.1925317,27.7573991 45.4852262,28.7724946 C45.5289482,28.9241618 45.7329842,29.7732593 46.0268932,29.6598074 C46.4653277,29.4902268 46.4689712,28.8907233 46.5041917,28.4608005 C46.6098532,27.1698379 46.6292852,26.0771174 47.6373202,25.2375738 C48.4850412,24.5317838 49.0424967,26.0484559 49.6546047,26.1201097 C50.4379572,26.2132597 50.5047547,25.1408411 50.8156667,24.7634645 C51.0367057,24.4947627 51.3208987,23.9884092 51.8552787,24.1973994 C52.3738702,24.4004185 52.9191807,24.3430955 52.8560267,23.5871479 C52.8183772,23.1440886 52.5536162,22.5780236 52.2135562,22.1695969 C51.5625842,21.3885705 51.2431707,20.8857996 48.4728962,20.8798285 Z" id="Path" fill="#75D6FD" transform="translate(48.862771, 25.275012) scale(-1, 1) translate(-48.862771, -25.275012) "></path>
        <path d="M60.0625823,50.8303587 C60.2142495,50.6571954 61.2926392,50.0815765 62.8451382,49.9191612 C64.4931756,49.7448037 66.0922496,50.4720897 67.7378985,50.3944648 C68.368452,50.364609 69.1100688,50.1388996 69.6809107,49.8809459 C69.7286799,49.8594497 70.1848758,49.5776115 70.2314508,49.6158268 C70.3425142,49.7041998 69.6689684,50.2583226 69.6080627,50.3013148 C68.8413671,50.8339414 68.2741078,51.3235757 67.3235007,51.4836025 C66.473209,51.6281044 65.0055003,51.3056623 64.2435816,51.0094932 C62.3710289,50.2822072 60.0625823,50.8303587 60.0625823,50.8303587 Z" id="Path" fill="#F7E3C6"></path>
        <path d="M43.5408823,41.3437387 C43.6925495,41.1705754 44.7709392,40.5949565 46.3234382,40.4325412 C47.9714756,40.2581837 49.5705496,40.9854697 51.2161985,40.9078448 C51.846752,40.877989 52.5883688,40.6522796 53.1592107,40.3943259 C53.2069799,40.3728297 53.6631758,40.0909915 53.7097508,40.1292068 C53.8208142,40.2175798 53.1472684,40.7717026 53.0863627,40.8146948 C52.3196671,41.3473214 51.7524078,41.8369557 50.8018007,41.9969825 C49.951509,42.1414844 48.4838003,41.8190423 47.7218816,41.5228732 C45.8493289,40.7955872 43.5408823,41.3437387 43.5408823,41.3437387 Z" id="Path" fill="#F7E3C6"></path>
        <path d="M27.0191823,50.4039887 C27.1708495,50.2308254 28.2492392,49.6552065 29.8017382,49.4927912 C31.4497756,49.3184337 33.0488496,50.0457197 34.6944985,49.9680948 C35.325052,49.938239 36.0666688,49.7125296 36.6375107,49.4545759 C36.6852799,49.4330797 37.1414758,49.1512415 37.1880508,49.1894568 C37.2991142,49.2778298 36.6255684,49.8319526 36.5646627,49.8749448 C35.7979671,50.4075714 35.2307078,50.8972057 34.2801007,51.0572325 C33.429809,51.2017344 31.9621003,50.8792923 31.2001816,50.5831232 C29.3276289,49.8558372 27.0191823,50.4039887 27.0191823,50.4039887 Z" id="Path" fill="#F7E3C6"></path>
        <path d="M32.2047791,30.7780428 C31.7545544,30.7780428 31.1526625,29.9134203 30.8027531,29.6602435 C30.329838,29.319888 29.8700595,29.0213305 29.4974597,28.5639404 C28.5516295,27.4055373 28.9684158,26.2626592 29.6837596,25.1233637 C30.4588149,23.8921126 31.6004987,22.4769501 32.0101196,21.0725356 C32.2429945,20.2724015 32.2059734,19.4244982 31.9492139,18.6351122 C31.9109985,18.5168834 31.4034508,17.7095839 31.4524142,17.611657 C31.4882411,17.538809 31.5383988,17.7477993 31.5778084,17.8182588 C31.6649872,17.9770914 31.7688852,18.1275644 31.8847255,18.2672893 C32.2083618,18.6589968 32.5534943,19.0423446 32.9189287,19.3934482 C34.0462818,20.4754206 35.1987137,21.5382853 35.896144,22.9689728 C37.5095488,26.2769899 34.1621221,28.9353459 32.0447523,30.9524004" id="Path"></path>
        <ellipse id="Oval" fill="#FE8A0A" cx="49.560914" cy="57.3773552" rx="2.36338117" ry="1"></ellipse>
        <ellipse id="Oval" fill="#4AC2F8" cx="33.294114" cy="57.2666552" rx="2.36338117" ry="1"></ellipse>
        <ellipse id="Oval" fill="#FE8808" cx="63.393293" cy="55.9387552" rx="2.36338117" ry="1"></ellipse>
        <ellipse id="Oval" fill="#FDE12B" cx="75.953014" cy="52.5083552" rx="2.36338117" ry="1"></ellipse>
        <ellipse id="Oval" fill="#FE931A" cx="42.3205366" cy="51.6676398" rx="2.27054628" ry="1"></ellipse>
        <ellipse id="Oval" fill="#FC9DAE" cx="55.1016066" cy="52.3869198" rx="2.27054628" ry="1"></ellipse>
        <ellipse id="Oval" fill="#FDE131" cx="52.9959842" cy="46.7193675" rx="2.19837215" ry="1"></ellipse>
        <ellipse id="Oval" fill="#4AC2F9" cx="76.3112942" cy="46.2243675" rx="2.19837215" ry="1"></ellipse>
        <ellipse id="Oval" fill="#FD4D3F" cx="84.9245942" cy="47.0163675" rx="2.19837215" ry="1"></ellipse>
        <ellipse id="Oval" fill="#9CD133" cx="23.6584942" cy="47.4495675" rx="2.19837215" ry="1"></ellipse>
        <ellipse id="Oval" fill="#FDE12A" cx="14.4877942" cy="48.7379675" rx="2.19837215" ry="1"></ellipse>
        <ellipse id="Oval" fill="#FD98AE" cx="21.2101942" cy="53.2913275" rx="2.19837215" ry="1"></ellipse>
        <ellipse id="Oval" fill="#FC94AB" cx="58.2180464" cy="39.4377188" rx="1.97538437" ry="1"></ellipse>
        <ellipse id="Oval" fill="#FE8A0A" cx="73.5984664" cy="40.4775188" rx="1.97538437" ry="1"></ellipse>
        <ellipse id="Oval" fill="#5CC7F5" cx="42.1010664" cy="45.1133588" rx="1.97538437" ry="1"></ellipse>
        <ellipse id="Oval" fill="#FD5647" cx="40.5413664" cy="39.4377188" rx="1.97538437" ry="1"></ellipse>
        <ellipse id="Oval" fill="#FE8A0A" cx="21.0403664" cy="42.7452088" rx="1.97538437" ry="1"></ellipse>
    </g>
</svg>