<?xml version="1.0" encoding="UTF-8"?>
<svg width="100px" height="100px" viewBox="0 0 100 100" version="1.1" xmlns="http://www.w3.org/2000/svg" xmlns:xlink="http://www.w3.org/1999/xlink">
    <!-- Generator: Sketch 52.6 (67491) - http://www.bohemiancoding.com/sketch -->
    <title>Face Savoring Food (1F60B)</title>
    <desc>Created with Sketch.</desc>
    <g id="Face-Savoring-Food-(1F60B)" stroke="none" stroke-width="1" fill="none" fill-rule="evenodd">
        <path d="M50,5.02297575 L50,5 C74.9870249,5.76650911 95,25.6151845 95,49.9885121 C95,74.3618398 74.9870249,94.2105151 50,94.9770243 L50,95 C25.0129751,94.2334909 5,74.3848155 5,50.0114879 C5,25.6381602 25.0129751,5.78948486 50,5.02297575 Z" id="Combined-Shape" fill="#FFCA39"></path>
        <circle id="Oval" fill="#FFDE5C" cx="50" cy="48" r="41"></circle>
        <path d="M35.4642857,41.9822774 C38.392868,41.9822774 39.8189643,45.491184 40.7471967,46.3916372 C41.1928674,46.8239704 41.8928571,46.5690436 41.8928571,45.1979105 C41.8928571,40.9710133 39.0146877,34.4963515 35.4642857,34.4963515 C31.9138838,34.4963515 29.0357143,40.9710133 29.0357143,45.1979105 C29.0357143,46.8094908 29.8660159,46.724781 30.4829157,46.0029473 C31.4840377,44.8315356 32.7822817,41.9822774 35.4642857,41.9822774 Z" id="Oval-3-Copy" fill="#7F4401" transform="translate(35.464286, 40.540133) scale(-1, 1) translate(-35.464286, -40.540133) "></path>
        <path d="M64.3928571,41.9822774 C67.3214395,41.9822774 68.7475357,45.491184 69.6757681,46.3916372 C70.1214388,46.8239704 70.8214286,46.5690436 70.8214286,45.1979105 C70.8214286,40.9710133 67.9432591,34.4963515 64.3928571,34.4963515 C60.8424552,34.4963515 57.9642857,40.9710133 57.9642857,45.1979105 C57.9642857,46.8094908 58.7945874,46.724781 59.4114872,46.0029473 C60.4126092,44.8315356 61.7108531,41.9822774 64.3928571,41.9822774 Z" id="Oval-3-Copy" fill="#7F4401" transform="translate(64.392857, 40.540133) scale(-1, 1) translate(-64.392857, -40.540133) "></path>
        <path d="M22.0714286,59.2481706 C22.0845463,58.0827235 22.6329615,57.5 23.7166741,57.5 C24.8003868,57.5 25.3268048,58.0827235 25.2959281,59.2481706 C26.7773536,70.7085242 37.6480046,78.6053135 50.838235,78.6053135 C64.0284654,78.6053135 74.8991165,70.7085242 76.380542,59.2481706 C76.3596277,58.0827235 76.8918157,57.5 77.977106,57.5 C79.0623964,57.5 79.6050415,58.0827235 79.6050415,59.2481706 C78.0685489,71.8945813 65.7754896,81.7481706 50.838235,81.7481706 C35.9009805,81.7481706 23.6079212,71.8945813 22.0714286,59.2481706 Z" id="Combined-Shape" fill="#7F4401"></path>
        <path d="M88.4026489,68.9869353 C90.2595953,70.6371318 90.487733,74.8933272 87.26196,78.9613088 C84.0361869,83.0292905 79.1065099,81.2778578 77.4529863,80.1195833 C76.4352986,79.4067046 74.012504,77.520428 70.1846026,74.4607535 C69.8706174,74.2097825 69.8536934,73.0821585 70.1596661,72.7697704 C71.9071809,70.9856147 73.5453086,69.3340747 74.5779951,67.3847334 C75.5265949,65.5941176 76.2736228,63.9541259 76.724814,61.4768823 C76.857626,60.7476843 77.818405,60.7689779 78.176852,61.0098651 C84.3194565,65.1378808 87.2350886,67.9493696 88.4026489,68.9869353 Z" id="Combined-Shape" fill="#F46C60"></path>
        <path d="M74.0703184,68.2501864 C75.6790722,69.1282086 77.1723826,70.0818761 78.5502497,71.1111889 C79.9281168,72.1405017 80.9759798,72.9742183 81.6938387,73.6123388 C80.4824781,72.1012165 79.2502035,70.7927999 77.9970147,69.6870888 C76.743826,68.5813777 75.6493012,67.7093854 74.7134402,67.0711117 L74.0703184,68.2501864 Z" id="Path-7" fill="#E13232"></path>
    </g>
</svg>