<?xml version="1.0" encoding="UTF-8"?>
<svg width="100px" height="100px" viewBox="0 0 100 100" version="1.1" xmlns="http://www.w3.org/2000/svg" xmlns:xlink="http://www.w3.org/1999/xlink">
    <!-- Generator: Sketch 52.6 (67491) - http://www.bohemiancoding.com/sketch -->
    <title>Face Blowing a Kiss (1F618)</title>
    <desc>Created with Sketch.</desc>
    <g id="Face-Blowing-a-Kiss-(1F618)" stroke="none" stroke-width="1" fill="none" fill-rule="evenodd">
        <path d="M48,5.02297575 L48,5 C72.9870249,5.76650911 93,25.6151845 93,49.9885121 C93,74.3618398 72.9870249,94.2105151 48,94.9770243 L48,95 C23.0129751,94.2334909 3,74.3848155 3,50.0114879 C3,25.6381602 23.0129751,5.78948486 48,5.02297575 Z" id="Combined-Shape" fill="#FFCA39"></path>
        <circle id="Oval" fill="#FFDE5C" cx="48" cy="48" r="41"></circle>
        <path d="M77.4767257,89.4433669 C78.6645169,88.6390933 79.9932268,87.6734066 81.4286338,86.5472538 C85.5371765,83.3238845 89.6655735,79.468551 93.5414862,74.9902153 C95.6555302,72.5501781 96.8856625,69.6397459 96.8856625,66.6947923 C96.8856625,60.2360392 92.1674009,54.9979047 86.3439157,54.9979047 C83.3980123,54.9979047 80.6500945,56.3462964 78.6682812,58.6839124 L76.7680154,60.7984325 L75.6710062,59.5783449 L74.8681546,58.6843898 C72.884352,56.3462055 70.1362334,54.9979047 67.1904382,54.9979047 C61.3673392,54.9979047 56.6503684,60.2356094 56.6503684,66.6947923 C56.6503684,69.6868724 57.9383554,72.8481094 59.9996536,75.2580391 C63.8706134,79.7827119 67.9866149,83.5942716 72.0775719,86.7114434 C73.5059687,87.7998338 74.8272411,88.7226012 76.0074522,89.4822933 C76.2814959,89.6586929 76.5235272,89.8109022 76.7315039,89.9390811 C76.9448553,89.800063 77.1939976,89.634807 77.4767257,89.4433669 Z" id="Path" fill="#E30613" transform="translate(76.768015, 72.468493) scale(-1, 1) rotate(-14.000000) translate(-76.768015, -72.468493) "></path>
        <path d="M62.3823529,48.3992563 C68.2129192,48.3992563 71.0294118,50.453205 71.0294118,48.0763894 C71.0294118,45.6995739 67.1579917,43.1176471 62.3823529,43.1176471 C57.6067142,43.1176471 53.7352941,45.6995739 53.7352941,48.0763894 C53.7352941,50.453205 56.5517866,48.3992563 62.3823529,48.3992563 Z" id="Oval-3" fill="#7F4401" transform="translate(62.382353, 46.170566) scale(-1, 1) translate(-62.382353, -46.170566) "></path>
        <path d="M70.6249926,39.2403107 C73.4331563,39.2403107 76.1619683,39.7181223 78.0784158,40.218681 C79.9309599,40.7025487 81.0185647,41.2305742 81.0185647,40.0623159 C81.0185647,37.6855003 76.5415399,35.7587106 71.01885,35.7587106 C65.4961601,35.7587106 61.0191354,37.6855003 61.0191354,40.0623159 C61.0191354,42.4391315 65.1023027,39.2403107 70.6249926,39.2403107 Z" id="Oval-3" fill="#7F4401" transform="translate(71.018850, 38.349785) scale(-1, 1) rotate(-30.000000) translate(-71.018850, -38.349785) "></path>
        <path d="M26.1222735,31.8248063 C28.9304372,31.8248063 31.6592493,32.302618 33.5756968,32.8031767 C35.4282409,33.2870444 36.5158457,33.8150699 36.5158457,32.6468116 C36.5158457,30.269996 32.0388209,28.3432063 26.516131,28.3432063 C20.9934411,28.3432063 16.5164163,30.269996 16.5164163,32.6468116 C16.5164163,35.0236272 20.5995836,31.8248063 26.1222735,31.8248063 Z" id="Oval-3" fill="#7F4401" transform="translate(26.516131, 30.934281) scale(-1, 1) rotate(46.000000) translate(-26.516131, -30.934281) "></path>
        <ellipse id="Oval-5" fill="#7F4401" cx="35.7058824" cy="46.8235294" rx="5.29411765" ry="7.94117647"></ellipse>
        <path d="M50.6312332,68.0251688 C50.6312332,68.7326951 51.9547992,69.3308312 53.4220318,70.0915214 C54.8892644,70.8522117 56.2988557,71.4168342 56.2639216,72.623371 C56.2289875,73.8299078 54.7809687,75.5757399 51.1967291,76.6006194 C47.6124894,77.6254988 45.945259,77.6923103 45.8264831,77.1464648 C45.7077071,76.6006194 49.1563398,76.2814089 51.0455204,75.2220321 C52.934701,74.1626552 52.8895183,73.8125071 52.8839613,73.4711029 C52.8784042,73.1296987 51.5946273,71.895632 49.9679306,71.08875 C48.3412338,70.281868 46.5222636,69.7280838 46.6207747,68.5698959 C46.7192858,67.4117081 48.4595482,66.6648421 49.9679306,65.7824854 C51.4763129,64.9001287 52.8839613,64.1953681 52.8839613,63.3965962 C52.8839613,62.5978243 52.3848008,61.6068702 50.6312332,60.9095689 C48.8776655,60.2122676 45.6763813,60.0207852 45.6763813,59.3064138 C45.6763813,58.5920424 50.4412892,59.0868602 53.7167087,60.4207515 C56.9921283,61.7546429 56.8926068,63.7254718 54.4294242,65.3871274 C51.9662416,67.0487829 50.6312332,67.3176426 50.6312332,68.0251688 Z" id="Path-2" fill="#7F4401"></path>
    </g>
</svg>