<?xml version="1.0" encoding="UTF-8"?>
<svg width="100px" height="100px" viewBox="0 0 100 100" version="1.1" xmlns="http://www.w3.org/2000/svg" xmlns:xlink="http://www.w3.org/1999/xlink">
    <!-- Generator: Sketch 52.6 (67491) - http://www.bohemiancoding.com/sketch -->
    <title>Folded Hands (1F64F)</title>
    <desc>Created with Sketch.</desc>
    <g id="Folded-Hands-(1F64F)" stroke="none" stroke-width="1" fill="none" fill-rule="evenodd">
        <path d="M23.6404494,71.0542092 C28.9605517,67.2248819 32.1217686,63.2409873 33.1241,59.1025253 C34.6275972,52.8948323 36.3070868,42.4890518 37.5287212,39.5073227 C38.7503557,36.5255936 40.0221754,34.7595349 40.9303235,23.3444797 C41.8384715,11.9294245 42.7513099,5 46.6584164,5 C49.263154,5 50.5655228,6.4255619 50.5655228,9.2766857 C50.5655228,51.1376237 50.5655228,72.6138533 50.5655228,73.7053744 C50.5655228,75.3426562 50.3881033,78.2019189 48.0727505,79.2479313 C45.7573977,80.2939438 44.6849183,79.9061951 43.8583198,81.0500068 C43.3072541,81.8125479 42.3312554,83.7201545 40.9303235,86.7728265 C36.764636,87.4273288 33.0417507,86.0912623 29.7616676,82.7646271 C26.4815844,79.4379919 24.4411784,75.5345193 23.6404494,71.0542092 Z" id="Path-6" fill="#FFD456"></path>
        <path d="M49.4344772,71.0542092 C54.7545794,67.2248819 57.9157963,63.2409873 58.9181278,59.1025253 C60.421625,52.8948323 62.1011145,42.4890518 63.322749,39.5073227 C64.5443834,36.5255936 65.8162032,34.7595349 66.7243512,23.3444797 C67.6324993,11.9294245 68.5453376,5 72.4524441,5 C75.0571817,5 76.3595506,6.4255619 76.3595506,9.2766857 C76.3595506,51.1376237 76.3595506,72.6138533 76.3595506,73.7053744 C76.3595506,75.3426562 76.1821311,78.2019189 73.8667783,79.2479313 C71.5514255,80.2939438 70.478946,79.9061951 69.6523475,81.0500068 C69.1012819,81.8125479 68.1252831,83.7201545 66.7243512,86.7728265 C62.5586638,87.4273288 58.8357785,86.0912623 55.5556953,82.7646271 C52.2756122,79.4379919 50.2352061,75.5345193 49.4344772,71.0542092 Z" id="Path-6" fill="#FFD456" transform="translate(62.897014, 45.967114) scale(-1, 1) translate(-62.897014, -45.967114) "></path>
        <path d="M53.0520277,5 C54.8787187,5 56.0587666,5.99674519 56.9794742,8.76234009 C56.2784809,7.5424114 55.2837059,6.69556308 53.376227,6.78519428 C51.4687481,6.87482549 50.8917021,7.79425983 50.8917021,9.01783506 C50.8917021,9.43942105 50.8912303,12.3986472 50.8911141,12.8671261 C51.6064378,12.2492255 52.2971657,11.8075808 53.376227,11.8075808 C54.9468445,11.8075808 56.4041302,12.4171421 57.3752122,13.7611069 C57.8711104,14.4474235 58.2342943,15.3572593 58.4475256,16.4058542 C57.8252988,15.2306242 56.5152192,13.587995 53.376227,13.587995 C52.0454851,13.587995 51.0715582,14.8516576 50.9222555,15.9917613 C50.9231494,17.117452 50.8908002,16.6493417 50.8911141,20.4212894 C51.0915782,52.2361695 52.2713937,75.7066418 52.8129253,76.6561654 C53.7527599,78.3040751 56.5861325,77.7142141 58.9544418,80.2531609 C60.5333147,81.9457921 61.8556168,84.0973583 62.9213483,86.7078595 L62.813737,86.8079853 C61.6082145,86.987309 60.3601943,86.9755894 59.0696765,86.7728265 C57.6687446,83.7201545 56.6927459,81.8125479 56.1416802,81.0500068 C55.3150817,79.9061951 54.2426023,80.2939438 51.9272495,79.2479313 C50.9583173,78.8101946 50.3637944,78.0549092 50,77.2045192 C49.6362056,78.0549092 49.0416827,78.8101946 48.0727505,79.2479313 C45.7573977,80.2939438 44.6849183,79.9061951 43.8583198,81.0500068 C43.3072541,81.8125479 42.3312554,83.7201545 40.9303235,86.7728265 C39.6398057,86.9755894 38.3917855,86.987309 37.186263,86.8079853 L37.0786517,86.7078595 C38.1443832,84.0973583 39.4666853,81.9457921 41.0455582,80.2531609 C43.4138675,77.7142141 46.2472401,78.3040751 47.1870747,76.6561654 C47.7286063,75.7066418 48.9205303,52.2361695 49.1209945,20.4212894 C49.1213083,16.6493418 49.1201006,17.117452 49.1209945,15.9917613 C48.9716918,14.8516576 48.2787143,13.7611069 46.9479723,13.7611069 C43.8089802,13.7611069 42.4299185,15.1958442 41.561752,16.4058542 C41.8685923,15.3802402 42.1864704,14.5116027 42.6604657,13.8383246 C43.6394842,12.4476952 45.0250989,11.8075808 46.623773,11.8075808 C47.7028343,11.8075808 48.4056708,12.2492255 49.1209945,12.8671261 C49.1208782,12.3986472 49.1204064,9.43942105 49.1204064,9.01783506 C49.1204064,7.79425983 48.6380808,6.78519428 47.1870747,6.78519428 C44.8156924,6.78519428 43.7215191,7.5424114 43.0205258,8.76234009 C43.9412334,5.99674519 45.1212813,5 46.9479723,5 C48.3136564,5 49.3902838,5.48225779 50,6.39146577 C50.6097162,5.48225779 51.6863436,5 53.0520277,5 Z" id="Combined-Shape" fill="#CC9200"></path>
        <path d="M4.96710063,78.1370014 C15.9263369,72.2475926 21.9112716,69.1007586 22.9219049,68.6964997 C24.4378548,68.0901112 26.0534261,67.8087633 26.3338236,68.6964997 C26.6142211,69.5842361 23.9381863,69.9384857 24.1409898,71.5911235 C24.3437933,73.2437613 24.901158,76.2591327 29.4660937,81.0363933 C34.0310294,85.8136539 38.8333314,87.1407217 40.388901,86.021121 C41.4259474,85.2747205 42.1676966,84.2510874 42.6141485,82.9502217 C42.9964788,82.1524421 43.226686,82.1524421 43.3047699,82.9502217 C43.4218957,84.146891 42.500737,86.0304867 41.6053311,87.4871076 C41.0083938,88.4581882 39.5616959,90.8016347 37.2652374,94.517447 L4.96710063,94.517447 L4.96710063,78.1370014 Z" id="Path-9" fill="#018BC9"></path>
        <path d="M56.685121,78.1370014 C67.6443572,72.2475926 73.629292,69.1007586 74.6399252,68.6964997 C76.1558751,68.0901112 77.7714464,67.8087633 78.0518439,68.6964997 C78.3322414,69.5842361 75.6562067,69.9384857 75.8590102,71.5911235 C76.0618137,73.2437613 76.6191783,76.2591327 81.184114,81.0363933 C85.7490497,85.8136539 90.6499431,87.0652754 92.2055127,85.9456747 C93.2425591,85.1992741 93.9514445,84.2007898 94.3321688,82.9502217 C94.7144992,82.1524421 94.9447063,82.1524421 95.0227902,82.9502217 C95.139916,84.146891 94.2187573,86.0304867 93.3233514,87.4871076 C92.7264142,88.4581882 91.2797163,90.8016347 88.9832577,94.517447 L56.685121,94.517447 L56.685121,78.1370014 Z" id="Path-9" fill="#018BC9" transform="translate(75.859010, 81.324384) scale(-1, 1) translate(-75.859010, -81.324384) "></path>
    </g>
</svg>