<?xml version="1.0" encoding="UTF-8"?>
<svg width="100px" height="100px" viewBox="0 0 100 100" version="1.1" xmlns="http://www.w3.org/2000/svg" xmlns:xlink="http://www.w3.org/1999/xlink">
    <!-- Generator: Sketch 52.6 (67491) - http://www.bohemiancoding.com/sketch -->
    <title>Hugging Face (1F917)</title>
    <desc>Created with Sketch.</desc>
    <g id="Hugging-Face-(1F917)" stroke="none" stroke-width="1" fill="none" fill-rule="evenodd">
        <circle id="Oval-2" fill="#F6C338" cx="49.96" cy="49" r="45"></circle>
        <circle id="Oval-2" fill="#F6D659" cx="50" cy="47" r="41"></circle>
        <path d="M37.0171327,44.0816563 C34.2404937,44.1510674 32.5451074,46.6620731 31.800757,48.1240709 C31.1381796,49.4254565 29.71,49.603198 29.71,46.6030928 C29.71,40.4933804 32.424501,35.4290105 35.9734826,34.5097424 C36.2636492,34.4127514 36.5719241,34.3608247 36.8992653,34.3608247 C36.9386267,34.3608247 36.9779166,34.3613297 37.0171327,34.362336 C37.0563487,34.3613297 37.0956386,34.3608247 37.135,34.3608247 C37.4623412,34.3608247 37.7706161,34.4127514 38.0607828,34.5097424 C41.6097643,35.4290105 44.3242653,40.4933804 44.3242653,46.6030928 C44.3242653,49.603198 42.8960858,49.4254565 42.2335083,48.1240709 C41.4891579,46.6620731 39.7937716,44.1510674 37.0171327,44.0816563 Z" id="Combined-Shape" fill="#7B4101"></path>
        <path d="M63.7471327,44.0816563 C60.9704937,44.1510674 59.2751074,46.6620731 58.530757,48.1240709 C57.8681796,49.4254565 56.44,49.603198 56.44,46.6030928 C56.44,40.4933804 59.154501,35.4290105 62.7034826,34.5097424 C62.9936492,34.4127514 63.3019241,34.3608247 63.6292653,34.3608247 C63.6686267,34.3608247 63.7079166,34.3613297 63.7471327,34.362336 C63.7863487,34.3613297 63.8256386,34.3608247 63.865,34.3608247 C64.1923412,34.3608247 64.5006161,34.4127514 64.7907828,34.5097424 C68.3397643,35.4290105 71.0542653,40.4933804 71.0542653,46.6030928 C71.0542653,49.603198 69.6260858,49.4254565 68.9635083,48.1240709 C68.2191579,46.6620731 66.5237716,44.1510674 63.7471327,44.0816563 Z" id="Combined-Shape-Copy" fill="#7B4101"></path>
        <path d="M70.2029309,61.4564177 C71.0828613,60.4956357 71.6624532,60.9280929 71.941913,61.3540842 C72.1255769,61.6340502 72.1378185,62.0944316 71.9786379,62.7352286 C71.0711277,66.0457921 64.0393731,74.6056121 49.9846503,74.5971962 C35.9299275,74.5887803 29.0149185,66.0332006 28.1108599,62.7352286 C27.9516793,62.0944316 27.9639209,61.6340502 28.1475848,61.3540842 C28.4270447,60.9280929 29.0721898,60.5698569 29.8865669,61.4564177 C31.6376455,63.8402671 39.6425785,68.2274609 50.0447489,68.2180367 C60.4469193,68.2086124 68.4641062,63.8235852 70.2029309,61.4564177 Z" id="Combined-Shape" fill="#7B4101"></path>
        <path d="M32.0239855,94.9611576 C35.9140684,90.7970466 35.6943069,87.0595643 35.0704455,84.3626801 C34.4465841,81.6657959 31.6373139,79.5964799 31.514931,76.8552552 C31.3925481,74.1140304 31.4887061,70.0512943 30.8697983,69.6340036 C30.2508905,69.2167128 27.7032865,69.3712247 27.4561897,71.9255663 C27.2090928,74.4799079 27.4561897,75.9130839 27.4561897,76.6594081 C27.4561897,77.4057323 26.6682304,78.1309467 25.6882493,78.068282 C24.7082683,78.0056174 24.3979291,78.1806462 20.4025123,74.9192592 C16.4070955,71.6578723 13.5814598,69.7352148 12.6048617,69.1551097 C11.6282636,68.5750047 10.3582409,68.4515039 9.75839427,68.9521561 C9.1585476,69.4528083 8.87598403,70.4266866 11.69521,72.6729729 C14.5144359,74.9192592 18.1510842,78.350356 18.6458821,78.987308 C19.1406799,79.62426 18.9410871,80.1983811 18.6458821,80.3345146 C18.350677,80.4706482 17.8815182,80.7003631 15.4207047,79.2813498 C12.9598911,77.8623364 6.90961223,74.6946971 5.71757499,74.1059487 C4.52553775,73.5172003 2.93289054,73.699709 2.67881479,74.4338992 C2.42473904,75.1680894 2.50272445,76.2978813 5.71757499,78.068282 C8.93242553,79.8386828 15.0856167,82.8716845 15.9347318,83.3129965 C16.7838469,83.7543085 17.048618,84.5351683 16.9021196,84.8607387 C16.7556213,85.1863092 15.8684831,85.2478977 12.6048617,84.0784107 C9.34124032,82.9089237 5.6021537,81.792261 4.52644087,81.3725692 C3.45072803,80.9528773 2.19469339,81.3913382 2.0384145,82.1922162 C1.8821356,82.9930943 1.96089685,84.0320229 4.52644087,84.8607387 C7.09198489,85.6894545 16.0800942,88.7542303 16.6378481,89.1164539 C17.1956021,89.4786775 17.1477937,90.4579584 15.9347318,90.4031992 C14.7216699,90.34844 9.94770193,89.9662863 7.93286484,89.9200409 C5.91802776,89.8737954 4.86490697,90.0889625 4.86490697,90.8271479 C4.86490697,91.5653334 4.62779416,92.622593 8.46595413,92.7777764 C12.3041141,92.9329598 15.4348737,92.9724553 17.5380063,93.9668065 C19.6411389,94.9611576 22.0191068,97.0571236 25.4180692,97.0747317 C28.8170316,97.0923398 30.8697983,96.196649 32.0239855,94.9611576 Z" id="Path-10" fill="#D96D0E"></path>
        <path d="M30.3186736,95.8677349 C34.1161073,91.5602043 33.9015798,87.6939963 33.2925767,84.9042264 C32.6835737,82.1144566 29.9412112,79.9738696 29.821743,77.138232 C29.7022749,74.3025945 29.7961427,70.0999303 29.1919753,69.6682673 C28.5878079,69.2366043 26.1008796,69.3964378 25.8596677,72.0387556 C25.6184559,74.6810734 25.8596677,76.1636106 25.8596677,76.9356396 C25.8596677,77.7076686 25.0904751,78.4578607 24.133834,78.3930377 C23.177193,78.3282148 22.874245,78.5092719 18.9739861,75.1355568 C15.0737271,71.7618417 12.3153889,69.7729644 11.3620502,69.1728795 C10.4087115,68.5727946 9.16893663,68.4450401 8.58337636,68.9629357 C7.99781609,69.4808313 7.72198226,70.4882518 10.4740634,72.8119043 C13.2261445,75.1355568 16.7761797,78.6848269 17.2591931,79.3437166 C17.7422064,80.0026064 17.5473673,80.5965013 17.2591931,80.7373235 C16.9710188,80.8781458 16.5130339,81.1157725 14.1108289,79.6478858 C11.708624,78.179999 5.80244304,74.9032604 4.63879626,74.2942344 C3.47514948,73.6852084 1.92043395,73.874003 1.67240946,74.6334801 C1.42438497,75.3929571 1.50051302,76.5616612 4.63879626,78.3930377 C7.7770795,80.2244143 13.7837217,83.3618782 14.6126136,83.8183898 C15.4415055,84.2749014 15.6999706,85.0826554 15.5569614,85.4194391 C15.4139522,85.7562228 14.5479427,85.8199325 11.3620502,84.6101663 C8.17615765,83.4004 4.52612393,82.2452773 3.47603109,81.8111306 C2.42593824,81.3769838 1.19981826,81.8305461 1.04726142,82.6590078 C0.894704579,83.4874695 0.97158999,84.5621808 3.47603109,85.4194391 C5.98047218,86.2766974 14.7545139,89.4470296 15.298984,89.8217289 C15.8434541,90.1964282 15.7967843,91.2094373 14.6126136,91.1527921 C13.4284429,91.0961468 8.76817532,90.7008311 6.80132511,90.6529929 C4.8344749,90.6051546 3.80643602,90.8277324 3.80643602,91.5913423 C3.80643602,92.3549523 3.57497047,93.4486258 7.32171794,93.609154 C11.0684654,93.7696823 14.1246605,93.810538 16.1777033,94.8391365 C18.2307461,95.8677349 20.5520785,98.0358898 23.8700887,98.0541044 C27.1880988,98.0723189 29.1919753,97.1457789 30.3186736,95.8677349 Z" id="Path-10" fill="#F8C02F"></path>
        <path d="M94.6101066,94.9611576 C98.5001894,90.7970466 98.2804279,87.0595643 97.6565665,84.3626801 C97.0327051,81.6657959 94.2234349,79.5964799 94.101052,76.8552552 C93.9786691,74.1140304 94.0748271,70.0512943 93.4559193,69.6340036 C92.8370115,69.2167128 90.2894076,69.3712247 90.0423107,71.9255663 C89.7952138,74.4799079 90.0423107,75.9130839 90.0423107,76.6594081 C90.0423107,77.4057323 89.2543514,78.1309467 88.2743704,78.068282 C87.2943894,78.0056174 86.9840502,78.1806462 82.9886333,74.9192592 C78.9932165,71.6578723 76.1675808,69.7352148 75.1909827,69.1551097 C74.2143846,68.5750047 72.944362,68.4515039 72.3445153,68.9521561 C71.7446686,69.4528083 71.4621051,70.4266866 74.281331,72.6729729 C77.1005569,74.9192592 80.7372053,78.350356 81.2320031,78.987308 C81.7268009,79.62426 81.5272081,80.1983811 81.2320031,80.3345146 C80.9367981,80.4706482 80.4676393,80.7003631 78.0068257,79.2813498 C75.5460122,77.8623364 69.4957333,74.6946971 68.303696,74.1059487 C67.1116588,73.5172003 65.5190116,73.699709 65.2649358,74.4338992 C65.0108601,75.1680894 65.0888455,76.2978813 68.303696,78.068282 C71.5185466,79.8386828 77.6717377,82.8716845 78.5208528,83.3129965 C79.3699679,83.7543085 79.634739,84.5351683 79.4882407,84.8607387 C79.3417423,85.1863092 78.4546041,85.2478977 75.1909827,84.0784107 C71.9273614,82.9089237 68.1882747,81.792261 67.1125619,81.3725692 C66.0368491,80.9528773 64.7808144,81.3913382 64.6245355,82.1922162 C64.4682566,82.9930943 64.5470179,84.0320229 67.1125619,84.8607387 C69.6781059,85.6894545 78.6662152,88.7542303 79.2239692,89.1164539 C79.7817232,89.4786775 79.7339148,90.4579584 78.5208528,90.4031992 C77.3077909,90.34844 72.533823,89.9662863 70.5189859,89.9200409 C68.5041488,89.8737954 67.451028,90.0889625 67.451028,90.8271479 C67.451028,91.5653334 67.2139152,92.622593 71.0520752,92.7777764 C74.8902351,92.9329598 78.0209948,92.9724553 80.1241273,93.9668065 C82.2272599,94.9611576 84.6052278,97.0571236 88.0041902,97.0747317 C91.4031526,97.0923398 93.4559193,96.196649 94.6101066,94.9611576 Z" id="Path-10" fill="#D96D0E" transform="translate(81.293061, 82.857081) scale(-1, 1) translate(-81.293061, -82.857081) "></path>
        <path d="M95.681081,95.8677349 C99.4785147,91.5602043 99.2639872,87.6939963 98.6549842,84.9042264 C98.0459811,82.1144566 95.3036186,79.9738696 95.1841505,77.138232 C95.0646823,74.3025945 95.1585501,70.0999303 94.5543827,69.6682673 C93.9502153,69.2366043 91.463287,69.3964378 91.2220752,72.0387556 C90.9808633,74.6810734 91.2220752,76.1636106 91.2220752,76.9356396 C91.2220752,77.7076686 90.4528825,78.4578607 89.4962414,78.3930377 C88.5396004,78.3282148 88.2366525,78.5092719 84.3363935,75.1355568 C80.4361345,71.7618417 77.6777963,69.7729644 76.7244576,69.1728795 C75.7711189,68.5727946 74.5313441,68.4450401 73.9457838,68.9629357 C73.3602235,69.4808313 73.0843897,70.4882518 75.8364708,72.8119043 C78.588552,75.1355568 82.1385871,78.6848269 82.6216005,79.3437166 C83.1046138,80.0026064 82.9097747,80.5965013 82.6216005,80.7373235 C82.3334263,80.8781458 81.8754413,81.1157725 79.4732364,79.6478858 C77.0710314,78.179999 71.1648505,74.9032604 70.0012037,74.2942344 C68.8375569,73.6852084 67.2828414,73.874003 67.0348169,74.6334801 C66.7867924,75.3929571 66.8629204,76.5616612 70.0012037,78.3930377 C73.1394869,80.2244143 79.1461291,83.3618782 79.975021,83.8183898 C80.803913,84.2749014 81.062378,85.0826554 80.9193688,85.4194391 C80.7763596,85.7562228 79.9103501,85.8199325 76.7244576,84.6101663 C73.5385651,83.4004 69.8885314,82.2452773 68.8384385,81.8111306 C67.7883457,81.3769838 66.5622257,81.8305461 66.4096689,82.6590078 C66.257112,83.4874695 66.3339974,84.5621808 68.8384385,85.4194391 C71.3428796,86.2766974 80.1169213,89.4470296 80.6613914,89.8217289 C81.2058615,90.1964282 81.1591917,91.2094373 79.975021,91.1527921 C78.7908503,91.0961468 74.1305827,90.7008311 72.1637325,90.6529929 C70.1968823,90.6051546 69.1688435,90.8277324 69.1688435,91.5913423 C69.1688435,92.3549523 68.9373779,93.4486258 72.6841254,93.609154 C76.4308728,93.7696823 79.4870679,93.810538 81.5401107,94.8391365 C83.5931535,95.8677349 85.914486,98.0358898 89.2324961,98.0541044 C92.5505062,98.0723189 94.5543827,97.1457789 95.681081,95.8677349 Z" id="Path-10" fill="#F8C02F" transform="translate(82.681204, 83.346772) scale(-1, 1) translate(-82.681204, -83.346772) "></path>
    </g>
</svg>