<?xml version="1.0" encoding="UTF-8"?>
<svg width="100px" height="100px" viewBox="0 0 100 100" version="1.1" xmlns="http://www.w3.org/2000/svg" xmlns:xlink="http://www.w3.org/1999/xlink">
    <!-- Generator: Sketch 52.6 (67491) - http://www.bohemiancoding.com/sketch -->
    <title>Panda Face (1F43C)</title>
    <desc>Created with Sketch.</desc>
    <g id="Panda-Face-(1F43C)" stroke="none" stroke-width="1" fill="none" fill-rule="evenodd">
        <path d="M28.3425339,26.2202284 C31.240662,23.5308828 37.7317102,17.2665471 36.6041815,17.7975545 C33.7870838,15.8133453 30.8251659,13.9941278 27.4391317,13.4481211 C23.7979381,12.8609097 19.9136535,14.0898126 17.4672265,17.0055259 C14.827706,20.1526068 14.0984328,24.6644456 15.0207996,28.726135 C15.6138727,31.3366915 16.7327812,33.8141514 18.0309909,36.1711001 C17.551705,36.8077918 24.5306594,29.758841 28.3425339,26.2202284 Z" id="Path" fill="#8C8D8B"></path>
        <path d="M76.1883776,26.2202284 C79.0875779,23.5308828 85.5810279,17.2665471 84.453082,17.7975545 C81.6349419,15.8133453 78.6719281,13.9941278 75.2846411,13.4481211 C71.6421003,12.8609097 67.7563784,14.0898126 65.3090463,17.0055259 C62.6685491,20.1526068 61.9390061,24.6644456 62.8617142,28.726135 C63.4550068,31.3366915 64.5743293,33.8141514 65.8730192,36.1711001 C65.393556,36.8077918 72.3750926,29.758841 76.1883776,26.2202284 Z" id="Path" fill="#8C8D8B" transform="translate(73.531972, 24.758332) scale(-1, 1) translate(-73.531972, -24.758332) "></path>
        <path d="M73.1163957,9.7919283 C77.2297764,9.81209969 81.1655141,11.5583899 84.6838775,13.8870643 C85.5169017,14.4378982 86.3326791,15.015455 87.1415577,15.5983563 C87.1415577,15.5983563 87.7417491,16.0814351 88.0953101,16.5226195 C86.7276326,16.9908715 85.3185626,17.3008557 84.1906167,17.8318631 C81.3724767,15.8476539 78.4094629,14.0284364 75.0221759,13.4824297 C71.379635,12.8952183 67.4939132,14.1241211 65.046581,17.0398345 C62.4060839,20.1869154 61.6765409,24.6987542 62.5992489,28.7604436 C63.1925416,31.3710001 64.311864,33.84846 65.610554,36.2054087 C65.1310908,36.8421004 63.9686511,38.4733965 63.3080956,39.2243927 C62.9355631,38.6954542 62.5854514,38.0430736 62.2456879,37.4068992 C60.2847178,33.7412241 58.735948,29.7760815 58.6686852,25.657326 C58.5807261,20.1527792 61.1712073,14.547203 65.9020262,11.7302777 C68.0182183,10.4701696 70.4914207,9.81761665 72.9439269,9.79244552 C73.0008416,9.79210071 73.059481,9.7919283 73.1163957,9.7919283 Z" id="Path" fill="#3A3C3B" transform="translate(73.380913, 24.508160) scale(-1, 1) translate(-73.380913, -24.508160) "></path>
        <path d="M49.275949,15.8852382 C33.6077826,15.4519845 26.9357091,22.6669613 18.4895882,35.4656189 C15.6707664,39.73747 11.0382441,44.9215159 8.8159436,52.4733721 C4.8023552,66.1121593 9.35212315,82.2113382 23.6238091,84.8991321 C33.1457372,86.6921441 40.0815904,85.550823 49.5655894,84.4836361 C59.2444061,85.550823 66.3233554,86.6921441 76.0401012,84.8991321 C90.6065997,82.2113382 95.2511904,66.1121593 91.1531235,52.4733721 C88.8859978,44.9215159 84.1586527,39.73747 81.2812132,35.4656189 C72.6609632,22.6669613 65.8526898,15.4519845 49.860402,15.8852382 L49.275949,15.8852382 Z" id="Path" fill="#CDCCCC"></path>
        <path d="M49.308444,19.1000799 C34.3404723,18.7023096 27.966567,25.3263799 19.8978948,37.0768274 C17.2050434,40.9988139 12.7795438,45.7582865 10.6565557,52.6916457 C6.8223306,65.2134161 11.168774,79.9940723 24.8026725,82.4617359 C33.8990752,84.1079002 40.524972,83.0600533 49.5851406,82.080269 C58.8314207,83.0600533 65.5940188,84.1079002 74.876533,82.4617359 C88.7920692,79.9940723 93.2290978,65.2134161 89.3141694,52.6916457 C87.1483592,45.7582865 82.6322745,40.9988139 79.8834249,37.0768274 C71.6484053,25.3263799 65.1443867,18.7023096 49.8667783,19.1000799 L49.308444,19.1000799 Z" id="Path" fill="#F4F1F2"></path>
        <path d="M24.7306492,61.4887744 C24.8668491,56.1681837 25.4875071,50.3055517 29.8890068,46.6672889 C31.033776,45.7219923 32.3371578,44.932205 33.7439826,44.4415404 C34.7180708,44.1012129 35.7490527,43.90243 36.7852068,43.9213945 C43.2624626,44.0405264 47.1105422,49.8545402 47.2467422,55.8814742 C47.2967396,58.1286009 46.9381372,60.4957216 45.9106034,62.5201011 C44.5382596,65.2247907 41.8728783,67.3798532 39.4212792,69.0521817 C38.136862,69.9279991 36.8507207,70.8986393 35.3938984,71.4710239 C34.6577291,71.7606643 33.8163927,72.0727173 33.0198816,72.0158237 C24.6134138,71.4158543 24.7306492,61.4887744 24.7306492,61.4887744 Z" id="Path" fill="#4B4B4B"></path>
        <ellipse id="Oval" fill="#2A2A2A" cx="35.8694525" cy="59.7355674" rx="4.06859907" ry="6.93556857"></ellipse>
        <ellipse id="Oval" fill="#EBEBEB" cx="35.8901464" cy="55.1942808" rx="1.59001214" ry="1.3434782"></ellipse>
        <path d="M25.5719856,9.7919283 C29.6838448,9.81209969 33.6181269,11.5583899 37.1351889,13.8870643 C37.9679051,14.4378982 38.7833807,15.015455 39.5919602,15.5983563 C39.5919602,15.5983563 40.1919296,16.0814351 40.5453598,16.5226195 C39.1781882,16.9908715 37.7696393,17.3008557 36.6421106,17.8318631 C33.8250129,15.8476539 30.863095,14.0284364 27.4770608,13.4824297 C23.8358672,12.8952183 19.9515826,14.1241211 17.5051556,17.0398345 C14.8656351,20.1869154 14.1363619,24.6987542 15.0587287,28.7604436 C15.6518019,31.3710001 16.7707103,33.84846 18.06892,36.2054087 C17.5896341,36.8421004 16.4276244,38.4733965 15.7673132,39.2243927 C15.3949184,38.6954542 15.0449363,38.0430736 14.7052984,37.4068992 C12.7450536,33.7412241 11.1968567,29.7760815 11.1296187,25.657326 C11.0416922,20.1527792 13.6312153,14.547203 18.3602844,11.7302777 C20.4756938,10.4701696 22.9479815,9.81761665 25.3995806,9.79244552 C25.4564742,9.79210071 25.5150919,9.7919283 25.5719856,9.7919283 Z" id="Path" fill="#3A3C3B"></path>
        <path d="M52.459865,61.488814 C52.5961154,56.1682233 53.217003,50.3055913 57.6201312,46.6673286 C58.765324,45.722032 60.0691881,44.9322447 61.4765334,44.44158 C62.450982,44.1012526 63.4823454,43.9024696 64.5188828,43.9214342 C70.9985353,44.040566 74.8480387,49.8545798 74.984289,55.8815138 C75.034305,58.1286406 74.6755699,60.4957612 73.6476559,62.5201408 C72.2748043,65.2248304 69.6084368,67.3798929 67.1559306,69.0522214 C65.8710381,69.9280388 64.584421,70.8986789 63.1270597,71.4710635 C62.390618,71.7607039 61.5489703,72.072757 60.7521645,72.0158633 C52.3425863,71.4158939 52.459865,61.488814 52.459865,61.488814 Z" id="Path" fill="#4B4B4B" transform="translate(63.724321, 57.971412) scale(-1, 1) translate(-63.724321, -57.971412) "></path>
        <ellipse id="Oval" fill="#2A2A2A" transform="translate(63.847472, 59.735567) scale(-1, 1) translate(-63.847472, -59.735567) " cx="63.8474722" cy="59.7355674" rx="4.07008373" ry="6.93556857"></ellipse>
        <ellipse id="Oval" fill="#EBEBEB" transform="translate(63.826771, 55.194281) scale(-1, 1) translate(-63.826771, -55.194281) " cx="63.8267707" cy="55.1942808" rx="1.59059235" ry="1.3434782"></ellipse>
        <path d="M59.8443755,83.5009276 L40.1126233,83.5009276 C41.8435695,87.2869414 45.7433706,90.2247226 49.9241918,90.2074821 L50.0172905,90.2074821 C54.205008,90.2247226 58.1099812,87.2869414 59.8443755,83.5009276 Z" id="Path" fill="#CDCCCC"></path>
        <path d="M58.3034817,83.7625872 L41.4266575,83.7625872 C42.9071583,86.8181465 46.2427088,89.1891269 49.8186196,89.1752127 L49.8982481,89.1752127 C53.4800573,89.1891269 56.8200317,86.8181465 58.3034817,83.7625872 Z" id="Path" fill="#F0EFEF"></path>
        <path d="M50.00005,66.3838305 C44.4658495,66.4106812 39.7643652,69.5289425 35.9559387,73.1269362 C34.1094812,74.8704416 32.9974689,77.7900077 33.9439724,80.3461943 C35.0559846,83.3445224 38.1092772,84.864272 40.8712053,85.0540169 C44.7020444,85.3189438 49.8121286,83.9209174 49.8121286,83.9209174 L49.8448855,83.9209174 C49.8448855,83.9209174 54.9584178,85.3189438 58.792705,85.0540169 C61.5563572,84.864272 64.6130978,83.3445224 65.7251101,80.3461943 C66.6733376,77.7900077 65.5596013,74.8704416 63.7114197,73.1269362 C59.8995451,69.5289425 55.1946127,66.4106812 49.656964,66.3838305" id="Path" fill="#CDCCCC"></path>
        <path d="M49.9527406,68.3807129 C44.8318397,68.4025588 40.4814669,70.9395984 36.9574576,73.8669517 C35.2488953,75.2854801 34.2199292,77.6608599 35.0957469,79.7405915 C36.1247129,82.1800526 38.9499825,83.4165317 41.5056471,83.5709095 C45.0503953,83.7864559 49.7788533,82.6490117 49.7788533,82.6490117 L49.8091639,82.6490117 C49.8091639,82.6490117 54.5408125,83.7864559 58.0887513,83.5709095 C60.6460112,83.4165317 63.4744714,82.1800526 64.5034374,79.7405915 C65.3808503,77.6608599 64.350289,75.2854801 62.6401314,73.8669517 C59.1129315,70.9395984 54.7593681,68.4025588 49.6352766,68.3807129" id="Path" fill="#F0EFEF"></path>
        <path d="M50.2638297,70.2878084 C51.9240898,70.2809122 56.1083592,70.1205755 57.5565612,72.2566735 C58.4927203,73.6376375 57.7634472,75.2651407 56.8979741,76.4702517 C56.2204224,77.4150311 55.4239113,78.2822282 54.6618812,79.1597697 C53.8567499,80.0890326 53.0723071,81.1941487 51.9137455,81.7165358 C51.4310115,81.9354902 50.8051814,82.0716901 50.2690018,82.0716901 C49.7328223,82.0716901 49.1811263,81.9354902 48.6966682,81.7165358 C47.5381066,81.1941487 46.7519398,80.0890326 45.9450844,79.1597697 C45.1830543,78.2822282 44.3865432,77.4150311 43.7072675,76.4702517 C42.8400704,75.2651407 42.1107972,73.6376375 43.0469564,72.2566735 C44.4968824,70.1205755 48.6277062,70.2929805 50.2638297,70.2878084 Z" id="Path" fill="#4B4B4B"></path>
    </g>
</svg>