<?xml version="1.0" encoding="UTF-8"?>
<svg width="100px" height="100px" viewBox="0 0 100 100" version="1.1" xmlns="http://www.w3.org/2000/svg" xmlns:xlink="http://www.w3.org/1999/xlink">
    <!-- Generator: Sketch 52.6 (67491) - http://www.bohemiancoding.com/sketch -->
    <title>Party Popper (1F389)</title>
    <desc>Created with Sketch.</desc>
    <g id="Party-Popper-(1F389)" stroke="none" stroke-width="1" fill="none" fill-rule="evenodd">
        <path d="M53.5527565,45.2355344 C66.2319802,56.6232549 69.607121,61.4463412 70.6989154,64.0317091 C71.7907097,66.617077 73.3945944,67.8866577 53.5527565,77.1774797 C33.7109187,86.4683018 25.4531849,91.3650986 22.2110545,92.9328217 C18.9689242,94.5005448 17.8372267,95.2123461 14.5064227,92.9328217 C11.1756186,90.6532973 10.6291673,86.3142799 12.567795,82.7090669 C14.5064227,79.1038539 27.4195231,40.1143057 28.8139163,37.3892179 C30.2083094,34.6641301 31.9751319,30.6628607 39.3472376,34.6641301 C46.7193433,38.6653995 40.8735328,33.8478139 53.5527565,45.2355344 Z" id="Path-13" fill="#FBCE49"></path>
        <path d="M63.1733109,72.3717113 C60.7258389,73.6773713 57.574309,75.2368692 53.5332239,77.1290832 C53.4268964,77.1788704 53.3209016,77.2285314 53.2152384,77.2780664 L18.026847,67.9262582 C18.8045774,65.7008383 19.6161131,63.3624171 20.4301523,61.0107026 L63.1733109,72.3717113 Z" id="Combined-Shape" fill="#A453D5"></path>
        <path d="M25.4859912,46.4860126 L39.1168796,49.7351405 C41.2695991,52.0371462 43.8104453,54.3972377 46.6491736,56.6788556 C48.5238896,58.185652 50.405323,59.5592015 52.2493071,60.7824465 L23.0834427,53.4017694 C24.1975275,50.1849712 24.998377,47.8797189 25.4859912,46.4860126 Z" id="Combined-Shape" fill="#A453D5"></path>
        <ellipse id="Oval-6" fill="#976F13" transform="translate(50.781614, 50.039571) rotate(39.000000) translate(-50.781614, -50.039571) " cx="50.7816142" cy="50.0395711" rx="25.1690284" ry="7.99100128"></ellipse>
        <path d="M42.1769936,82.6447065 C38.2956841,84.540272 35.0456067,86.1800278 32.3278024,87.5800181 L12.6760563,82.413168 C13.2770702,80.9444955 14.2467634,78.6170297 15.3135337,75.637826 L42.1769936,82.6447065 Z" id="Combined-Shape" fill="#A453D5"></path>
        <path d="M71.0553299,25.5002691 C70.1518121,25.7780061 69.3431671,24.983547 68.4862294,23.6654007 C67.6292917,22.3472544 66.118177,19.9944797 66.7360489,18.9946942 C67.3539209,17.9949087 70.0648168,17.8414224 70.427183,17.6374539 C70.7895491,17.4334854 69.4856475,16.1714304 68.4862294,14.9884132 C67.4868113,13.805396 67.8378749,12.3742171 69.2822019,12.1350641 C70.7265289,11.895911 73.161854,12.3466414 72.7274202,11.5751771 C72.2929864,10.8037128 70.1060064,8.32136335 70.0472675,7.09670257 C69.9885285,5.87204179 71.6372393,4.74332981 74.0958113,5.05130222 C76.5543833,5.35927463 78.4842585,6.29070549 77.658344,6.80028676 C76.8324294,7.30986802 73.2499056,6.19774159 72.7274202,7.09670257 C72.2049348,7.99566354 74.185901,10.0289832 74.988381,10.858625 C75.790861,11.6882669 76.8256167,13.2281652 75.7662609,13.6580288 C74.7069051,14.0878924 71.5992216,13.8842638 71.3272758,14.0878924 C71.0553299,14.2915209 72.4503368,15.8214545 73.2499056,16.5219163 C74.0494743,17.2223781 75.5958666,18.6671548 73.4615712,19.2826297 C71.3272758,19.8981046 69.4020773,19.6428041 69.5250352,20.1816208 C69.647993,20.7204376 71.6591593,23.3409227 71.6372393,23.9735649 C71.6153192,24.6062072 71.9588478,25.222532 71.0553299,25.5002691 Z" id="Path-14" fill="#FF8626"></path>
        <path d="M41.6957885,28.1009257 C40.7922707,28.3786628 39.9836257,27.5842037 39.126688,26.2660574 C38.2697503,24.947911 36.7586356,22.5951364 37.3765075,21.5953509 C37.9943795,20.5955654 40.7052754,20.4420791 41.0676416,20.2381106 C41.4300077,20.0341421 40.1261061,18.7720871 39.126688,17.5890699 C38.1272699,16.4060527 38.4783335,14.9748738 39.9226605,14.7357208 C41.3669875,14.4965677 43.8023125,14.9472981 43.3678788,14.1758338 C42.933445,13.4043695 40.746465,10.92202 40.6877261,9.69735923 C40.6289871,8.47269845 42.2776979,7.34398647 44.7362699,7.65195888 C47.1948419,7.95993129 49.1247171,8.89136215 48.2988026,9.40094342 C47.472888,9.91052468 43.8903642,8.79839825 43.3678788,9.69735923 C42.8453934,10.5963202 44.8263596,12.6296399 45.6288396,13.4592817 C46.4313196,14.2889235 47.4660753,15.8288219 46.4067195,16.2586854 C45.3473637,16.688549 42.2396802,16.4849205 41.9677344,16.688549 C41.6957885,16.8921776 43.0907954,18.4221112 43.8903642,19.1225729 C44.6899329,19.8230347 46.2363252,21.2678115 44.1020298,21.8832864 C41.9677344,22.4987613 40.0425359,22.2434607 40.1654938,22.7822775 C40.2884516,23.3210942 42.2996179,25.9415794 42.2776979,26.5742216 C42.2557778,27.2068639 42.5993064,27.8231886 41.6957885,28.1009257 Z" id="Path-14" fill="#3BACE4" transform="translate(42.862364, 17.878398) scale(-1, 1) rotate(156.000000) translate(-42.862364, -17.878398) "></path>
        <path d="M83.1003744,61.2743432 C82.1968565,61.5520803 81.3882115,60.7576212 80.5312738,59.4394749 C79.6743361,58.1213285 78.1632214,55.7685539 78.7810933,54.7687684 C79.3989653,53.7689829 82.1098613,53.6154966 82.4722274,53.4115281 C82.8345935,53.2075596 81.5306919,51.9455046 80.5312738,50.7624874 C79.5318557,49.5794702 79.8829193,48.1482913 81.3272463,47.9091383 C82.7715733,47.6699852 85.2068984,48.1207156 84.7724646,47.3492513 C84.3380308,46.577787 82.1510508,44.0954375 82.0923119,42.8707767 C82.0335729,41.6461159 83.6822837,40.517404 86.1408557,40.8253764 C88.5994277,41.1333488 90.5293029,42.0647797 89.7033884,42.5743609 C88.8774738,43.0839422 85.29495,41.9718158 84.7724646,42.8707767 C84.2499792,43.7697377 86.2309454,45.8030574 87.0334254,46.6326992 C87.8359054,47.462341 88.8706612,49.0022394 87.8113053,49.4321029 C86.7519495,49.8619665 83.6442661,49.658338 83.3723202,49.8619665 C83.1003744,50.0655951 84.4953812,51.5955287 85.29495,52.2959904 C86.0945187,52.9964522 87.6409111,54.441229 85.5066156,55.0567039 C83.3723202,55.6721788 81.4471217,55.4168782 81.5700796,55.955695 C81.6930375,56.4945117 83.7042037,59.1149969 83.6822837,59.7476391 C83.6603636,60.3802814 84.0038922,60.9966061 83.1003744,61.2743432 Z" id="Path-14" fill="#EF4958" transform="translate(84.266949, 51.051815) scale(-1, 1) rotate(287.000000) translate(-84.266949, -51.051815) "></path>
        <path d="M44.5360774,48.1872185 C44.484795,42.466944 46.7107597,37.5128173 51.2139715,33.3248385 C57.9687891,27.0428703 58.6105071,26.0072768 58.7307969,22.2189828 C58.8510868,18.4306887 58.419747,16.0991943 56.6600561,13.1730408 C55.4869288,11.2222717 54.2220784,9.49107309 52.8655048,7.97944486 L56.6600561,5 C62.0499265,10.8856142 64.1323987,16.6252751 62.9074728,22.2189828 C61.0700839,30.6095443 54.995358,31.3305141 50.668537,35.741394 C47.7839896,38.6819806 45.7398364,42.8305888 44.5360774,48.1872185 Z" id="Path-15" fill="#3BABE4"></path>
        <path d="M45.7855887,53.0034739 C46.4680917,52.6593863 51.8127301,47.1432243 53.7427887,44.6408391 C54.5514698,43.592357 57.002854,39.0692551 59.3073182,36.4828806 C62.5028593,32.8964216 66.6045073,30.8803019 70.8385055,29.8758032 C75.6967358,28.7232081 82.6329008,29.3773125 91.6470006,31.8381166 L89.481525,35.2948773 C79.6389675,33.6570558 72.7131159,33.4455293 68.7039703,34.6602976 C65.16229,35.7334243 60.3877451,38.5941101 57.0707393,42.9531125 C52.2961064,49.2276378 45.2888645,53.2539001 45.7855887,53.0034739 Z" id="Path-16" fill="#FF8726"></path>
        <path d="M56.8598225,54.5376201 C57.7478511,54.5376201 65.911579,55.369617 69.5024124,49.9144723 C73.0932458,44.4593276 73.9631719,36.0585046 78.8981165,30.258982 C82.1880795,26.3926336 84.7153907,24.4594595 86.4800499,24.4594595 L87.6109537,29.0501659 C84.0692317,29.5189856 80.9348161,32.353864 78.207707,37.5548013 C74.1170432,45.3562073 72.4299901,50.5722839 68.0220296,53.0922313 C63.6140691,55.6121788 55.971794,54.5376201 56.8598225,54.5376201 Z" id="Path-17" fill="#3BABE4"></path>
        <polygon id="Path-18" fill="#3BABE4" points="62.915493 78.9245023 66.9133131 83.2804259 71.4929577 81.1024641 67.2042254 75.5405405"></polygon>
        <polygon id="Path-18-Copy-3" fill="#3BABE4" points="35.9577465 39.9648095 39.194472 42.7027027 42.9022558 41.3337561 39.4300011 37.8378378"></polygon>
        <polygon id="Path-18-Copy-2" fill="#3BABE4" transform="translate(82.000164, 16.758820) rotate(-123.000000) translate(-82.000164, -16.758820) " points="77.7114321 16.2728386 81.7092522 20.6287622 86.2888968 18.4508004 82.0001645 12.8888768"></polygon>
        <polygon id="Path-18-Copy" fill="#3BABE4" points="9 26.627205 12.9978202 30.9831286 17.5774648 28.8051668 13.2887324 23.2432432"></polygon>
        <polygon id="Path-19" fill="#C38CF2" points="78.8450704 85.9162669 82.1184869 90.5777232 87.4225352 88.246995 84.4654424 82.8378378"></polygon>
        <polygon id="Path-20" fill="#EF4958" points="76.3943662 76.5111565 78.4638399 70.6756757 83.3388755 72.3256656 81.361103 78.4155611"></polygon>
        <polygon id="Path-20-Copy" fill="#EF4958" points="23.7042254 26.6462917 25.773699 20.8108108 30.6487346 22.4608007 28.6709622 28.5506962"></polygon>
        <polygon id="Path-21" fill="#FF8726" points="83.7464789 65.1161093 86.0874666 69.9020475 90.6909882 67.5090784 88.5411751 62.1621622"></polygon>
        <polygon id="Path-21-Copy" fill="#FF8726" points="17.5774648 37.1431363 19.9184525 41.9290746 24.5219741 39.5361055 22.372161 34.1891892"></polygon>
    </g>
</svg>