<?xml version="1.0" encoding="UTF-8"?>
<svg width="100px" height="100px" viewBox="0 0 100 100" version="1.1" xmlns="http://www.w3.org/2000/svg" xmlns:xlink="http://www.w3.org/1999/xlink">
    <!-- Generator: Sketch 52.6 (67491) - http://www.bohemiancoding.com/sketch -->
    <title>Red Heart (2764)</title>
    <desc>Created with Sketch.</desc>
    <g id="Red-Heart-(2764)" stroke="none" stroke-width="1" fill="none" fill-rule="evenodd">
        <path d="M51.7581571,87.9259475 C54.4819516,86.1064397 57.5288954,83.9217674 60.8205125,81.3740726 C70.2420557,74.0818462 79.7091282,65.3599276 88.5972137,55.2285918 C93.4450537,49.708497 96.2659432,43.1242281 96.2659432,36.4618615 C96.2659432,21.8502284 85.4462171,10 72.0920373,10 C65.3366111,10 59.0351977,13.0504659 54.4905838,18.338853 L50.1329716,23.1225304 L47.6173545,20.3623271 L45.7762878,18.339933 C41.2271121,13.05026 34.9252383,10 28.1700602,10 C14.816766,10 4,21.8492562 4,36.4618615 C4,43.2308425 6.95355953,50.3825068 11.6804449,55.8344892 C20.5571728,66.0706538 29.9958203,74.6935429 39.3770369,81.7455187 C42.6525784,84.2077835 45.6824666,86.2953596 48.3888788,88.0140105 C49.0173047,88.4130793 49.5723211,88.7574224 50.0492449,89.0474015 C50.5384936,88.7329008 51.1098165,88.3590422 51.7581571,87.9259475 Z" id="Path" fill="#E30613"></path>
        <path d="M20,27.8103899 C20,22.9445634 23.9562771,19 28.836553,19 C33.716829,19 37.6731061,22.9445634 37.6731061,27.8103899 C37.6731061,32.6762164 33.716829,36.6207798 28.836553,36.6207798 C23.9562771,36.6207798 20,32.6762164 20,27.8103899" id="Shape" fill="#F9C5AF"></path>
    </g>
</svg>