<?xml version="1.0" encoding="UTF-8"?>
<svg width="100px" height="100px" viewBox="0 0 100 100" version="1.1" xmlns="http://www.w3.org/2000/svg" xmlns:xlink="http://www.w3.org/1999/xlink">
    <!-- Generator: Sketch 52.6 (67491) - http://www.bohemiancoding.com/sketch -->
    <title>See-No-Evil Monkey (1F648)</title>
    <desc>Created with Sketch.</desc>
    <g id="See-No-Evil-Monkey-(1F648)" stroke="none" stroke-width="1" fill="none" fill-rule="evenodd">
        <path d="M50.0443072,88.2452868 C49.7788158,88.2607233 49.5072036,88.2687388 49.2288354,88.2687388 C48.3576099,88.2687388 47.5113844,88.0443544 46.6985627,87.6162738 C42.7685991,86.3580026 39.8337822,83.6407186 34.3959556,82.7390091 C27.9076916,81.6631143 13.0057925,75.4282936 12.001104,62.2061602 C11.6007642,56.9375164 11.7353595,53.1296073 12.4048899,50.7824329 C8.82603597,46.1413161 6.76871376,41.8703883 6.2329233,37.9696492 C5.42923763,32.1185407 6.55380032,24.6044536 12.001104,21.4503886 C15.6326398,19.3476785 19.4210961,18.6321579 23.3664731,19.3038268 C31.7766186,9.76794225 40.5994014,5 49.8348215,5 C49.9050241,5 49.974852,5.00098219 50.0443072,5.00293872 C50.1137624,5.00098219 50.1835903,5 50.253793,5 C59.489213,5 68.3119958,9.76794225 76.7221414,19.3038268 C80.6675183,18.6321579 84.4559747,19.3476785 88.0875104,21.4503886 C93.5348141,24.6044536 94.6593768,32.1185407 93.8556911,37.9696492 C93.3199007,41.8703883 91.2625785,46.1413161 87.6837245,50.7824329 C88.3532549,53.1296073 88.4878502,56.9375164 88.0875104,62.2061602 C87.0828219,75.4282936 72.1809228,81.6631143 65.6926589,82.7390091 C60.2548322,83.6407186 57.3200153,86.3580026 53.3900517,87.6162738 C52.57723,88.0443544 51.7310045,88.2687388 50.859779,88.2687388 C50.5814108,88.2687388 50.3097986,88.2607233 50.0443072,88.2452868 Z" id="Combined-Shape" fill="#B08651"></path>
        <path d="M66.0334332,34.6970322 C76.4232298,36.5488777 78.7235912,42.5150452 78.7235912,50.1392231 C78.7235912,55.2220084 74.3642941,60.1565172 65.6456998,64.9427495 C66.1633605,68.8129131 66.4221909,72.080494 66.4221909,74.7454924 C66.4221909,78.7429899 66.3954348,81.1521935 64.5878468,82.2951003 C64.4736412,82.3673106 56.0354401,88.4054436 50.1067884,88.4168614 C43.9049735,88.4288053 34.9202797,82.3673106 34.8060741,82.2951003 C32.9984861,81.1521935 32.97173,78.7429899 32.97173,74.7454924 C32.97173,72.080494 33.2305604,68.8129131 33.7482211,64.9427495 C25.0296268,60.1565172 20.6703297,55.2220084 20.6703297,50.1392231 C20.6703297,42.5150452 22.9706911,36.5488777 33.3604877,34.6970322 C39.9440142,33.5236047 45.3895051,35.3074536 49.6969605,40.0485789 C54.0044158,35.3074536 59.4499067,33.5236047 66.0334332,34.6970322 Z" id="Combined-Shape" fill="#DEC6A4"></path>
        <path d="M26.5103057,64.4096001 C21.4037038,62.5031366 14.0345523,56.3057421 16.153458,47.498339 C17.9016461,40.2318536 19.1622889,38.8824278 20.3812971,36.8552256 C21.1939692,35.5037575 22.6237297,34.8280234 24.6705786,34.8280234 C26.7657843,31.3423745 28.2021842,29.1861144 28.9797785,28.359243 C30.1461699,27.118936 32.1330178,23.8612356 35.3275954,24.859785 C36.2862732,25.159445 36.7656121,25.7310821 36.7656121,26.5746964 C38.3002575,24.7221316 40.0648715,24.1504945 42.059454,24.859785 C44.0540365,25.5690754 44.8961133,27.0210471 44.5856843,29.2156999 C45.8951165,29.1751744 46.9615505,29.3997767 47.7849863,29.8895068 C49.02014,30.6241019 49.4044671,32.8250333 46.0722056,43.1804268 C44.5972511,47.7640211 42.8176218,55.1267272 39.4872871,59.1765632 C37.6084663,61.4612934 35.3797162,62.9624824 33.2357465,63.8280672 C31.4340301,65.1521044 30.9276044,65.5846733 30.1315309,68.0670834 C29.7380951,69.2939411 29.2077954,72.8693603 28.9797785,74.9417394 C28.8621612,76.0107288 28.6797068,80.135027 28.3560707,80.961902 C27.987008,80.6751104 27.9024345,80.7205185 27.5164835,80.5555468 C27.5164835,80.5555468 27.5164835,75.2603145 27.5164835,64.6698498 C27.1500619,64.6099151 26.8127362,64.5225074 26.5103057,64.4096001 Z" id="Combined-Shape" fill="#987A63"></path>
        <path d="M9.42188852,94.1747615 C10.7235776,87.1463965 12.1317773,80.7509658 13.6464875,74.9884693 C15.9185527,66.3447246 16.659847,65.6710919 16.6824328,62.8888923 C16.6974901,61.0340925 16.0024526,58.4709699 14.5973204,55.1995244 L17.231088,57.9498002 C17.449221,56.575527 17.6506453,55.6587684 17.8353611,55.1995244 C18.0200768,54.7402803 18.4558166,53.989178 19.1425803,52.9462175 L20.5828106,56.2498057 C21.1799185,55.4095203 21.7733928,54.6751072 22.3632336,54.0465662 C22.9530744,53.4180252 23.6426474,52.8843872 24.4319526,52.4456522 C24.6848687,53.4380199 24.7830865,54.2539751 24.7266057,54.893518 C24.6701249,55.5330609 24.5719072,56.2061355 24.4319526,56.9127418 L26.2268646,55.495511 L26.2268646,57.9498002 C26.9440098,57.7003854 27.6071241,57.3546993 28.2162076,56.9127418 C28.825291,56.4707844 29.4104548,55.9983741 29.9716989,55.495511 C30.2777106,56.444017 30.439135,57.2621134 30.4559724,57.9498002 C30.4728097,58.6374871 30.4728097,59.4037063 30.4559724,60.2484577 L34.3170644,59.3974878 C33.6339575,60.3694357 32.6403042,61.7705387 31.3361046,63.6007969 C29.379805,66.3461841 29.2832578,66.9220224 28.7497327,69.2216542 C28.2162076,71.5212861 27.7340503,78.46808 27.3335951,82.4951691 C27.0666249,85.1798952 26.5252509,89.0730926 25.7094728,94.1747615 L9.42188852,94.1747615 Z" id="Path-5" fill="#C19259"></path>
        <path d="M23.0065213,34.3791671 C22.8127566,34.754356 22.6447713,35.0877689 22.5025652,35.3794059 C21.7548776,36.912767 20.7244772,39.4394458 19.4113641,42.9594424 L19.4113504,42.9594373 C19.404272,42.9784119 19.39831,42.9977847 19.393495,43.0174562 C19.3253438,43.2958844 19.4957519,43.5768561 19.7741121,43.6450239 L19.8911759,43.6736918 C20.1427051,43.7352889 20.3986348,43.5900754 20.4748395,43.3425233 L20.4748274,43.3425196 C21.3957494,40.3508913 22.3053961,37.933885 23.2037675,36.0915008 C24.1033949,34.2465407 25.6324604,31.4443661 27.7909627,27.6849761 C28.9795413,26.3213944 30.9200342,23.4629282 33.9394349,24.4067214 C34.4479561,24.5656731 34.8216073,24.8011501 35.0603884,25.1131524 C32.9438433,28.4494838 31.4997302,30.8138942 30.7280491,32.2063838 C29.9011559,33.698503 28.7399638,36.1677789 27.2444729,39.6142116 L27.2444594,39.6142058 C27.2363979,39.6327839 27.2294305,39.651818 27.2235928,39.6712105 C27.1409667,39.9456895 27.2964399,40.2351967 27.5708519,40.317843 L27.6862553,40.3525997 C27.9342168,40.4272797 28.1973938,40.2956627 28.2864468,40.0524391 L28.2864349,40.0524348 C29.3626263,37.1131155 30.3974918,34.7470405 31.3910315,32.9542098 C32.3234505,31.2716704 33.8519306,28.7785102 35.9764704,25.4747285 C37.3664138,24.1439868 38.9313548,23.7879844 40.6712936,24.4067214 C42.4498462,25.0391899 43.3120253,26.2621745 43.2578309,28.0756753 C42.4678857,29.1192742 41.9061109,29.8892106 41.5725066,30.3854846 C40.2801436,32.3080203 39.3950954,34.0009161 38.8134507,34.9691719 C37.9349997,36.431517 36.6883596,38.8587538 35.0735302,42.2508824 L35.073517,42.2508761 C35.0648122,42.2691614 35.0571849,42.2879407 35.0506741,42.3071177 C34.9585215,42.5785452 35.1037989,42.8733033 35.3751601,42.9654783 L35.4892805,43.0042424 C35.7344852,43.0875327 36.0020942,42.9651829 36.0995792,42.7252162 L36.0995675,42.7252114 C37.277659,39.8252504 38.3944488,37.4967419 39.4499368,35.7396858 C40.1184713,34.6267857 40.9348079,32.9550701 42.1717903,31.1230985 C42.5164873,30.612602 43.099456,29.827703 43.9207006,28.768405 C44.9051709,28.8175007 45.730546,29.0401801 46.3968259,29.4364433 C47.6319795,30.1710384 48.0163066,32.3719697 44.6840452,42.7273633 C43.2090906,47.3109576 41.4294614,54.6736637 38.0991267,58.7234997 C33.9054695,63.8231746 27.9684187,65.0191447 25.1221453,63.9565366 C20.0155434,62.0500731 12.6463919,55.8526786 14.7652976,47.0452754 C16.5134857,39.77879 17.7741285,38.4293643 18.9931367,36.4021621 C19.7687866,35.1122615 21.1065815,34.4379298 23.0065213,34.3791671 Z" id="Combined-Shape" fill="#F5CFA0"></path>
        <path d="M61.0952567,64.4096001 C55.9886548,62.5031366 48.6195033,56.3057421 50.738409,47.498339 C52.4865971,40.2318536 53.7472399,38.8824278 54.9662481,36.8552256 C55.7789202,35.5037575 57.2086807,34.8280234 59.2555297,34.8280234 C61.3507353,31.3423745 62.7871353,29.1861144 63.5647295,28.359243 C64.7311209,27.118936 66.7179688,23.8612356 69.9125464,24.859785 C70.8712242,25.159445 71.3505632,25.7310821 71.3505632,26.5746964 C72.8852086,24.7221316 74.6498225,24.1504945 76.644405,24.859785 C78.6389876,25.5690754 79.4810643,27.0210471 79.1706353,29.2156999 C80.4800675,29.1751744 81.5465015,29.3997767 82.3699373,29.8895068 C83.605091,30.6241019 83.9894181,32.8250333 80.6571566,43.1804268 C79.1822021,47.7640211 77.4025728,55.1267272 74.0722381,59.1765632 C72.1934173,61.4612934 69.9646673,62.9624824 67.8206975,63.8280672 C66.0189811,65.1521044 65.5125554,65.5846733 64.7164819,68.0670834 C64.3230462,69.2939411 63.7927464,72.8693603 63.5647295,74.9417394 C63.4471122,76.0107288 63.2646578,80.135027 62.9410217,80.961902 C62.571959,80.6751104 62.4873855,80.7205185 62.1014345,80.5555468 C62.1014345,80.5555468 62.1014345,75.2603145 62.1014345,64.6698498 C61.7350129,64.6099151 61.3976872,64.5225074 61.0952567,64.4096001 Z" id="Combined-Shape" fill="#987A63" transform="translate(66.814454, 52.763560) scale(-1, 1) translate(-66.814454, -52.763560) "></path>
        <path d="M64.7268917,94.1747615 C66.0285808,87.1463965 67.4367804,80.7509658 68.9514906,74.9884693 C71.2235559,66.3447246 71.9648501,65.6710919 71.987436,62.8888923 C72.0024932,61.0340925 71.3074557,58.4709699 69.9023235,55.1995244 L72.5360911,57.9498002 C72.7542241,56.575527 72.9556485,55.6587684 73.1403642,55.1995244 C73.32508,54.7402803 73.7608197,53.989178 74.4475834,52.9462175 L75.8878137,56.2498057 C76.4849216,55.4095203 77.0783959,54.6751072 77.6682367,54.0465662 C78.2580775,53.4180252 78.9476505,52.8843872 79.7369557,52.4456522 C79.9898719,53.4380199 80.0880896,54.2539751 80.0316088,54.893518 C79.9751281,55.5330609 79.8769104,56.2061355 79.7369557,56.9127418 L81.5318677,55.495511 L81.5318677,57.9498002 C82.2490129,57.7003854 82.9121273,57.3546993 83.5212107,56.9127418 C84.1302942,56.4707844 84.715458,55.9983741 85.276702,55.495511 C85.5827137,56.444017 85.7441382,57.2621134 85.7609755,57.9498002 C85.7778128,58.6374871 85.7778128,59.4037063 85.7609755,60.2484577 L89.6220675,59.3974878 C88.9389607,60.3694357 87.9453074,61.7705387 86.6411077,63.6007969 C84.6848082,66.3461841 84.588261,66.9220224 84.0547359,69.2216542 C83.5212107,71.5212861 83.0390534,78.46808 82.6385982,82.4951691 C82.3716281,85.1798952 81.830254,89.0730926 81.014476,94.1747615 L64.7268917,94.1747615 Z" id="Path-5" fill="#C19259" transform="translate(77.174480, 73.310207) scale(-1, 1) translate(-77.174480, -73.310207) "></path>
        <path d="M60.3677932,34.3791671 C60.1740285,34.754356 60.0060431,35.0877689 59.863837,35.3794059 C59.1161494,36.912767 58.0857491,39.4394458 56.772636,42.9594424 L56.7726222,42.9594373 C56.7655438,42.9784119 56.7595818,42.9977847 56.7547668,43.0174562 C56.6866156,43.2958844 56.8570237,43.5768561 57.1353839,43.6450239 L57.2524478,43.6736918 C57.5039769,43.7352889 57.7599066,43.5900754 57.8361113,43.3425233 L57.8360992,43.3425196 C58.7570213,40.3508913 59.666668,37.933885 60.5650394,36.0915008 C61.4646668,34.2465407 62.9937323,31.4443661 65.1522346,27.6849761 C66.3408132,26.3213944 68.281306,23.4629282 71.3007068,24.4067214 C71.809228,24.5656731 72.1828791,24.8011501 72.4216603,25.1131524 C70.3051151,28.4494838 68.861002,30.8138942 68.089321,32.2063838 C67.2624278,33.698503 66.1012357,36.1677789 64.6057447,39.6142116 L64.6057313,39.6142058 C64.5976698,39.6327839 64.5907023,39.651818 64.5848646,39.6712105 C64.5022386,39.9456895 64.6577118,40.2351967 64.9321238,40.317843 L65.0475272,40.3525997 C65.2954887,40.4272797 65.5586657,40.2956627 65.6477187,40.0524391 L65.6477068,40.0524348 C66.7238982,37.1131155 67.7587637,34.7470405 68.7523033,32.9542098 C69.6847224,31.2716704 71.2132024,28.7785102 73.3377423,25.4747285 C74.7276856,24.1439868 76.2926267,23.7879844 78.0325655,24.4067214 C79.8111181,25.0391899 80.6732972,26.2621745 80.6191028,28.0756753 C79.8291576,29.1192742 79.2673828,29.8892106 78.9337785,30.3854846 C77.6414155,32.3080203 76.7563672,34.0009161 76.1747226,34.9691719 C75.2962716,36.431517 74.0496314,38.8587538 72.4348021,42.2508824 L72.4347888,42.2508761 C72.426084,42.2691614 72.4184567,42.2879407 72.4119459,42.3071177 C72.3197934,42.5785452 72.4650707,42.8733033 72.7364319,42.9654783 L72.8505523,43.0042424 C73.0957571,43.0875327 73.363366,42.9651829 73.4608511,42.7252162 L73.4608393,42.7252114 C74.6389309,39.8252504 75.7557207,37.4967419 76.8112086,35.7396858 C77.4797432,34.6267857 78.2960797,32.9550701 79.5330621,31.1230985 C79.8777592,30.612602 80.4607278,29.827703 81.2819725,28.768405 C82.2664427,28.8175007 83.0918178,29.0401801 83.7580977,29.4364433 C84.9932514,30.1710384 85.3775785,32.3719697 82.045317,42.7273633 C80.5703625,47.3109576 78.7907332,54.6736637 75.4603986,58.7234997 C71.2667413,63.8231746 65.3296906,65.0191447 62.4834172,63.9565366 C57.3768153,62.0500731 50.0076637,55.8526786 52.1265694,47.0452754 C53.8747575,39.77879 55.1354004,38.4293643 56.3544085,36.4021621 C57.1300585,35.1122615 58.4678534,34.4379298 60.3677932,34.3791671 Z" id="Combined-Shape" fill="#F5CFA0" transform="translate(68.202614, 44.212291) scale(-1, 1) translate(-68.202614, -44.212291) "></path>
        <path d="M13.2322184,45.5862079 C10.6882873,41.4247102 9.69882883,37.0124196 10.2638429,32.3493363 C10.8288569,27.6862529 14.0868942,24.8174484 20.0379547,23.7429228 C18.3864723,26.1037219 17.4196354,28.3851682 17.137444,30.5872616 C16.8552526,32.789355 16.8552526,34.7026631 17.137444,36.3271859 C16.0281314,38.4560306 15.3402785,39.9267941 15.0738853,40.7394764 C14.8074921,41.5521588 14.1936031,43.1677359 13.2322184,45.5862079 Z" id="Path-7" fill="#DEC6A4"></path>
        <path d="M10.0661149,32.19337 C10.6311289,27.5302866 14.1820186,24.7816614 20.133079,23.7071358 C19.457578,24.6727666 18.8226503,25.6193037 18.376236,26.5583826 C15.8770453,27.5816235 13.7747001,28.6795581 12.5069652,30.0809092 C11.251651,31.4685306 10.4124438,33.5961599 9.98934356,36.4637972 C9.86511672,35.0644924 9.89070716,33.6410167 10.0661149,32.19337 Z" id="Combined-Shape" fill="#84603C"></path>
        <path d="M83.4520728,45.4302416 C80.9081417,41.2687438 79.9186832,36.8564533 80.4836973,32.19337 C81.0487113,27.5302866 84.3067486,24.6614821 90.2578091,23.5869565 C88.6063267,25.9477556 87.6394898,28.2292019 87.3572984,30.4312953 C87.075107,32.6333887 87.075107,34.5466968 87.3572984,36.1712196 C86.2479858,38.3000643 85.5601329,39.7708278 85.2937397,40.5835101 C85.0273465,41.3961925 84.4134575,43.0117696 83.4520728,45.4302416 Z" id="Path-7" fill="#DEC6A4" transform="translate(85.293740, 34.508599) scale(-1, 1) translate(-85.293740, -34.508599) "></path>
        <path d="M80.4836973,32.0731907 C81.0487113,27.4101073 84.599601,24.6614821 90.5506615,23.5869565 C89.8751604,24.5525873 89.2402328,25.4991244 88.7938184,26.4382033 C86.2946278,27.4614443 84.1922825,28.5593788 82.9245476,29.9607299 C81.6692334,31.3483513 80.8300262,33.4759806 80.406926,36.3436179 C80.2826991,34.9443131 80.3082896,33.5208374 80.4836973,32.0731907 Z" id="Combined-Shape" fill="#84603C" transform="translate(85.440166, 29.965287) scale(-1, 1) translate(-85.440166, -29.965287) "></path>
        <path d="M44.7982765,63.2838352 C46.5785811,64.1026034 48.5424948,63.7978409 48.7114802,63.6753415 C48.8804656,63.5528421 48.1606528,62.2396982 46.3722239,61.3665742 C44.583795,60.4934503 43.3943977,60.7316407 43.2375085,61.0491074 C43.0806192,61.3665742 43.0179719,62.4650671 44.7982765,63.2838352 Z" id="Path-8" fill="#190706"></path>
        <path d="M52.6224523,63.2838352 C54.4027569,64.1026034 56.3666706,63.7978409 56.535656,63.6753415 C56.7046415,63.5528421 55.9848286,62.2396982 54.1963997,61.3665742 C52.4079708,60.4934503 51.2185735,60.7316407 51.0616843,61.0491074 C50.9047951,61.3665742 50.8421477,62.4650671 52.6224523,63.2838352 Z" id="Path-8" fill="#190706" transform="translate(53.774306, 62.297100) scale(-1, 1) translate(-53.774306, -62.297100) "></path>
        <path d="M48.2262137,78.3568662 C43.2813867,77.2013346 39.4981773,72.9897673 39.3078443,72.3380838 C39.0868678,71.5814796 39.4963983,70.3440868 41.1612767,70.5707847 C42.2510638,70.7191754 45.334419,70.7947165 50.4113423,70.797408 C55.4882656,70.7947165 58.5716208,70.7191754 59.6614079,70.5707847 C61.3262863,70.3440868 61.7358167,71.5814796 61.5148403,72.3380838 C61.3245073,72.9897673 57.5412978,77.2013346 52.5964709,78.3568662 C52.1142868,78.5521096 51.4803777,78.6497314 50.6947436,78.6497314 C50.6000216,78.6497314 50.5055497,78.6483928 50.4113423,78.6457544 C50.3171348,78.6483928 50.222663,78.6497314 50.127941,78.6497314 C49.3423069,78.6497314 48.7083978,78.5521096 48.2262137,78.3568662 Z" id="Combined-Shape" fill="#190706"></path>
    </g>
</svg>