<?xml version="1.0" encoding="UTF-8"?>
<svg width="100px" height="100px" viewBox="0 0 100 100" version="1.1" xmlns="http://www.w3.org/2000/svg" xmlns:xlink="http://www.w3.org/1999/xlink">
    <!-- Generator: Sketch 52.6 (67491) - http://www.bohemiancoding.com/sketch -->
    <title>Star-Struck (1F929)</title>
    <desc>Created with Sketch.</desc>
    <g id="Star-Struck-(1F929)" stroke="none" stroke-width="1" fill="none" fill-rule="evenodd">
        <path d="M50,7.02248889 L50,7 C74.4317333,7.74995556 94,27.1568889 94,50.9892444 C94,74.8206222 74.4317333,94.2285333 50,94.9775111 L50,95 C25.5682667,94.2500444 6,74.8431111 6,51.0107556 C6,27.1793778 25.5682667,7.77146667 50,7.02248889 Z" id="Path" fill="#FFCA39"></path>
        <ellipse id="Oval" fill="#FFDE5C" cx="49.5" cy="49" rx="40.5" ry="40"></ellipse>
        <path d="M51.128,63.7355789 C74.523,63.7355789 77.72,57.4122105 77.72,60.4084211 C77.72,70.2446316 65.814,81.872 51.128,81.872 C36.442,81.872 24.537,70.0930526 24.537,60.4084211 C24.537,57.4122105 27.734,63.7355789 51.128,63.7355789 Z" id="Path" fill="#7F4401"></path>
        <path d="M51.6543037,65.7978947 C29.4814556,65.7863158 25.580126,60.0847697 26.0384885,62.6990789 C26.4478656,65.0358553 27.0496851,67.1048684 28.0538838,68.1306908 C28.4702589,68.5529605 36.5143457,72.9866118 51.6543037,72.9866118 C66.7942617,72.9866118 73.7326802,68.5261842 74.0895731,68.1306908 C75.013296,67.1048684 75.5696291,65.0358553 75.9475157,62.6990789 C76.3708887,60.0847697 72.0916725,65.7863158 51.6543037,65.7978947 Z" id="Path" fill="#F5F6F6"></path>
        <path d="M23.128867,12.4349022 C23.5947984,11.2537287 24.7402132,10.4760946 26.0166711,10.4760946 C27.2931291,10.4760946 28.4385438,11.2537287 28.9044752,12.4349022 L33.9520656,25.2718977 L47.7892582,26.0828383 C49.0608627,26.1576572 50.1625963,27.0009388 50.555726,28.2076955 C50.9488556,29.4144523 50.5605794,30.7385058 49.5753286,31.5431712 L38.8589059,40.2878133 L42.358245,53.6258542 C42.6834263,54.8538499 42.2126415,56.1523201 41.1837096,56.8980958 C40.1499242,57.6438715 38.7618369,57.6849012 37.6892239,57.0004288 L26.0166711,49.568738 L14.3441183,57.0004288 C13.2666519,57.6849012 11.883418,57.6438715 10.8496326,56.8980958 C9.8158473,56.1523201 9.34991588,54.8538499 9.67024374,53.6258542 L13.1744363,40.2878133 L2.45801361,31.5431712 C1.47276279,30.7385058 1.0844866,29.4144523 1.47761624,28.2076955 C1.87074588,27.0009388 2.9676261,26.1576572 4.24408406,26.0828383 L18.0764231,25.2718977 L23.128867,12.4349022 Z" id="Path" fill="#AB7532" transform="translate(26.016671, 33.981523) rotate(-11.565630) translate(-26.016671, -33.981523) "></path>
        <path d="M22.7224119,12.1995918 C23.0795963,11.2502606 23.9913564,10.6206451 25.0112117,10.6206451 C26.0310671,10.6206451 26.9428272,11.2502606 27.3000116,12.1995918 L32.2958929,25.4944347 L46.5550688,26.113767 C47.5749242,26.1581719 48.4584855,26.8265833 48.7733717,27.7908719 C49.088258,28.7551606 48.7686719,29.8129333 47.9697069,30.443951 L36.8029956,39.2800693 L40.6145288,52.9572622 C40.8871169,53.9346386 40.5205329,54.9769865 39.6980689,55.5729477 C38.8709051,56.1689089 37.7617537,56.1932148 36.9110909,55.6337124 L25.0112117,47.7997438 L13.1113326,55.6337124 C12.2606698,56.1932148 11.1515183,56.1689089 10.3243545,55.5729477 C9.50189052,54.9769865 9.13530657,53.9346386 9.40789464,52.9572622 L13.2194278,39.2800693 L2.05271655,30.443951 C1.25375152,29.8129333 0.934165507,28.7551606 1.24905173,27.7908719 C1.56393794,26.8265833 2.44749927,26.1581719 3.46735464,26.113767 L17.7218308,25.4944347 L22.7224119,12.1995918 Z" id="Path" fill="#F4D43F" transform="translate(25.011212, 33.328931) rotate(-11.565681) translate(-25.011212, -33.328931) "></path>
        <path d="M22.4757889,14.1690579 C22.6198193,13.7736983 22.9984136,13.5105344 23.4222746,13.5105344 C23.8461357,13.5105344 24.2206148,13.7736983 24.3646452,14.1690579 L29.072383,27.0694054 C29.1053043,27.1606737 29.1670316,27.2400731 29.2452196,27.2973716 C29.3234075,27.3542608 29.4180561,27.3865935 29.5168198,27.3898677 L43.3067056,27.8548041 C43.7305666,27.8691287 44.0968155,28.1449801 44.2285004,28.5448417 C44.3601854,28.9451127 44.2243853,29.3834462 43.8910577,29.642108 C43.8910577,29.642108 38.6730406,34.2808307 34.524964,36.1958283 C31.7348886,37.4850445 28.06417,38.4325161 23.4716565,38.3351087 C18.9532159,38.2397476 14.7681028,36.9669024 11.5912028,35.3764598 C6.77647099,32.9674672 2.9534916,29.642108 2.9534916,29.642108 C2.62016402,29.3834462 2.48436389,28.9451127 2.61604886,28.5448417 C2.74773383,28.1449801 3.11398267,27.8691287 3.53784367,27.8548041 L17.3277295,27.3898677 C17.4264932,27.3865935 17.5211418,27.3542608 17.5993297,27.2973716 C17.6775177,27.2400731 17.739245,27.1606737 17.7721663,27.0694054 L22.4757889,14.1690579 Z" id="Path" fill="#FBFACA" transform="translate(23.422275, 25.926263) rotate(-11.565650) translate(-23.422275, -25.926263) "></path>
        <path d="M71.0955248,12.4349022 C71.5614562,11.2537287 72.7068709,10.4760946 73.9833289,10.4760946 C75.2597868,10.4760946 76.4052016,11.2537287 76.871133,12.4349022 L81.9187234,25.2718977 L95.7559159,26.0828383 C97.0275204,26.1576572 98.1292541,27.0009388 98.5223838,28.2076955 C98.9155134,29.4144523 98.5272372,30.7385058 97.5419864,31.5431712 L86.8255637,40.2878133 L90.3249028,53.6258542 C90.6500841,54.8538499 90.1792992,56.1523201 89.1503674,56.8980958 C88.116582,57.6438715 86.7284947,57.6849012 85.6558817,57.0004288 L73.9833289,49.568738 L62.3107761,57.0004288 C61.2333097,57.6849012 59.8500758,57.6438715 58.8162904,56.8980958 C57.7825051,56.1523201 57.3165737,54.8538499 57.6369015,53.6258542 L61.1410941,40.2878133 L50.4246714,31.5431712 C49.4394206,30.7385058 49.0511444,29.4144523 49.444274,28.2076955 C49.8374037,27.0009388 50.9342839,26.1576572 52.2107418,26.0828383 L66.0430809,25.2718977 L71.0955248,12.4349022 Z" id="Path" fill="#AB7532" transform="translate(73.983329, 33.981523) scale(-1, 1) rotate(-11.565630) translate(-73.983329, -33.981523) "></path>
        <path d="M72.6999884,12.1995918 C73.0571728,11.2502606 73.9689329,10.6206451 74.9887883,10.6206451 C76.0086436,10.6206451 76.9204037,11.2502606 77.2775881,12.1995918 L82.2734694,25.4944347 L96.5326454,26.113767 C97.5525007,26.1581719 98.4360621,26.8265833 98.7509483,27.7908719 C99.0658345,28.7551606 98.7462485,29.8129333 97.9472834,30.443951 L86.7805722,39.2800693 L90.5921054,52.9572622 C90.8646934,53.9346386 90.4981095,54.9769865 89.6756455,55.5729477 C88.8484817,56.1689089 87.7393302,56.1932148 86.8886674,55.6337124 L74.9887883,47.7997438 L63.0889091,55.6337124 C62.2382463,56.1932148 61.1290949,56.1689089 60.3019311,55.5729477 C59.4794671,54.9769865 59.1128831,53.9346386 59.3854712,52.9572622 L63.1970044,39.2800693 L52.0302931,30.443951 C51.2313281,29.8129333 50.911742,28.7551606 51.2266283,27.7908719 C51.5415145,26.8265833 52.4250758,26.1581719 53.4449312,26.113767 L67.6994073,25.4944347 L72.6999884,12.1995918 Z" id="Path" fill="#F4D43F" transform="translate(74.988788, 33.328931) scale(-1, 1) rotate(-11.565681) translate(-74.988788, -33.328931) "></path>
        <path d="M75.6312396,14.1690579 C75.77527,13.7736983 76.1538643,13.5105344 76.5777254,13.5105344 C77.0015864,13.5105344 77.3760655,13.7736983 77.5200959,14.1690579 L82.2278337,27.0694054 C82.260755,27.1606737 82.3224823,27.2400731 82.4006703,27.2973716 C82.4788582,27.3542608 82.5735068,27.3865935 82.6722705,27.3898677 L96.4621563,27.8548041 C96.8860173,27.8691287 97.2522662,28.1449801 97.3839511,28.5448417 C97.5156361,28.9451127 97.379836,29.3834462 97.0465084,29.642108 C97.0465084,29.642108 91.8284913,34.2808307 87.6804147,36.1958283 C84.8903393,37.4850445 81.2196207,38.4325161 76.6271072,38.3351087 C72.1086666,38.2397476 67.9235535,36.9669024 64.7466535,35.3764598 C59.9319217,32.9674672 56.1089423,29.642108 56.1089423,29.642108 C55.7756147,29.3834462 55.6398146,28.9451127 55.7714996,28.5448417 C55.9031845,28.1449801 56.2694334,27.8691287 56.6932944,27.8548041 L70.4831802,27.3898677 C70.5819439,27.3865935 70.6765925,27.3542608 70.7547804,27.2973716 C70.8329684,27.2400731 70.8946957,27.1606737 70.927617,27.0694054 L75.6312396,14.1690579 Z" id="Path" fill="#FBFACA" transform="translate(76.577725, 25.926263) scale(-1, 1) rotate(-11.565650) translate(-76.577725, -25.926263) "></path>
    </g>
</svg>