<?xml version="1.0" encoding="UTF-8"?>
<svg width="100px" height="100px" viewBox="0 0 100 100" version="1.1" xmlns="http://www.w3.org/2000/svg" xmlns:xlink="http://www.w3.org/1999/xlink">
    <!-- Generator: Sketch 52.6 (67491) - http://www.bohemiancoding.com/sketch -->
    <title>Crown (1F451)</title>
    <desc>Created with Sketch.</desc>
    <defs>
        <linearGradient x1="11.7380459%" y1="62.9107771%" x2="97.0726909%" y2="62.4480576%" id="linearGradient-1">
            <stop stop-color="#C09310" offset="0%"></stop>
            <stop stop-color="#F1C840" offset="39%"></stop>
            <stop stop-color="#9A6602" offset="79%"></stop>
            <stop stop-color="#BAA620" offset="100%"></stop>
        </linearGradient>
    </defs>
    <g id="Crown-(1F451)" stroke="none" stroke-width="1" fill="none" fill-rule="evenodd">
        <g id="Crown" transform="translate(7.000000, 13.000000)">
            <g id="Group" transform="translate(0.648043, 7.110528)" fill="url(#linearGradient-1)">
                <path d="M38.2369751,13.2061358 C36.7083289,11.8345178 35.7328503,9.77828036 35.7328503,7.48144471 C35.7328503,3.35647897 38.8734154,0.007137648 42.7396414,0.007137648 C46.6058674,0.007137648 49.7434585,3.35647897 49.7434585,7.48144471 C49.7434585,10.1669848 48.4140716,12.5235982 46.4185042,13.8413865 C49.7137183,23.1964638 56.0870432,37.2727979 64.6165325,37.3346575 C72.4828154,37.3920561 76.5929111,26.7123502 78.662829,20.8446088 C78.7133873,20.6973948 78.7639457,20.5498834 78.817478,20.4026694 C78.9513089,20.0193182 79.0791918,19.6362645 79.2070747,19.2523185 C79.6710218,17.455713 80.0754885,15.7649826 80.4026307,14.3288284 C78.9988933,13.6846556 77.9698823,11.6025442 77.9698823,9.13678424 C77.9698823,6.15741101 79.4717624,3.73834314 81.3245769,3.73834314 C83.1744173,3.73834314 84.6762974,6.15741101 84.6762974,9.13678424 C84.6762974,11.6418013 83.6145723,13.7506789 82.1751466,14.3585686 L80.2806959,47.8784506 L82.3446658,48.2519875 L81.9520951,57.5392571 C74.0917603,62.7669895 59.6528932,66.3411667 43.0221733,66.5674897 L43.0251473,66.5787909 L42.9656669,66.5787909 C42.6980051,66.5787909 42.4333174,66.5778987 42.1656556,66.5761143 C41.8920457,66.5778987 41.6184359,66.5787909 41.344826,66.5787909 L41.2853456,66.5787909 L41.2853456,66.5668949 C25.0947808,66.3346239 11.0365882,62.7622311 3.38146074,57.5392571 C3.38146074,57.5392571 2.72717634,49.8621219 3.00078618,48.2519875 C3.11379894,47.5789668 5.01419772,47.8784506 5.01419772,47.8784506 L3.22383768,15.4574689 C1.44537372,15.3057939 0.02676618,12.7728211 0.02676618,9.67478446 C0.02676618,6.47919997 1.53459432,3.88466492 3.39335682,3.88466492 C5.25211932,3.88466492 6.76292148,6.47919997 6.76292148,9.67478446 C6.76292148,11.8770463 6.04618266,13.7940996 4.99040556,14.7725521 C5.29078158,16.1081845 5.650638,17.637723 6.05807874,19.2523185 C6.18298758,19.6362645 6.30789642,20.0193182 6.4387533,20.4026694 C6.48931164,20.5498834 6.53986998,20.6973948 6.59042832,20.8446088 C8.60681388,26.7123502 12.6128188,37.3920561 20.2828164,37.3346575 C28.7855396,37.2713108 35.093436,22.5445586 38.2369751,13.2061358 Z" id="Path"></path>
            </g>
            <g id="Group" transform="translate(8.767118, 0.478463)" fill="#A87A06">
                <path d="M15.5124883,9.79790889 C14.1355171,8.83164979 13.228441,7.21289071 13.228441,5.38059698 C13.228441,2.42293409 15.5868388,0.022007748 18.4924564,0.022007748 C21.3980739,0.022007748 23.7564718,2.42293409 23.7564718,5.38059698 C23.7564718,7.34255798 22.7185388,9.05975713 21.1720484,9.99359941 C21.8055146,11.5368184 22.9564604,13.9856265 24.9371577,17.2511004 C26.6799334,20.1284648 28.0450086,21.9307209 28.990747,23.0245654 C25.5854941,32.1842496 19.7474928,43.9102157 12.1637418,43.9667221 C6.096741,44.0122246 2.32270962,37.3400107 0.01189608,31.6450598 C1.37399724,32.5530281 4.95769134,33.7295504 9.15700758,25.4689125 C13.1184022,17.6760879 14.867126,12.158686 15.5124883,9.79790889 Z" id="Path"></path>
            </g>
            <g id="Group" transform="translate(48.321584, 0.300022)" fill="#A46E1C">
                <path d="M8.11312656,10.3481026 C6.68262294,9.35775393 5.73093654,7.60367693 5.73093654,5.6063251 C5.73093654,2.51810273 8.00606184,0.010706472 10.8075887,0.010706472 C13.6061415,0.010706472 15.8812668,2.51810273 15.8812668,5.6063251 C15.8812668,7.41780068 15.0990995,9.02942212 13.8856994,10.0521876 C14.3585686,11.9487202 15.1080216,14.6182005 16.0805261,17.0268593 C17.8322239,21.3617909 19.7534408,28.5639751 24.0033154,30.9179119 C26.4211937,32.2571131 28.3007743,32.0739135 29.4725382,31.6670676 C27.1081923,37.3956249 23.2211482,44.1909632 16.9429919,44.1451633 C9.4127733,44.0904413 3.56287596,33.1127387 0.02676618,24.1038373 C1.1598678,23.1423366 2.9442798,21.2166587 4.87441878,17.5693206 C6.45957144,14.5703188 7.48263432,12.0944471 8.11312656,10.3481026 Z" id="Path"></path>
            </g>
            <g id="Group" transform="translate(6.031226, 60.494187)" fill="#F5F6F6" fill-opacity="0.697368">
                <path d="M37.8695991,7.6723768 C37.7882197,7.67416121 37.7005803,7.67505341 37.6098109,7.67505341 C11.6904664,7.67505341 -5.02361406,-2.26709545 1.39909999,0.515397666 C10.0159283,4.24749536 23.0428952,6.62700877 37.6098109,6.62700877 C37.6974503,6.62700877 37.7850897,6.62998279 37.8695991,6.63503862 C37.9509785,6.62998279 38.0354879,6.62700877 38.1199973,6.62700877 C52.136037,6.62700877 64.6684674,4.24749536 72.9566481,0.515397666 C79.1383539,-2.26709545 63.0565289,7.67505341 38.1199973,7.67505341 C38.0323579,7.67505341 37.9509785,7.67416121 37.8695991,7.6723768 Z" id="Path"></path>
            </g>
            <g id="Group" transform="translate(35.503558, 47.912610)" fill="#039075">
                <ellipse id="Oval" cx="7.4053098" cy="7.7798414" rx="7.378157" ry="7.75893987"></ellipse>
            </g>
            <g id="Group" transform="translate(37.692436, 48.674837)" fill="#F5F6F6" fill-opacity="0.8">
                <ellipse id="Oval" cx="5.21643108" cy="4.25671483" rx="5.18850503" ry="4.23649149"></ellipse>
            </g>
            <g id="Group" transform="translate(13.209717, 49.051314)" fill="#C436B0">
                <ellipse id="Oval" cx="4.37108954" cy="5.02449114" rx="4.34912902" ry="5.01970616"></ellipse>
            </g>
            <g id="Group" transform="translate(64.339068, 48.820530)" fill="#BE32B2">
                <ellipse id="Oval" cx="4.37108954" cy="5.02449114" rx="4.34912902" ry="5.01970616"></ellipse>
            </g>
            <g id="Group" transform="translate(14.781502, 49.817971)" fill="#F5F6F6" fill-opacity="0.8">
                <ellipse id="Oval" cx="2.79829853" cy="2.47603088" rx="2.78611209" ry="2.47154137"></ellipse>
            </g>
            <g id="Group" transform="translate(65.911746, 49.587187)" fill="#F5F6F6" fill-opacity="0.8">
                <ellipse id="Oval" cx="2.79829853" cy="2.47603088" rx="2.78611209" ry="2.47154137"></ellipse>
            </g>
            <g id="Group" transform="translate(79.026209, 39.443089)" fill="#069675">
                <path d="M2.24778488,0.0019059367 C4.25181306,0.0019059367 5.87975951,3.57871382 5.87975951,7.98418062 C5.87975951,12.3896474 4.25181306,16.0177038 2.24778488,15.9662435 C0.741716775,15.9277013 0.00348223838,13.046772 0.00348223838,8.64130524 C0.00348223838,4.23583844 0.490995612,0.0019059367 2.24778488,0.0019059367 Z" id="Path"></path>
            </g>
            <g id="Group" transform="translate(4.113799, 47.571919) scale(-1, 1) translate(-4.113799, -47.571919) translate(0.848049, 39.588162)" fill="#0A8A78">
                <path d="M2.49472357,0.0019059367 C4.71891167,0.0019059367 6.52570217,3.57871382 6.52570217,7.98418062 C6.52570217,12.3896474 4.71891167,16.0177038 2.49472357,15.9662435 C0.823200807,15.9277013 0.00386479252,13.046772 0.00386479252,8.64130524 C0.00386479252,4.23583844 0.544935746,0.0019059367 2.49472357,0.0019059367 Z" id="Path"></path>
            </g>
            <g id="Group" transform="translate(82.338725, 42.530887) rotate(2.784314) translate(-82.338725, -42.530887) translate(80.835578, 40.419334)" fill="#F5F6F6" fill-opacity="0.8">
                <path d="M1.14444211,0.194203414 C2.79107225,1.45994573 3.15661047,4.15827279 2.94821952,4.21715836 C2.93113829,4.22251159 2.69541738,3.42904343 1.26742693,2.10382075 C0.546599216,1.43466657 0.112736088,1.25325143 0.0444111863,1.11168815 C-0.129817314,0.762240965 0.358705735,-0.410117164 1.14444211,0.194203414 Z" id="Path"></path>
            </g>
            <g id="Group" transform="translate(3.698306, 42.676019) scale(-1, 1) rotate(3.088103) translate(-3.698306, -42.676019) translate(2.030388, 40.563889)" fill="#F5F6F6" fill-opacity="0.8">
                <path d="M1.2698917,0.194256515 C3.09701947,1.46034492 3.50262667,4.15940979 3.27139266,4.21831146 C3.25243905,4.22366615 2.99087927,3.42998104 1.40635768,2.104396 C0.606515441,1.43505885 0.12509381,1.25359411 0.0492793796,1.11199212 C-0.144047417,0.762449384 0.398025758,-0.410229302 1.2698917,0.194256515 Z" id="Path"></path>
            </g>
        </g>
    </g>
</svg>