<?xml version="1.0" encoding="UTF-8"?>
<svg width="100px" height="100px" viewBox="0 0 100 100" version="1.1" xmlns="http://www.w3.org/2000/svg" xmlns:xlink="http://www.w3.org/1999/xlink">
    <!-- Generator: Sketch 52.6 (67491) - http://www.bohemiancoding.com/sketch -->
    <title>Grimacing Face (1F62C)</title>
    <desc>Created with Sketch.</desc>
    <g id="Grimacing-Face-(1F62C)" stroke="none" stroke-width="1" fill="none" fill-rule="evenodd">
        <circle id="Oval-2" fill="#F6C338" cx="50" cy="50" r="45"></circle>
        <circle id="Oval-2" fill="#F6D659" cx="50" cy="48" r="41"></circle>
        <rect id="Rectangle" fill="#7B4101" x="19.1666667" y="55.2597403" width="60.6666667" height="19.8701299" rx="9.93506494"></rect>
        <path d="M39.0305172,57.012987 L39.0305172,64.6493506 L29.1298467,64.6493506 L29.1298467,57.0145337 C29.1811532,57.0135041 29.2325803,57.012987 29.2841233,57.012987 L39.0305172,57.012987 Z" id="Path" fill="#F0F1F1"></path>
        <polygon id="Path" fill="#F0F1F1" points="40.1305917 57.012987 48.9311878 57.012987 48.9311878 64.6493506 40.1305917 64.6493506"></polygon>
        <polygon id="Path" fill="#F0F1F1" points="50.0312623 57.012987 58.8318584 57.012987 58.8318584 64.6493506 50.0312623 64.6493506"></polygon>
        <path d="M59.9319329,57.012987 L69.6783268,57.012987 C69.7298698,57.012987 69.7812969,57.0135041 69.8326035,57.0145337 L69.8326035,64.6493506 L59.9319329,64.6493506 L59.9319329,57.012987 Z" id="Path" fill="#F0F1F1"></path>
        <path d="M70.932678,57.1167467 C74.5061939,57.714137 77.2741224,60.8223875 77.5159468,64.6493506 L70.932678,64.6493506 L70.932678,57.1167467 Z" id="Path" fill="#F0F1F1"></path>
        <path d="M77.5159468,65.7402597 C77.2741224,69.5672229 74.5061939,72.6754734 70.932678,73.2728637 L70.932678,65.7402597 L77.5159468,65.7402597 Z" id="Path" fill="#F0F1F1"></path>
        <path d="M69.8326035,73.3750767 C69.7812969,73.3761063 69.7298698,73.3766234 69.6783268,73.3766234 L59.9319329,73.3766234 L59.9319329,65.7402597 L69.8326035,65.7402597 L69.8326035,73.3750767 Z" id="Path" fill="#F0F1F1"></path>
        <polygon id="Path" fill="#F0F1F1" points="58.8318584 73.3766234 50.0312623 73.3766234 50.0312623 65.7402597 58.8318584 65.7402597 58.8318584 73.3766234"></polygon>
        <polygon id="Path" fill="#F0F1F1" points="48.9311878 73.3766234 40.1305917 73.3766234 40.1305917 65.7402597 48.9311878 65.7402597"></polygon>
        <path d="M39.0305172,73.3766234 L29.2841233,73.3766234 C29.2325803,73.3766234 29.1811532,73.3761063 29.1298467,73.3750767 L29.1298467,65.7402597 L39.0305172,65.7402597 L39.0305172,73.3766234 Z" id="Path" fill="#F0F1F1"></path>
        <path d="M28.0297721,73.2728637 C24.4562563,72.6754734 21.6883277,69.5672229 21.4465033,65.7402597 L28.0297721,65.7402597 L28.0297721,73.2728637 Z" id="Path" fill="#F0F1F1"></path>
        <path d="M21.4465033,64.6493506 C21.6883277,60.8223875 24.4562563,57.714137 28.0297721,57.1167467 L28.0297721,64.6493506 L21.4465033,64.6493506 Z" id="Path" fill="#F0F1F1"></path>
        <ellipse id="Oval-4" fill="#7B4101" cx="36.0833333" cy="40.6493506" rx="5.25" ry="6.42857143"></ellipse>
        <ellipse id="Oval-4-Copy" fill="#7B4101" cx="62.9166667" cy="40.6493506" rx="5.25" ry="6.42857143"></ellipse>
    </g>
</svg>