<?xml version="1.0" encoding="UTF-8"?>
<svg width="100px" height="100px" viewBox="0 0 100 100" version="1.1" xmlns="http://www.w3.org/2000/svg" xmlns:xlink="http://www.w3.org/1999/xlink">
    <!-- Generator: Sketch 52.6 (67491) - http://www.bohemiancoding.com/sketch -->
    <title>Hundred Points (1F4AF)</title>
    <desc>Created with Sketch.</desc>
    <g id="Hundred-Points-(1F4AF)" stroke="none" stroke-width="1" fill="none" fill-rule="evenodd">
        <path d="M21.833828,26.7657952 C21.2800424,27.0831185 19.3313471,28.7710859 16.5889108,30.6517015 C14.7950068,32.1771431 13.4090817,30.9381993 12.7929897,27.7888598 C12.5166346,26.4363348 12.4974551,26.2758295 12.6792969,25.70311 C12.8511212,25.1619412 13.2363558,24.6881249 13.9399517,24.1086227 C13.9464368,24.103224 15.381039,23.1744085 16.2550842,22.5687216 C17.8769569,21.444813 19.45852,20.2311855 20.9388886,18.9259137 C21.267567,18.6361111 21.5878316,18.3445877 21.8990456,18.0514993 C23.5779279,16.4703975 25.3114901,14.568072 27.0056153,12.5171819 C27.6219541,11.7710488 28.1970893,11.0482917 28.7152684,10.3757774 C29.0660506,9.92051763 29.3626034,9.5242537 29.520665,9.30583128 C29.5835935,9.22422394 29.6433047,9.14348726 29.7408857,9.00913095 C29.7785822,8.95719127 29.7785822,8.95719127 29.8169069,8.90442192 C30.1875605,8.39459595 30.4153916,8.12444874 30.7612341,7.84278378 C30.9919528,7.67528392 31.1933888,7.58825576 31.4346243,7.58691986 C31.6149025,7.57180851 31.8103396,7.6252859 31.9987237,7.72260876 C32.0896263,7.76793603 32.1728131,7.82432918 32.2318696,7.87375307 C32.2727789,7.90052656 32.3004333,7.92285307 32.3326797,7.95357814 C32.3346454,7.95327686 32.4103648,8.0176979 32.559838,8.14684129 L32.6477381,8.37689688 C32.6461675,8.62411282 32.6411796,8.65329614 32.6370993,8.67296562 C32.6678303,8.7669967 32.688224,8.86756329 32.705392,8.98595197 C32.747208,9.23610748 32.747208,9.23610748 32.7642588,9.35404787 C32.7812169,9.47171814 32.7812169,9.47171814 32.7968062,9.57963383 C32.8188755,9.71794988 32.8188755,9.71794988 32.8413322,9.85989868 C32.9537772,10.5744637 33.0187276,11.0953087 33.0648923,11.7446061 C33.0921551,12.061237 33.0953326,12.3271844 33.0900709,13.0050956 C33.0887692,13.1739108 33.0882881,13.2484837 33.0880047,13.3461461 C33.0838421,14.0721666 33.0140811,14.7852591 32.8465293,15.6026711 C32.8949069,15.3652761 29.420206,24.7310595 27.6054167,30.3406172 C27.2390826,31.4729647 26.8871665,32.5933674 26.5508806,33.7002921 C24.0322966,41.9905092 20.833939,54.5978786 20.2990754,57.4118614 C19.8157446,59.9030497 19.2538596,62.7981106 18.5285519,66.5345227 C18.1939884,68.2580215 17.0752469,74.0208679 16.8952742,74.9478917 C16.725325,75.857088 16.2931339,76.3851373 15.6742218,76.3087325 C15.2164944,76.252226 14.7558581,75.8535817 14.3097181,75.2175578 C13.4739254,74.0260387 12.8190437,72.1882682 12.7792218,70.7413749 C12.6798063,67.4354605 12.9323168,65.1670411 13.6255776,61.7047667 C13.6776085,61.4449144 13.8780446,60.456439 13.8538874,60.5759215 C14.0658949,59.5273248 14.1979792,58.8356804 14.3246449,58.0820751 C14.8631738,54.9500653 15.4077189,52.246822 16.1799256,49.1877927 C16.9778918,45.9546088 18.027113,42.3967823 19.705774,37.0787617 C19.9380298,36.3578486 20.1792354,35.6087565 20.4837793,34.6626636 C21.1361266,32.6358659 21.4459418,31.6733582 21.7438996,30.748248 C21.8283968,30.4780223 23.0574322,26.8239152 23.3434948,25.9089 C23.0847793,25.8620377 22.4091028,26.4361586 21.833828,26.7657952 Z" id="Fill-1" fill="#E10001" fill-rule="nonzero"></path>
        <path d="M32.02682,76.4169442 C33.410545,75.9508063 38.2026908,74.1327704 43.4331772,72.1565264 C46.0421648,71.1544309 50.3952039,70.0255764 54.6022799,69.2939669 C58.7985129,68.5453896 62.6510135,67.9406405 64.6169291,67.6711527 C66.587015,67.4086516 70.3121085,67.1967445 73.0228533,66.290467 C74.3915709,65.8363301 77.7986247,64.8639011 77.7641682,64.4649412 C77.7297117,64.0659813 77.1640176,63.9241727 76.2707229,63.6816336 C75.3774282,63.4380965 74.1404945,63.1396637 72.728405,62.881155 C69.9083963,62.358149 66.384428,62.0247826 63.6286431,62.3621414 C62.6602817,62.4829119 60.6735142,62.6785401 58.1871357,63.0348629 C55.6523808,63.3871932 52.6221851,63.9611025 49.6595495,64.6667613 C43.7175968,66.0661017 37.8824058,67.9455297 35.8088946,68.8528054 C27.8317981,72.4270123 28.0678414,72.1395586 28.4440094,74.8394273 C28.8368589,77.5652466 30.643095,76.8830821 32.02682,76.4169442 Z" id="Fill-8" fill="#E10001" transform="translate(53.032066, 69.538048) rotate(5.000000) translate(-53.032066, -69.538048) "></path>
        <path d="M51.2563414,9.59007823 C51.356987,9.59007823 51.4293486,9.5891437 51.6580016,9.58542622 C52.1471122,9.57747417 52.4053344,9.57816588 52.7144208,9.59499432 C53.8539121,9.65703479 54.6659168,9.93595816 55.1428688,10.6327178 C55.5910793,11.2874901 55.8191672,11.7157457 55.8924781,12.1628829 C56.0040112,12.8431452 55.6783954,13.3985103 54.9754022,13.71657 C54.4791521,13.9458793 53.8292437,14.1466964 52.4549159,14.5153105 C51.8868655,14.6726081 51.728149,14.7190871 51.3268419,14.8570457 C50.718471,15.0661873 50.134162,15.3115506 49.5892098,15.6009733 C49.0400972,15.8926055 48.5546593,16.2171914 48.1476305,16.5754288 C48.005581,16.7002478 48.005581,16.7002478 47.8640696,16.8241598 C47.7451336,16.9282805 47.7451336,16.9282805 47.626634,17.0321969 C45.6400035,18.7760153 44.6492189,19.925438 43.6014263,22.022944 C41.9973346,25.234068 40.729356,28.4599077 39.5956252,32.4025557 C38.8774189,34.9001808 38.3391061,37.8803661 38.0238372,41.0079317 C37.864798,42.6357711 37.8039015,44.1091851 37.8539282,45.4621372 C37.9070922,46.9624358 38.1133276,48.3002677 38.4579219,49.2851389 C38.6445081,49.8199141 38.9056375,50.4019949 39.1534621,50.8046246 C39.4286087,51.2780001 39.7071446,51.6489872 39.9894938,51.9120034 C40.4895919,52.4116126 40.9499427,52.6172057 41.6518268,52.6971204 C42.93828,52.831573 44.9568304,52.0148609 46.510089,50.7498436 C47.280012,50.1314695 47.9507969,49.4608621 48.4568256,48.8029773 C48.7042707,48.490049 48.9231492,48.1725409 49.1233208,47.8368836 C49.161098,47.7811379 49.1827628,47.7417273 49.2549365,47.6012653 C49.2984385,47.516603 49.3263114,47.4647048 49.3405997,47.443821 C49.4183295,47.287575 49.4913176,47.1405168 49.6356637,46.849565 C50.2805059,45.530267 50.7648169,44.3267495 51.2232133,43.0148571 C52.2582548,39.9774098 53.0809461,37.0663171 53.6270154,34.3234936 C53.9544518,32.6955618 54.1747047,31.2059844 54.2640737,29.9351237 C54.2980918,29.4741341 54.3512306,28.8195719 54.4281503,27.9992492 C54.5554434,26.6417113 54.7060116,25.2960992 54.881092,24.0367656 C55.1025445,22.4438825 55.3481867,21.1000006 55.6208758,20.0774061 C56.8247233,15.5629314 58.1305312,12.8318735 59.2277752,12.8318735 C59.998891,12.8318735 60.1914416,13.4931962 60.3001483,14.9244775 C60.360382,15.7175414 60.3722909,16.4947733 60.3722909,18.3369984 C60.3722909,20.3508111 59.9485868,28.0213714 59.6130893,32.9478871 C59.431044,35.621078 58.6050784,39.650796 57.74665,42.6839851 C57.4006099,43.9259981 56.9322918,45.3243253 56.355055,46.7982982 C56.0453805,47.5790644 55.6798803,48.4147142 55.2507226,49.3248163 C55.2600281,49.3064086 54.9553902,49.912631 54.8647848,50.0896392 C54.7090687,50.393849 54.5722711,50.6504647 54.432371,50.8975359 C54.1927366,51.3207436 53.9528978,51.6989103 53.698692,52.0466974 C52.3789547,53.901221 50.6368314,55.5425258 48.6033011,56.8114291 C46.1571226,58.3141539 43.6652702,59.0729607 41.1330362,58.8517618 C39.6751327,58.7246922 38.2430938,58.2034008 37.0690398,57.3518707 C35.9264546,56.5469128 34.9494217,55.4427161 34.1785748,54.1445662 C33.4755358,52.9589208 32.9456195,51.6842975 32.5887932,50.333053 C32.2758642,49.1941691 32.1244943,48.1235185 31.9893987,46.4530779 C31.8007668,42.9680663 32.0691536,39.8220436 32.7299969,35.7441802 C32.7753499,35.464321 32.8226869,35.1780333 32.8790829,34.8413821 C32.9119304,34.6453019 32.9522932,34.4057467 33.0240093,33.9803044 C33.7140323,30.1241907 34.6970315,27.0012792 36.9029875,21.1486967 C37.667594,19.131569 38.9210811,17.1530242 40.4797752,15.2166294 C41.8073643,13.5673408 43.2504154,12.4453148 45.8873547,11.1487904 C48.0949726,10.0633537 49.8715237,9.59007823 51.2563414,9.59007823 Z" id="Path" fill="#E10001"></path>
        <path d="M79.8922236,7.58441558 C81.2903572,7.58441558 82.2289485,7.91164152 82.934828,8.85703559 C83.9169526,10.1724083 84.0606763,11.5807788 82.6958146,12.1589861 C81.7946824,12.54074 80.1832832,12.3953319 77.3002577,14.7734909 C74.4172321,17.1516499 73.9437369,18.769662 72.7114574,21.2028694 C71.0926647,24.3992697 70.5851298,25.7244085 69.3331951,30.2387755 C68.5620469,33.0734098 68.0316888,35.6490328 67.7586072,38.1326818 C67.6000176,39.6208645 67.5393213,40.9672459 67.5891524,42.202784 C67.6419667,43.5692073 67.8466323,44.7863943 68.1875992,45.6798182 C68.3723956,46.1653963 68.6312811,46.6944616 68.8770564,47.060578 C69.1499398,47.4909981 69.4259172,47.8279945 69.7065342,48.0676671 C70.2066762,48.5257484 70.6725437,48.7164947 71.382174,48.7905669 C72.6820294,48.915117 74.7080996,48.163567 76.264717,47.0012931 C77.0337434,46.4350287 77.7032987,45.8213438 78.2079661,45.2198243 C78.4541464,44.9343985 78.6717237,44.6450378 78.8724425,44.3366453 C78.9084434,44.2879408 78.9292776,44.2531946 79.0002544,44.1265545 C79.0443482,44.0478806 79.0727586,43.9993826 79.0854932,43.9829795 C79.2361759,43.7049755 79.2361759,43.7049755 79.3803287,43.4385911 C80.0236406,42.2319309 80.5067672,41.1312459 80.9639094,39.9318034 C81.8747952,37.4811102 82.1732682,36.6574868 82.6951667,35.0861718 C83.1117046,33.8320727 83.4765988,32.6402093 83.7843141,31.5098138 C84.1266923,30.2520842 84.3915844,29.0942428 84.5695814,28.0494557 C84.6543316,27.5519982 85.0264995,25.3820664 85.1133156,24.8688887 C85.2806693,23.8796456 85.3976107,23.1571017 85.5027157,22.4540244 C85.5905405,21.8665385 85.6698336,21.292787 85.7477494,20.6787636 C85.812847,20.1657552 85.8778083,19.6180365 85.9459549,19.0073493 C86.1370608,17.2947778 86.189107,16.2052236 86.2770018,13.1743897 C86.3746821,9.8061298 86.40038,9.57982821 87.2863281,9.57982821 C88.3677459,9.57982821 88.9621803,12.4149293 89.5399149,17.3195138 C89.9637412,20.9175185 90.0041606,26.7826761 89.5401892,30.8640125 C89.2765414,33.1831974 88.8938734,35.0470687 88.3571456,36.8937633 C88.1495042,37.6081856 87.4855606,39.661569 87.4781182,39.685659 C87.1312142,40.8271776 86.6619112,42.1118583 86.083453,43.466052 C85.7731019,44.1834212 85.406936,44.9509392 84.976208,45.7883139 C84.9856216,45.7712416 84.6808553,46.3272598 84.5901057,46.4897991 C84.4339781,46.769435 84.2967449,47.0054492 84.1563267,47.2328027 C83.9156134,47.6225457 83.6746089,47.9709336 83.4194965,48.2909159 C82.0972273,49.9944025 80.3534254,51.5005984 78.3196215,52.6640841 C75.8780809,54.0391681 73.3938666,54.7327088 70.8724743,54.5307821 C69.4216129,54.4148477 67.9952886,53.9388355 66.823712,53.1598013 C65.6797174,52.4209067 64.6997338,51.4055233 63.9258455,50.2106855 C63.2193725,49.118378 62.6865072,47.9433017 62.3278205,46.6980071 C62.0128209,45.6469708 61.8606443,44.6601689 61.7248555,43.1204145 C61.5357143,39.9167344 61.8047103,37.0259182 62.4666943,33.2808854 C62.512081,33.0241197 62.5594474,32.7614887 62.6158722,32.4526901 C62.6487294,32.2728704 62.6891027,32.0531895 62.7609985,31.6621966 C63.5838489,27.4463857 64.9276162,22.9291871 66.6054611,18.8480954 C66.7706892,18.4484697 66.9347577,18.0876135 67.1026758,17.753476 C67.4319942,17.0981703 67.7727588,16.5484562 68.21413,15.940158 C68.4800335,15.5736894 69.5726345,14.1665576 69.576864,14.1610141 C71.1321893,12.1224904 72.1256841,11.2055923 74.6394732,9.66512679 C76.938903,8.25602203 78.6548398,7.58441558 79.8922236,7.58441558 Z" id="Path" fill="#E10001"></path>
        <path d="M18.6921574,93.8880178 C19.8789656,93.0895353 27.8597896,90.1416565 35.1381937,87.7981106 C38.7730412,86.610368 44.7957563,85.1880712 50.5999531,84.1739986 C56.3962324,83.1459525 62.086624,82.2995006 64.7824759,81.8972651 C67.4822864,81.5050106 72.8328895,81.1044093 75.8866483,80.4241591 C78.9404072,79.743909 81.9623359,79.0450088 81.9344119,78.6404857 C81.9064879,78.2359627 81.5899812,77.869976 80.884069,77.5755242 C80.1781568,77.2810725 77.0770976,76.7301462 75.1634783,76.5674554 C71.3370313,76.2350871 66.8333221,76.6208518 62.9532904,76.8956972 C59.0732588,77.1705426 58.8743576,77.1583324 55.5094912,77.6753498 C52.116914,78.1853804 48.0339455,78.9459349 43.9937305,79.8442277 C35.8998411,81.629834 27.8415798,83.9045107 24.9628375,84.9615018 C13.8627369,89.1036294 13.2990793,89.3980511 13.5658934,92.1158857 C13.8445835,94.8626652 17.5053492,94.6865002 18.6921574,93.8880178 Z" id="Fill-10" fill="#E10001" transform="translate(47.727534, 85.420709) rotate(4.000000) translate(-47.727534, -85.420709) "></path>
    </g>
</svg>