<?xml version="1.0" encoding="UTF-8"?>
<svg width="100px" height="100px" viewBox="0 0 100 100" version="1.1" xmlns="http://www.w3.org/2000/svg" xmlns:xlink="http://www.w3.org/1999/xlink">
    <!-- Generator: Sketch 52.6 (67491) - http://www.bohemiancoding.com/sketch -->
    <title>Pile of Poo (1F4A9)</title>
    <desc>Created with Sketch.</desc>
    <g id="Pile-of-Poo-(1F4A9)" stroke="none" stroke-width="1" fill="none" fill-rule="evenodd">
        <path d="M64.5198172,31.8419093 C70.8312327,32.0941842 75.1540279,35.6365654 75.847619,39.6883239 C76.5412102,43.7400824 75.4821034,45.7060588 74.8246705,47.1883239 C82.1211738,48.7137846 85.7694254,52.6804461 85.7694254,59.0883085 C85.7694254,62.4515201 85.3876433,64.8439497 84.1714286,67.902005 C89.7096542,68.8939808 96,73.5320421 96,79.3942063 L96,82.0412651 C96,88.6199511 91.7159507,91.9710049 85.0338527,93.4952258 C79.6516304,94.7229385 74.8674901,94.390241 69.3393304,94.4331973 C62.1015946,94.4894377 53.6967541,94.4331973 46.1482505,93.4952258 C42.9996557,93.1039838 35.4794382,92.3242235 29.8065288,92.9790513 C26.8253775,93.3231677 22.1660584,93.6478272 15.8285714,93.9530298 C9.29583182,93.9530298 4,88.6199511 4,82.0412651 L4,79.3942063 C4,73.2654324 8.8076035,68.5473366 14.5069157,67.5559642 C13.2119314,65.173473 12.7599885,63.069957 12.7599885,59.7638029 C12.7599885,53.6036431 17.0357954,48.5740456 22.8380952,47.1883239 L24.299139,47.1883239 C23.6417061,45.7060588 23.2761905,44.0637064 23.2761905,42.3353828 L23.2761905,39.6883239 C23.2761905,33.109638 28.2898515,27.3634471 34.8225911,27.3634471 L36.6286561,27.3634471 C35.7049553,26.6553171 35.1519672,24.803612 35.1047619,23.8355434 C34.9938152,21.5602887 35.0765797,20.0025694 37.8403752,16.7927842 C40.6041708,13.5829991 40.6041708,9.47415971 40.6041708,8.57421941 C40.6041708,7.67427912 41.0327706,6.24730293 38.7329767,5 C46.7223941,5.88371665 50.6849651,8.69036503 55.8555836,13.4883152 C60.6864731,17.9710221 64.5198172,21.8513187 64.5198172,31.8419093 Z" id="Combined-Shape" fill="#995F45"></path>
        <path d="M42.552381,89.1496048 C57.0809762,85.2776414 67.5955858,81.3141994 74.0962098,77.2592788 C92.5264918,65.762947 85.9349407,53.1015389 81.4986688,49.9474646 C80.3158361,49.1065012 78.2317748,48.2416601 75.246485,47.3529412 C77.0191191,48.7145084 78.2153739,49.9386031 78.8352495,51.0252254 C82.1653675,56.8628161 81.3363062,61.418501 79.7622965,64.4392528 C77.287565,69.1886198 75.5943579,72.6878055 66.7953949,78.3808057 C63.0043361,80.8336515 54.9233314,84.4232512 42.552381,89.1496048 Z" id="Path-2" fill="#7D4E38"></path>
        <path d="M17.6470342,67.1501845 C34.4696768,65.4617255 47.0965784,62.9544083 55.527739,59.6282327 C71.156812,53.4624101 75.0199544,49.1090423 76.2203542,42.9644265 C76.9032127,39.469005 75.0499858,36.1151679 70.6949079,33.3941793 C69.1697686,32.4412948 67.1391646,31.9541602 64.6030957,31.9327757 C66.5549485,32.654138 67.9158627,33.5755612 68.6858384,34.697045 C72.2928301,39.9506947 71.2213512,43.4982429 68.6858384,46.3946982 C66.6525338,48.7174535 62.3143405,52.6877824 49.9744911,58.3807826 C44.6578311,60.8336284 33.8820121,63.7567623 17.6470342,67.1501845 Z" id="Path-2-Copy" fill="#7D4E38"></path>
        <path d="M27.6571429,47.7574212 C42.7171976,43.4258829 52.4156005,39.5081261 56.7523518,36.0041507 C63.2574786,30.7481877 63.6977143,27.3086554 61.8550021,22.6908122 C61.1035107,20.8075723 59.2042704,15.967975 54.3557826,12.3518148 C53.4995835,11.7132335 52.2890972,10.3200613 47.0956828,7.64705882 C50.8210554,9.1827828 51.3321991,9.36523023 54.3557826,11.5089714 C61.439007,16.5310254 66.5342227,23.4810145 66.5342227,28.7070581 C66.5342227,35.4556058 58.2418786,39.3320795 54.3557826,41.3185554 C49.6311668,43.7336619 40.7316202,45.8799505 27.6571429,47.7574212 Z" id="Path-3" fill="#7D4E38"></path>
        <path d="M38.9104318,15.4605142 C36.2860339,18.0771263 34.973835,20.5868173 34.973835,22.9895873 C34.973835,26.5937422 36.7585828,28.7994156 40.9795775,27.1056178 C43.793574,25.9764193 45.8204113,24.6044091 47.0600895,22.9895873 C43.1239742,24.3758232 40.5399742,24.3758232 39.3080897,22.9895873 C38.0762051,21.6033513 37.9436525,19.0936603 38.9104318,15.4605142 Z" id="Path-4" fill="#7D4E38"></path>
        <ellipse id="Oval" fill="#FFFFFF" cx="35.1047619" cy="53.9705882" rx="10.0761905" ry="12.7941176"></ellipse>
        <ellipse id="Oval-Copy" fill="#FFFFFF" cx="64.8952381" cy="53.9705882" rx="10.0761905" ry="12.7941176"></ellipse>
        <ellipse id="Oval" fill="#0B0A0B" cx="35.1047619" cy="54.4117647" rx="4.81904762" ry="7.94117647"></ellipse>
        <ellipse id="Oval-Copy-2" fill="#0B0A0B" cx="64.8952381" cy="54.4117647" rx="4.81904762" ry="7.94117647"></ellipse>
        <path d="M50.4091263,82.2687673 C50.3308378,82.2694023 50.2524316,82.2697207 50.1739105,82.2697207 C49.804491,82.2697207 49.4485009,82.2556999 49.1059403,82.2286778 C41.6882755,81.8311899 35.5189752,78.5852777 33.2144259,74.1847335 C32.9808494,73.7387186 32.3292892,71.5532037 34.2141608,71.2182986 C35.3926125,71.0089106 35.6702913,71.6534022 50.4091263,71.6601935 C65.1479613,71.6534022 65.42564,71.0089106 66.6040918,71.2182986 C68.4889634,71.5532037 67.8374031,73.7387186 67.6038267,74.1847335 C65.2992774,78.5852777 59.1299771,81.8311899 51.7123123,82.2286778 C51.3697517,82.2556999 51.0137616,82.2697207 50.6443421,82.2697207 C50.565821,82.2697207 50.4874147,82.2694023 50.4091263,82.2687673 Z" id="Combined-Shape" fill="#FFFFFF"></path>
    </g>
</svg>