<?xml version="1.0" encoding="UTF-8"?>
<svg width="100px" height="100px" viewBox="0 0 100 100" version="1.1" xmlns="http://www.w3.org/2000/svg" xmlns:xlink="http://www.w3.org/1999/xlink">
    <!-- Generator: Sketch 52.6 (67491) - http://www.bohemiancoding.com/sketch -->
    <title>Smiling Face With 3 Hearts (1F970)</title>
    <desc>Created with Sketch.</desc>
    <g id="Smiling-Face-With-3-Hearts-(1F970)" stroke="none" stroke-width="1" fill="none" fill-rule="evenodd">
        <path d="M50,5.023 L50,5 C74.987,5.767 95,25.615 95,49.989 C95,74.362 74.987,94.211 50,94.977 L50,95 C25.013,94.233 5,74.385 5,50.011 C5,25.638 25.013,5.789 50,5.023 Z" id="Combined-Shape" fill="#FFCA39"></path>
        <circle id="Oval" fill="#FFDE5C" cx="50" cy="48" r="41"></circle>
        <path d="M16.1955048,84.0539286 C16.9763933,83.5251073 17.8495331,82.8897422 18.7934856,82.1497822 C21.4941122,80.0305991 24.2083817,77.4962848 26.7563388,74.5520366 C28.1459564,72.9480319 28.9547801,71.0347903 28.9547801,69.0988107 C28.9547801,64.8526486 25.8533147,61.4094633 22.0248825,61.4094633 C20.0882532,61.4094633 18.2815554,62.2955963 16.9789919,63.8326861 L15.7297003,65.2229534 L15.0085804,64.4206263 L14.4804087,63.8326861 C13.1765459,62.2955963 11.3698482,61.4094633 9.43321884,61.4094633 C5.60543626,61.4094633 2.50462053,64.8526486 2.50462053,69.0988107 C2.50462053,71.0659739 3.35112438,73.1442285 4.70631014,74.7280938 C7.25101896,77.7028759 9.95684287,80.2086053 12.6464253,82.2576254 C13.5851806,82.9728984 14.4537728,83.5796786 15.229464,84.0792653 C15.4100688,84.1949043 15.5685852,84.2949516 15.705663,84.3794071 C15.845989,84.2878054 16.0097027,84.1793126 16.1955048,84.0539286 Z" id="Path" fill="#E30613" transform="translate(15.729700, 72.894435) rotate(-3.777723) translate(-15.729700, -72.894435) "></path>
        <path d="M80.8867779,93.5095667 C81.6676661,92.9807455 82.5408056,92.3453806 83.4847579,91.6054208 C86.1853837,89.4862383 88.8996524,86.9519248 91.4476088,84.0076774 C92.837226,82.4036732 93.6460494,80.4904321 93.6460494,78.5544531 C93.6460494,74.3082922 90.544585,70.8651079 86.7161538,70.8651079 C84.7795251,70.8651079 82.9728278,71.7512406 81.6702647,73.2883301 L80.4209735,74.6785969 L79.6998538,73.87627 L79.1716823,73.2883301 C77.8678199,71.7512406 76.0611226,70.8651079 74.1244939,70.8651079 C70.2967124,70.8651079 67.1958976,74.3082922 67.1958976,78.5544531 C67.1958976,80.5216157 68.0424012,82.5998698 69.3975865,84.1837345 C71.9422946,87.1585158 74.6481177,89.6642445 77.3376994,91.7132639 C78.2764544,92.4285367 79.1450464,93.0353168 79.9207373,93.5349033 C80.1013421,93.6505423 80.2598585,93.7505896 80.3969362,93.835045 C80.5372622,93.7434433 80.7009759,93.6349506 80.8867779,93.5095667 Z" id="Path" fill="#E30613" transform="translate(80.420974, 82.350076) rotate(5.179213) translate(-80.420974, -82.350076) "></path>
        <path d="M84.7660056,29.7224887 C85.5468945,29.1936671 86.4200348,28.5583016 87.3639878,27.8183412 C90.064616,25.699157 92.7788869,23.1648412 95.3268455,20.2205914 C96.7164638,18.6165859 97.525288,16.7033432 97.525288,14.7673624 C97.525288,10.521198 94.4238209,7.07801082 90.5953865,7.07801082 C88.6587561,7.07801082 86.8520574,7.96414428 85.5494931,9.50123501 L84.3002009,10.8915031 L83.5790806,10.0891755 L83.0509086,9.50123501 C81.7470451,7.96414428 79.9403463,7.07801082 78.0037159,7.07801082 C74.1759312,7.07801082 71.0751138,10.521198 71.0751138,14.7673624 C71.0751138,16.7345268 71.9216181,18.8127826 73.2768046,20.3966487 C75.8215148,23.3714325 78.5273402,25.8771632 81.2169242,27.9261844 C82.15568,28.6414579 83.0242727,29.2482384 83.7999643,29.7478254 C83.9805692,29.8634645 84.1390857,29.9635118 84.2761635,30.0479673 C84.4164897,29.9563656 84.5802035,29.8478727 84.7660056,29.7224887 Z" id="Path" fill="#E30613" transform="translate(84.300201, 18.562989) rotate(4.045793) translate(-84.300201, -18.562989) "></path>
        <path d="M49.9998965,71.5432575 C60.9968713,71.5432575 62.499275,66.9291421 62.499275,68.36761 C62.499275,73.0906817 56.9030485,78.6725492 49.9998965,78.6725492 C43.0967445,78.6725492 37.500518,73.0178401 37.500518,68.36761 C37.500518,66.9291421 39.0034557,71.5432575 49.9998965,71.5432575 Z" id="Path" fill="#7F4401"></path>
        <path d="M64.5409288,50.5193096 C70.3719268,50.5193096 73.1879258,52.5733089 73.1879258,50.1963097 C73.1879258,47.8203105 69.3169271,45.2383114 64.5409288,45.2383114 C59.7659305,45.2383114 55.8939319,47.8203105 55.8939319,50.1963097 C55.8939319,52.5733089 58.7109309,50.5193096 64.5409288,50.5193096 Z" id="Path" fill="#7F4401" transform="translate(64.540929, 48.290919) scale(-1, 1) rotate(-6.536091) translate(-64.540929, -48.290919) "></path>
        <path d="M70.2048198,33.1659149 C73.0128204,33.1659149 75.461821,33.657915 77.3778214,34.1589151 C79.2308219,34.6429152 80.3088221,34.8609153 80.5028221,33.8179151 C80.9388222,31.4809145 77.4678215,29.9099142 73.8878206,29.5279141 C71.4258201,29.264914 67.9528193,29.5109141 65.3408187,30.5409143 C63.2218182,31.3759145 60.3338176,32.6009148 60.3338176,33.9119151 C60.3338176,35.4469154 61.9308179,34.4119152 64.6318185,33.739915 C66.551819,33.2619149 68.2468194,33.1659149 70.2048198,33.1659149 Z" id="Path" fill="#7F4401" transform="translate(70.436910, 32.069873) scale(-1, 1) rotate(-9.527325) translate(-70.436910, -32.069873) "></path>
        <path d="M35.5773712,50.5193096 C41.4083691,50.5193096 44.2243681,52.5733089 44.2243681,50.1963097 C44.2243681,47.8203105 40.3533695,45.2383114 35.5773712,45.2383114 C30.8023729,45.2383114 26.9303742,47.8203105 26.9303742,50.1963097 C26.9303742,52.5733089 29.7473732,50.5193096 35.5773712,50.5193096 Z" id="Path" fill="#7F4401" transform="translate(35.577371, 48.290919) rotate(-6.536091) translate(-35.577371, -48.290919) "></path>
        <path d="M29.4491005,33.1659149 C32.2571011,33.1659149 34.7061017,33.657915 36.6221021,34.1589151 C38.4751026,34.6429152 39.5531028,34.8609153 39.7471028,33.8179151 C40.1831029,31.4809145 36.7121021,29.9099142 33.1321013,29.5279141 C30.6701008,29.264914 27.1971,29.5109141 24.5850994,30.5409143 C22.4660989,31.3759145 19.5780982,32.6009148 19.5780982,33.9119151 C19.5780982,35.4469154 21.1750986,34.4119152 23.8760992,33.739915 C25.7960997,33.2619149 27.4911001,33.1659149 29.4491005,33.1659149 Z" id="Path" fill="#7F4401" transform="translate(29.681190, 32.069873) rotate(-9.527325) translate(-29.681190, -32.069873) "></path>
    </g>
</svg>