<?xml version="1.0" encoding="UTF-8"?>
<svg width="100px" height="100px" viewBox="0 0 100 100" version="1.1" xmlns="http://www.w3.org/2000/svg" xmlns:xlink="http://www.w3.org/1999/xlink">
    <!-- Generator: Sketch 52.6 (67491) - http://www.bohemiancoding.com/sketch -->
    <title>Thumbs Up (1F44D)</title>
    <desc>Created with Sketch.</desc>
    <g id="Thumbs-Up-(1F44D)" stroke="none" stroke-width="1" fill="none" fill-rule="evenodd">
        <path d="M56.7685245,85.5633741 C54.3053796,85.4599496 51.6628598,85.1819339 48.8409649,84.729327 C45.1832513,84.1426622 40.934485,81.9611256 36.0946661,78.1847172 L21.3976695,81.4404114 C15.3016459,77.7161728 12.2536341,71.335455 12.2536341,62.2982581 C12.2536341,53.2610612 14.3172212,47.1205217 18.4443952,43.8766395 L31.9381507,45.1833467 C32.3598694,43.9171795 34.7387509,41.2518413 39.074795,37.1873321 C45.5788613,31.0905683 45.8541223,26.2279713 44.8627352,20.742754 C43.8713481,15.2575368 42.1228068,10.9409734 45.8541223,9.0350784 C49.5854377,7.12918335 54.2868736,8.88318426 57.5126431,12.6266817 C60.7384126,16.3701792 60.4803817,23.0679726 58.9099965,29.5006454 C57.3396113,35.9333181 59.8476741,37.0729029 63.0575602,38.9657827 C63.9989328,39.5209131 65.2424011,40.1486197 66.7879653,40.8489027 C67.219136,40.822195 67.6620368,40.7952395 68.1166308,40.7672735 C77.2045217,40.2081995 85.5571192,39.1826845 85.5571192,46.0165985 C85.5571192,51.6423323 79.6863057,52.1954355 74.1604989,52.5785999 L74.1604989,53.8865526 C81.4516558,53.311799 87,52.9331594 87,57.9478026 C87,63.2126921 80.2167246,63.513231 74.1604989,63.8668678 L74.1604989,66.0339976 C79.9035289,65.5820545 84.0769231,65.6810326 84.0769231,70.2424455 C84.0769231,74.9521236 79.1423372,75.6892791 74.1604989,76.0455191 L74.1604989,78.3101451 C77.6182773,77.9014625 79.6923077,78.0759152 79.6923077,81.3900359 C79.6923077,86.5382522 72.6169941,86.0474805 67.5662578,86.5382522 C63.9734578,86.8873587 59.3365062,87.2430594 56.7685245,85.5633741 Z" id="Combined-Shape" fill="#FDCB45"></path>
        <path d="M30.7307692,45.2563695 C31.4053719,43.1897949 33.1497231,40.8375711 35.9638227,38.1996981 C42.4678889,32.1029343 44.5977763,27.7900318 43.6063892,22.3048145 C42.6734972,17.1432428 40.4747425,12.5176017 44.6937583,10.1696429 C42.6942796,12.3676395 44.1079752,16.2222733 44.9610484,20.9422176 C45.9524355,26.4274349 45.6771745,31.2900319 39.1731083,37.3867957 C34.8370641,41.4513049 32.4581827,44.1166431 32.0364639,45.3828103 L30.7307692,45.2563695 Z" id="Combined-Shape" fill="#CD9301"></path>
        <path d="M33.6938467,78.5851163 C33.5277094,78.1442258 33.3768875,77.666424 33.2413809,77.1517108 C32.8900216,75.8170944 32.986071,73.8122483 33.5295291,71.1371727 C33.5625846,72.3539893 33.9208642,73.7355254 34.6043679,75.281781 C35.2140728,76.6610851 35.8682497,77.6377648 36.5668988,78.2118202 C36.6327249,78.2623591 36.6985427,78.3125865 36.764348,78.3625033 C36.7837144,78.3761626 36.8031143,78.3895201 36.8225475,78.4025754 L36.8201418,78.4047537 C41.4843772,81.9307736 46.0790597,83.896287 49.0488693,84.5518389 C51.6544264,85.1269862 52.9849027,85.215521 54.5704172,85.2291495 C54.3574583,84.7594201 54.2153407,84.2218039 54.1564903,83.6075756 C53.9733541,81.696162 54.4000399,80.4424824 55.4790158,79.5982143 C55.2885944,80.2340166 55.2389087,80.9905492 55.3254736,81.8940373 C55.8434007,87.2997027 62.810633,86.7715255 67.7569962,86.2570107 C71.3352482,85.8848053 75.9511134,86.0511146 78.2307692,84.1282985 C76.9851929,87.8711327 70.998428,87.511783 66.5880129,87.9705491 C64.4875371,88.189038 62.0226419,88.4099907 59.8419429,88.1779685 L57.6563624,88.407728 C54.6013882,88.407728 51.2450444,88.1143956 47.5873308,87.5277309 C43.9296172,86.9410661 39.6808509,84.7595295 34.8410319,80.983121 L20.1440353,84.2388153 C14.0480118,80.5145767 11,74.1338589 11,65.096662 C11,58.5059848 12.0975274,53.455907 14.2925822,49.9464286 C13.0718864,53.1477969 12.4615385,57.2059107 12.4615385,62.12077 C12.4615385,71.1579669 15.5095502,77.5386847 21.6055738,81.2629233 L33.6938467,78.5851163 Z" id="Combined-Shape" fill="#CD9301"></path>
        <path d="M54.1754828,61.1915538 C54.0957496,61.2724062 54.0149159,61.3531406 53.9329817,61.4337569 C51.2653426,64.0584886 47.9945184,65.45839 44.1205091,65.6334612 C46.9953812,64.7127601 49.6290342,62.9096004 52.021468,60.2239822 C54.1771844,57.8040903 55.256625,55.1547311 55.2597898,52.2759046 C54.6704576,51.4820997 54.2847661,50.4844083 54.1667776,49.2372755 C53.9378089,46.8170874 54.471279,45.2297072 55.8202845,44.1607143 C55.5822073,44.9657526 55.520087,45.9236567 55.6283161,47.0676326 C56.2758621,53.9121619 64.9867462,53.2433961 71.1710091,52.5919293 C75.644771,52.1206513 81.4158241,52.3312284 84.2659971,49.8966028 C82.7086971,54.6356934 75.2236566,54.1806931 69.7094706,54.7615722 C66.0352847,55.1486207 61.4692597,55.5417755 58.2322181,54.361794 C57.8042695,56.2181015 56.8780957,58.0209868 55.4536969,59.7704499 C56.5483186,65.5496652 65.675164,64.6320435 71.9525753,64.0474087 C76.6151461,63.6131689 82.5185123,63.6054824 85.4889728,61.3621969 C83.8659491,65.7288368 76.1270256,65.8646019 70.3801211,66.399829 C63.9548922,66.9982306 54.9003065,67.4368218 54.1754828,61.1915538 Z" id="Combined-Shape" fill="#CD9301"></path>
        <path d="M83.3010304,73.1466419 C81.8289856,77.5132818 74.6588791,78.5193966 68.9837761,78.8000858 C62.9548847,79.0982733 54.7760598,79.7341979 54.1639641,73.4275882 C53.9475304,71.1976056 54.4517954,69.7349795 55.7269487,68.75 C55.5019053,69.4917694 55.4431858,70.3743907 55.5454898,71.4284602 C56.1575855,77.7350698 64.6835697,76.9237227 70.5965761,76.4137662 C77.1389048,75.849535 81.3737228,74.7604935 83.3010304,73.1466419 Z" id="Combined-Shape" fill="#CD9301"></path>
    </g>
</svg>